<?xml version="1.0" encoding="UTF-8"?>
<svg id="Layer_1" data-name="Layer 1" xmlns="http://www.w3.org/2000/svg" viewBox="0 0 2535.84 1922.4">
  <defs>
    <style>
      .cls-1, .cls-2, .cls-3, .cls-4, .cls-5, .cls-6, .cls-7, .cls-8, .cls-9, .cls-10, .cls-11, .cls-12, .cls-13, .cls-14, .cls-15, .cls-16, .cls-17, .cls-18, .cls-19, .cls-20, .cls-21, .cls-22, .cls-23, .cls-24, .cls-25, .cls-26, .cls-27, .cls-28, .cls-29, .cls-30, .cls-31, .cls-32, .cls-33, .cls-34, .cls-35 {
        stroke-width: 0px;
      }

      .cls-1, .cls-2, .cls-3, .cls-4, .cls-5, .cls-6, .cls-7, .cls-8, .cls-9, .cls-10, .cls-11, .cls-12, .cls-13, .cls-14, .cls-15, .cls-16, .cls-17, .cls-18, .cls-19, .cls-20, .cls-21, .cls-22, .cls-23, .cls-24, .cls-26, .cls-27, .cls-28, .cls-30, .cls-31, .cls-32, .cls-33, .cls-34, .cls-35 {
        fill-rule: evenodd;
      }

      .cls-1, .cls-29 {
        fill: #fff;
      }

      .cls-2 {
        fill: #d3ffc9;
        opacity: .75;
      }

      .cls-3 {
        fill: #f5916f;
      }

      .cls-4 {
        fill: #6ac460;
      }

      .cls-5 {
        fill: #28874e;
      }

      .cls-6 {
        fill: #f0f3f9;
      }

      .cls-7 {
        fill: #caf5a4;
      }

      .cls-8 {
        fill: #67c742;
      }

      .cls-9 {
        fill: #d1e4f5;
      }

      .cls-10 {
        fill: #37ab41;
      }

      .cls-11 {
        fill: #8acf59;
      }

      .cls-12 {
        fill: #78e346;
      }

      .cls-13 {
        fill: #e3edf3;
      }

      .cls-14 {
        fill: #194730;
      }

      .cls-15 {
        fill: #b0cf9f;
      }

      .cls-16 {
        fill: #82db46;
      }

      .cls-17 {
        fill: #bcdbf3;
      }

      .cls-18 {
        fill: #b1efab;
      }

      .cls-19 {
        fill: #3eb53e;
      }

      .cls-20 {
        fill: #384540;
      }

      .cls-21 {
        fill: #ed7d57;
      }

      .cls-22 {
        fill: #0d152e;
      }

      .cls-23, .cls-25 {
        fill: #6fa642;
      }

      .cls-24 {
        fill: #fce0da;
      }

      .cls-26 {
        fill: #ffdfc9;
      }

      .cls-27 {
        fill: #9ad35e;
      }

      .cls-28 {
        fill: #73a60d;
      }

      .cls-30 {
        fill: #00549b;
      }

      .cls-31 {
        fill: #4b9958;
      }

      .cls-32 {
        fill: #1d2b5b;
      }

      .cls-33 {
        fill: #64914a;
      }

      .cls-34 {
        fill: #2570b7;
      }

      .cls-35 {
        fill: #adf59d;
      }
    </style>
  </defs>
  <path class="cls-2" d="M111.36,768.41C-183.49,149.71,634.55,5.68,1139.2,147.5c218.14,61.3,1003.41-179.11,1268.98-3.9,209.59,138.29-142,884.42-153.61,1088.94-11.51,202.88,243.01,354.54,73.97,442.42-243.71,126.7-721.84,11.72-1040.5-3.37-172.22-8.15-631.22,22.13-799.12,25.57-764.48,15.65-216.99-591.81-377.56-928.76h0ZM849.14,1733.61c-373.49,0-676.26,29.12-676.26,65.07s302.77,65.07,676.26,65.07,676.27-29.13,676.27-65.07-302.78-65.07-676.27-65.07Z"/>
  <g>
    <path class="cls-8" d="M2326.94,693.75c1.38-4.76.05-9.76-5.41-13.16-5.93-3.69-14.21-3.39-20.24.24-1.36-2.63-3.98-4.87-6.45-6.36-1.49-.9-3-1.28-4.4-1.2.29-4.65-1.13-9.36-4.46-12.59-2.51-2.42-5.62-3.75-8.81-4.1-.68-3.27-2.37-6.44-4.69-8.27-2.22-1.74-5.76-2.96-8.68-2.26-4.32-5.25-13.14-6.06-19.53-5.24-8.76,1.12-13.43,6.47-15.01,13.82-3.02-1.8-7-1.57-9.98,1-2.71,2.35-3.98,6.28-3.28,9.75-3.77-1.19-8-.76-11.84,1.79-2.41,1.61-4.15,3.89-5.28,6.48-5.85-3.99-14.2-5.22-20.24-3.09-9.84,3.46-13.58,11.85-12.9,20.9-1.8-.46-3.64-.3-5.34,1.14-1.39,1.17-2,3.12-1.9,5.03-11.05,1.08-19.55,13.33-17.52,24.08,1.07,5.68,4.75,10.43,10.21,12.47.68.25,1.43.47,2.21.65.38,3.65,1.57,7.16,3.86,10.12,4.88,6.32,13.21,4.09,18.71-.08.67,1.13,1.75,1.97,3.45,2.21,2.87.41,5.74-1.42,7.41-3.85,1.23,4.33,3.4,8.31,7.5,10.75,4,2.37,8.86,2.15,13.12.44,1.85,5.57,7.6,10.69,12.63,11.7,8.37,1.69,15.56-3.66,20.19-10.4,5.44,5.31,12.66,8.54,20.67,8.59,6.32.04,13.96-3.03,17.25-8.41,3.54.65,8.13-.87,10.29-2.89,1.77-1.65,3.13-5.09,3.49-8.53,4.23.59,8.72.1,12.12-1.12,7.18-2.59,13.41-9.22,14.7-16.82,6.13-1.38,12.16-6.53,14.19-11.7,2.56-6.53.54-17.94-6.03-21.09Z"/>
    <path class="cls-16" d="M2296.7,732.92c-10.27,13.96-26.69-1.23-26.69-1.23,0,0-4.1,5.34-17.86,11.29-13.76,5.95-23.2-14.88-23.2-14.88,0,0-7.31,14.07-20.02,10.19-12.7-3.88-7.49-23.03-7.49-23.03,0,0-7.14,9.14-18.03,0-10.89-9.14,9.4-23.4,9.4-23.4,0,0-13.14.41-12.56-13.14.21-4.92,2.25-7.67,4.77-9.19-2.26.01-4.45.34-6.39,1.03-9.84,3.46-13.58,11.85-12.9,20.9-1.8-.46-3.64-.3-5.34,1.14-1.39,1.17-2,3.12-1.9,5.03-11.05,1.08-19.55,13.33-17.52,24.08,1.07,5.67,4.75,10.43,10.21,12.46.68.26,1.43.48,2.21.66.38,3.65,1.57,7.16,3.86,10.12,4.88,6.32,13.21,4.09,18.71-.08.67,1.13,1.75,1.97,3.45,2.21,2.87.41,5.74-1.42,7.41-3.85,1.23,4.33,3.4,8.31,7.5,10.75,4,2.37,8.86,2.15,13.12.44,1.85,5.57,7.6,10.69,12.63,11.7,8.37,1.69,15.56-3.66,20.19-10.4,5.44,5.31,12.66,8.54,20.67,8.59,6.32.04,13.96-3.03,17.25-8.41,3.54.65,8.13-.87,10.29-2.89,1.77-1.65,3.13-5.09,3.49-8.53,4.23.59,8.72.1,12.12-1.12,4.62-1.67,8.83-5,11.6-9.19-11.09,6.29-18.98-1.25-18.98-1.25Z"/>
    <path class="cls-12" d="M2239.72,792.37c2.4-5.68,4.8-11.37,7.03-17.14,5.93-15.34,8.22-32.41,16.9-46.51.16-.14.3-.28.47-.42,1.92-1.62,3.88-3.16,5.78-4.75,6.96-2.36,14.4-1.05,21.7-2.77,6.22-1.47,11.76-4.8,14.89-10.51.1-.18-.13-.37-.28-.22-6.51,6.33-14.93,8.39-23.82,8.4-2.35,0-4.83-.06-7.25.11.39-.44.77-.87,1.14-1.34,3.66-4.57,6.14-9.96,8.13-15.44.32-.88-1.05-1.22-1.39-.38-2.64,6.43-6.96,11.89-12.32,16.31-4.58,3.78-9.97,6.5-13.89,11.07-1.83,2.14-3.14,4.56-4.16,7.13-.91-5.36-2.64-10.51-4.19-15.78-.14-.49-.26-.96-.38-1.44-.55-2.78-.98-5.62-1.12-8.62h0c0-.77.02-1.53.08-2.28,1.8-7.35,3.03-15.52,9.74-19.64,5.17-3.17,10.47-4.51,13.02-10.49.23-.55-.5-1.03-.83-.48-4.33,7.11-14.41,6.27-19.35,12.81-1.43,1.9-2.59,4.21-3.51,6.7-.26-2.18-.63-4.34-1.18-6.47-2.26-8.71-7.47-16.81-6.1-26.12.06-.43-.57-.63-.67-.18-1.19,5.74-.53,11.18.93,16.81,2.08,8.03,3.58,15.59,3.89,23.93.25,6.67.49,13.37,2.26,19.85.74,2.71,1.64,5.33,2.4,7.93.12.62.24,1.24.35,1.86.42,2.32.64,4.62.74,6.91-.94,6.9-3.5,13.63-6.56,20-.27.35-.56.64-.89.8-.14.06-.25.09-.38.15-5.03-3.24-8.76-9.39-12.96-13.5-4.27-4.17-8.54-8.4-11.28-13.45-1.98-5.41-1.81-11.38.09-16.85,3.39-9.75,16.37-15.98,15.77-26.9-.02-.48-.78-.64-.88-.12-1.66,8.33-9.39,11.47-14.04,17.79-.56.77-1.08,1.58-1.57,2.39.31-5.26-.38-10.29-3.16-15.07-.2-.35-.73-.05-.55.32,5.93,12.23-4.01,25.41-1.73,37.88-3.88-2.82-7.83-5.54-11.23-8.95-3.04-3.04-5.56-6.38-7.79-9.91-1.9-3.72-3.56-7.44-4.93-11.62-1.14-3.48-2.65-7.06-6-8.86-.16-.08-.38.1-.26.26,3.21,4.36,3.67,9.33,5.44,14.31.75,2.14,1.75,4.28,2.98,6.27,1.53,2.98,3.39,5.72,5.52,8.27-4-1.54-8.26-1.84-12.36-3.01-6.32-1.8-11.64-5.47-15.34-10.91-.27-.4-.89-.05-.65.38,4.65,8.1,11.21,12.87,20.28,15.03,9.01,2.16,15.73,7.25,22.69,12.39,11.04,10.41,21.74,20.85,22.51,36.98.95,19.8-11.11,36.07-20.62,52.31-8.82,15.04-11.5,31.2-8.15,48.23h37.35c-17.25-25.36-10.79-55.9-.31-83.44Z"/>
    <path class="cls-27" d="M2245.59,715.27c-1.03-5.75-.41-10.89-.41-14.17s-1.85-12.32-4.41-17.86c-2.57-5.54-2.62-19.32-2.62-19.32-1.19,5.74-.53,11.18.93,16.81,2.08,8.03,3.58,15.59,3.89,23.93.25,6.67.49,13.37,2.26,19.85.74,2.71,1.64,5.33,2.4,7.93.12.62.24,1.24.35,1.86.42,2.32.64,4.62.74,6.91-.94,6.9-3.5,13.63-6.56,20l-2.63,6.67s-14.32-18.32-18.02-21.56c-3.7-3.24-6.01-8.32-7.24-11.7-1.23-3.39-.31-13.86,1.38-19.25,1.7-5.39,12.32-14.16,14.47-17.24.95-1.36,1.7-4.19,2.23-6.97-.24-.22-.66-.2-.74.18-1.66,8.33-9.39,11.47-14.04,17.79-.56.77-1.08,1.58-1.57,2.39.31-5.26-.38-10.29-3.16-15.07-.2-.35-.73-.05-.55.32,5.93,12.23-4.01,25.41-1.73,37.88l1.23,3.18s-8.76-5.52-10.78-8.45c-2.02-2.92-7.54-8.47-9.54-11.7-2.01-3.24-6.32-13.4-7.7-17.71-.59-1.82-2.01-3.37-3.44-4.55-.02.04-.02.09.02.14,3.21,4.36,3.67,9.33,5.44,14.31.75,2.14,1.75,4.28,2.98,6.27,1.53,2.98,3.39,5.72,5.52,8.27l2.1,2.36s-6.31-1.54-12.01-3.23c-5.7-1.7-7.85-2.77-14.49-9.07-1.87-1.77-3.07-3.07-3.85-4.06-.13.1-.21.27-.09.47,4.65,8.1,11.21,12.87,20.28,15.03,9.01,2.16,15.73,7.25,22.69,12.39,11.04,10.41,21.74,20.85,22.51,36.98.95,19.8-11.11,36.07-20.62,52.31-8.82,15.04-11.5,31.2-8.15,48.23h18.77c-3.29-12.5-7.22-31.81-2.96-40.86,6.57-13.96,14.78-43.73,19.71-53.17s13.34-34.7,13.96-38.8c.62-4.11-5.54-21.97-6.57-27.72Z"/>
    <path class="cls-32" d="M2192.01,736.96c.03-.4.12-1.46.47-2.11,0,0-.02,1.09.13,1.65.16.56-.6.46-.6.46Z"/>
  </g>
  <path class="cls-18" d="M2305.14,1020.91c-27.45,89.69-47.91,164.85-50.57,211.63-11.51,202.89,243.01,354.53,73.98,442.43-243.71,126.7-721.84,11.72-1040.5-3.37-172.23-8.15-631.23,22.13-799.13,25.56-593.93,12.16-396.01-351.75-353.43-672.75l2169.66-3.49h0ZM849.14,1733.6c-373.48,0-676.26,29.13-676.26,65.07s302.78,65.07,676.26,65.07,676.26-29.13,676.26-65.07-302.77-65.07-676.26-65.07Z"/>
  <path class="cls-9" d="M78.15,1509.67c-29.99-124.44,27.44-294.03,53.05-456.03,39.46-5.93,76.39-7.31,110.78-4.13,109.45,10.06,217.27,31.67,325.93,54.03,115.58,23.85,308.53,46.66,421.95,21.71,56.97-12.61,88.92-17.34,95.89-14.19-.87.11-1.73.22-2.54.34-7.94,1.1-35.55,12.81-11.69,14.08,28.69,1.55,38.21,7.17,28.57,16.88,8.57.43,106.87,16.6,47.55,32.16-38.43,8.16-124.7,3.1-147.21,10.34-.06.02-.13.05-.2.05-14.19,4.74-15.71,9.75-4.53,15.04,17.6,2.9-154.92,37.32-155.86,40.66-2.54,8.9,1.6,12.3,12.42,10.14-.96,28.86-80.9,42.52-239.84,41-10.22-.08-59.89,45.81-15.4,56.96-4.9,24.42-40.72,25.08-53.02,27.16-183.57,32.51-338.85,77.1-465.85,133.77Z"/>
  <g>
    <g>
      <g>
        <path class="cls-12" d="M2015.2,522.19h-1.36c-9.63,0-17.51,7.88-17.51,17.51v33.68h37.72v-32.33c0-10.37-8.49-18.86-18.86-18.86Z"/>
        <path class="cls-28" d="M2060.27,542.34c2.41,1.2,4.78,2.4,7.11,3.61,4.26,3.46,7,8.75,7,14.64v32.34c-16.4-8.6-29.94-14.86-37.71-18.69-.96-.47-1.84-.46-2.62-.84v-32.33c0-5.69-2.55-10.81-6.57-14.27,9.66,4.39,21.47,9.9,32.78,15.55Z"/>
        <path class="cls-27" d="M2074.39,592.92h-36.43c-.44-.23-.87-.45-1.3-.67-19.57-10.15-34.63-16.48-40.33-18.86h37.72c6.43.8,33.42,15.91,40.33,19.53Z"/>
      </g>
      <g>
        <path class="cls-12" d="M2037.96,580.44c-5,0-9.06,1.82-9.06,4.07,0,142.96.84,286.81.84,430.11h16.77c0-143.34.51-286.94.51-430.11,0-2.24-4.06-4.07-9.07-4.07Z"/>
        <path class="cls-27" d="M2037.96,580.44c-.79,0-1.56.05-2.3.13,3.9.46,6.77,2.05,6.77,3.93,0,143.18-.51,286.77-.51,430.11h4.6c0-143.34.51-286.94.51-430.11,0-2.24-4.06-4.07-9.07-4.07Z"/>
      </g>
    </g>
    <g>
      <polygon class="cls-16" points="2013.03 554.93 2043.43 563.42 2061.94 587.89 2308.05 607.82 2318.56 601.89 2012.01 543.16 2013.03 554.93"/>
      <polygon class="cls-16" points="2007.37 547.13 1987.4 570.09 1958.42 576.08 1839.15 782.16 1839.97 793.77 2018.05 551.12 2007.37 547.13"/>
      <polygon class="cls-16" points="2016.72 545.64 2005.92 517.76 2014 489.84 1889.62 291.79 1879.16 287.19 2008.36 553.08 2016.72 545.64"/>
      <path class="cls-27" d="M2010.21,534.88h0c-1.69.7-3.26,1.7-4.62,2.97l-120.74-248.5,7.34,3.23,123.92,197.32-7.93,27.43.03.72,6.09,15.73c-1.41.17-2.79.54-4.09,1.08h0ZM2027.68,559.17l18.42,5.14,18.28,24.17.31.4.5.04,246.11,19.93.65-.14,10.51-5.93-.35-2.09-291.2-55.79c-.17-.6-.37-1.19-.61-1.76-1.52-3.63-4.41-6.68-8.33-8.29-1.73-.71-3.52-1.08-5.29-1.14l-6.23-16.09,7.97-27.55.15-.49-.27-.43-124.37-198.05-.51-.43-10.46-4.6-1.47,1.52,122.48,252.07c-.82,1.06-1.51,2.25-2.05,3.55-1.62,3.92-1.48,8.13.03,11.75h0s.13.3.13.3l-11.94,13.72-28.6,5.92-.49.1-.26.44-119.27,206.08-.15.64.82,11.61,2.03.59,168.95-230.21c3.03.6,6.11.24,8.86-.9h0c2.14-.9,4.09-2.27,5.65-4.06h0ZM2047.07,562.24l-17.95-5.01c.45-.73.86-1.51,1.2-2.34,1.03-2.49,1.35-5.1,1.06-7.61l287.29,55.04-7.54,4.26-245.25-19.86-18.21-24.07-.6-.41h0ZM1991.59,570.74l11.62-13.36c1.64,2.55,4.05,4.64,7.06,5.88.19.08.39.16.58.23l-166.63,227.05-.58-8.2,118.84-205.34,28.48-5.89.62-.36Z"/>
      <path class="cls-34" d="M1960.67,575.62l-119.16,205.89.52,9.46-2.06,2.81-.82-11.61,119.27-206.08,2.26-.47h0ZM2061.94,587.89l-18.37-24.29,2.53.7,17.96,23.75-2.12-.17h0ZM1987.99,569.42l12.08-13.88c-1.78-3.56-2.08-7.84-.45-11.8.59-1.43,1.38-2.71,2.34-3.83l-122.8-252.71,2.71,1.19,121.51,250.08.58,1.2c-.46.59-.87,1.22-1.23,1.85-2.15,3.8-2.53,8.22-1.2,12.34.15.47.33.95.54,1.41l-1.31,1.51-10.62,12.21-2.14.45Z"/>
    </g>
  </g>
  <g>
    <path class="cls-16" d="M1984.45,1051.97h311.29c25.45-85.39,59.01-186.7,90.2-290.53-6.53-6.44-11.34,4.43-14.44,32.63-17.85-16.48-27-11.24-27.46,15.69-17-19.27-21.94-14.85-14.78,13.28-16.31-18.58-21.74-12.75-16.3,17.5-19.48-17.9-26.92-17-22.33,2.72-16.73-19.6-25.38-16.49-25.95,9.35-15.21-36.2-23.96-39.51-26.26-9.95-24.33-41.08-34.19-36.87-29.56,12.67-24.42-12.72-31.55-5.86-21.43,20.51-20.17-10.61-24-6.99-11.47,10.87-20.49-5.77-25.01,3.53-13.6,27.93-24.36-5.63-28.44,3.08-12.22,26.09-16.4,6.79-18.31,14.23-5.73,22.32-9.68-10.13-18.53-6.6-26.55,10.56-10.66-23.29-18.3-29.54-22.94-18.7-22.86-32.59-34.32-27.97-34.39,13.88-16.46-21.24-24.1-18.53-22.94,8.14-16.84-11.56-20.97-10.45-12.37,3.32-22.89-3.77-26.9,4.68-12.07,25.34-22.87-9.97-31.41-2.03-25.65,23.84-19.16,4.65-20.17,12.16-3.05,22.53Z"/>
    <path class="cls-19" d="M2165.44,1051.96h130.32c13.98-46.93,30.43-98.67,47.58-152.99-8.12-9.91-12.33-6.5-12.62,10.25-8.97-25.92-14.13-28.3-15.5-7.12-14.34-29.43-20.15-26.4-17.43,9.07-14.4-9.11-18.61-4.21-12.65,14.69-11.89-7.6-14.15-5.01-6.77,7.77-12.07-4.13-14.73,2.53-7.99,19.99-14.4-4.02-16.8,2.21-7.23,18.7-9.68,4.87-10.79,10.18-3.38,15.98-5.71-7.25-10.93-4.74-15.66,7.58-6.29-16.7-10.8-21.17-13.52-13.41-13.48-23.34-20.25-20.03-20.3,9.94-9.71-15.21-14.22-13.27-13.53,5.83-9.94-8.28-12.38-7.5-7.29,2.37-13.5-2.7-15.87,3.35-7.11,18.14-13.5-7.14-18.55-1.45-15.15,17.06-11.29,3.34-11.89,8.72-1.77,16.13Z"/>
  </g>
  <g>
    <g>
      <polygon class="cls-15" points="328.75 701.6 328.75 672.32 336.29 672.32 336.29 641 340.36 641 340.36 620.11 378.64 620.11 378.64 641 382.7 641 382.7 672.32 389.08 672.32 389.08 726.27 409.38 726.27 409.38 632.87 456.38 632.87 456.38 570.23 483.06 570.23 483.06 553.98 499.88 553.98 499.88 533.1 543.39 533.1 543.39 718.73 584.57 718.73 584.57 658.4 592.11 658.4 592.11 624.75 667.52 624.75 667.52 658.4 672.74 658.4 672.74 738.45 690.73 738.45 690.73 687.98 726.69 687.98 726.69 617.93 732.49 617.93 732.49 601.55 785.28 601.55 785.28 617.93 789.93 617.93 789.93 707.7 807.33 707.7 807.33 670.58 811.38 670.58 811.38 658.4 848.51 658.4 848.51 670.58 853.15 670.58 853.15 738.45 871.14 738.45 871.14 692.04 902.46 692.04 902.46 643.31 960.47 617.93 960.47 741.06 986 741.06 986 707.7 1023.7 707.7 1023.7 658.4 1031.82 658.4 1031.82 643.31 1076.49 643.31 1076.49 658.4 1080.55 658.4 1080.55 743.09 1103.17 743.09 1103.17 724.53 1116.1 724.53 1116.1 608.23 1122.98 608.23 1122.98 592.26 1129.16 592.26 1129.16 578.34 1145.98 578.34 1145.98 494.26 1148.88 494.26 1148.88 578.34 1165.7 578.34 1165.7 592.26 1171.87 592.26 1171.87 608.23 1178.75 608.23 1178.75 724.53 1191.93 724.53 1191.93 892.24 285.47 892.24 285.47 719.85 328.75 701.6"/>
      <g>
        <rect class="cls-29" x="1161.76" y="615.56" width="8.86" height="9.15"/>
        <rect class="cls-29" x="1161.76" y="633.57" width="8.86" height="9.15"/>
        <rect class="cls-29" x="1161.76" y="651.58" width="8.86" height="9.15"/>
        <rect class="cls-29" x="1161.76" y="669.58" width="8.86" height="9.15"/>
        <rect class="cls-29" x="1161.76" y="687.59" width="8.86" height="9.15"/>
        <rect class="cls-29" x="1142.58" y="615.56" width="8.85" height="9.15"/>
        <rect class="cls-29" x="1123.39" y="615.56" width="8.86" height="9.15"/>
        <rect class="cls-29" x="1142.58" y="633.57" width="8.85" height="9.15"/>
        <rect class="cls-29" x="1123.39" y="633.57" width="8.86" height="9.15"/>
        <rect class="cls-29" x="1142.58" y="651.58" width="8.85" height="9.15"/>
        <rect class="cls-29" x="1123.39" y="651.58" width="8.86" height="9.15"/>
        <rect class="cls-29" x="1142.58" y="669.58" width="8.85" height="9.15"/>
        <rect class="cls-29" x="1123.39" y="669.58" width="8.86" height="9.15"/>
        <rect class="cls-29" x="1142.58" y="687.59" width="8.85" height="9.15"/>
        <rect class="cls-29" x="1123.39" y="687.59" width="8.86" height="9.15"/>
      </g>
      <path class="cls-1" d="M1071.55,662.91h-39.23v4.68h39.23v-4.68h0ZM1071.55,759.21h-39.23v4.68h39.23v-4.68h0ZM1071.55,748.51h-39.23v4.68h39.23v-4.68h0ZM1071.55,737.81h-39.23v4.68h39.23v-4.68h0ZM1071.55,727.11h-39.23v4.68h39.23v-4.68h0ZM1071.55,716.41h-39.23v4.68h39.23v-4.68h0ZM1071.55,705.71h-39.23v4.68h39.23v-4.68h0ZM1071.55,695.01h-39.23v4.68h39.23v-4.68h0ZM1071.55,684.31h-39.23v4.68h39.23v-4.68h0ZM1071.55,673.61h-39.23v4.68h39.23v-4.68Z"/>
      <path class="cls-1" d="M951.05,644.99h-39.24v4.68h39.24v-4.68h0ZM951.05,741.29h-39.24v4.68h39.24v-4.68h0ZM951.05,730.59h-39.24v4.68h39.24v-4.68h0ZM951.05,719.89h-39.24v4.68h39.24v-4.68h0ZM951.05,709.19h-39.24v4.68h39.24v-4.68h0ZM951.05,698.48h-39.24v4.68h39.24v-4.68h0ZM951.05,687.79h-39.24v4.68h39.24v-4.68h0ZM951.05,677.09h-39.24v4.68h39.24v-4.68h0ZM951.05,666.39h-39.24v4.68h39.24v-4.68h0ZM951.05,655.69h-39.24v4.68h39.24v-4.68Z"/>
      <path class="cls-1" d="M846.5,673.72h-4.57v85.69h4.57v-85.69h0ZM817.58,673.72h-4.58v85.69h4.58v-85.69h0ZM832.05,673.72h-4.57v85.69h4.57v-85.69Z"/>
      <g>
        <rect class="cls-29" x="771.45" y="622.54" width="8.86" height="9.15"/>
        <rect class="cls-29" x="771.45" y="640.55" width="8.86" height="9.15"/>
        <rect class="cls-29" x="771.45" y="658.56" width="8.86" height="9.15"/>
        <rect class="cls-29" x="771.45" y="676.57" width="8.86" height="9.15"/>
        <rect class="cls-29" x="771.45" y="694.57" width="8.86" height="9.15"/>
        <rect class="cls-29" x="752.26" y="622.54" width="8.86" height="9.15"/>
        <rect class="cls-29" x="733.07" y="622.54" width="8.86" height="9.15"/>
        <rect class="cls-29" x="752.26" y="640.55" width="8.86" height="9.15"/>
        <rect class="cls-29" x="733.07" y="640.55" width="8.86" height="9.15"/>
        <rect class="cls-29" x="752.26" y="658.56" width="8.86" height="9.15"/>
        <rect class="cls-29" x="733.07" y="658.56" width="8.86" height="9.15"/>
        <rect class="cls-29" x="752.26" y="676.57" width="8.86" height="9.15"/>
        <rect class="cls-29" x="733.07" y="676.57" width="8.86" height="9.15"/>
        <rect class="cls-29" x="752.26" y="694.57" width="8.86" height="9.15"/>
        <rect class="cls-29" x="733.07" y="694.57" width="8.86" height="9.15"/>
      </g>
      <path class="cls-1" d="M658.04,631.31h-5.9v22.04h5.9v-22.04h0ZM608.29,630.64h-5.89v22.04h5.89v-22.04h0ZM624.87,630.87h-5.9v22.03h5.9v-22.03h0ZM641.45,631.09h-5.9v22.03h5.9v-22.03Z"/>
      <path class="cls-1" d="M664.29,665.1h-7.57v28.29h7.57v-28.29h0ZM600.44,664.25h-7.57v28.28h7.57v-28.28h0ZM621.73,664.53h-7.57v28.28h7.57v-28.28h0ZM643.01,664.82h-7.57v28.29h7.57v-28.29Z"/>
      <path class="cls-1" d="M664.29,703.13h-7.57v28.29h7.57v-28.29h0ZM600.44,702.27h-7.57v28.28h7.57v-28.28h0ZM621.73,702.56h-7.57v28.28h7.57v-28.28h0ZM643.01,702.84h-7.57v28.29h7.57v-28.29Z"/>
      <path class="cls-1" d="M664.29,746.04h-7.57v28.29h7.57v-28.29h0ZM600.44,745.18h-7.57v28.28h7.57v-28.28h0ZM621.73,745.47h-7.57v28.28h7.57v-28.28h0ZM643.01,745.75h-7.57v28.28h7.57v-28.28Z"/>
      <path class="cls-1" d="M541.12,537.72h-39.23v4.68h39.23v-4.68h0ZM541.12,634.02h-39.23v4.68h39.23v-4.68h0ZM541.12,623.32h-39.23v4.68h39.23v-4.68h0ZM541.12,612.62h-39.23v4.68h39.23v-4.68h0ZM541.12,601.92h-39.23v4.68h39.23v-4.68h0ZM541.12,591.22h-39.23v4.68h39.23v-4.68h0ZM541.12,580.52h-39.23v4.68h39.23v-4.68h0ZM541.12,569.82h-39.23v4.68h39.23v-4.68h0ZM541.12,559.12h-39.23v4.68h39.23v-4.68h0ZM541.12,548.42h-39.23v4.68h39.23v-4.68Z"/>
      <path class="cls-1" d="M541.12,644.55h-39.23v4.68h39.23v-4.68h0ZM541.12,740.85h-39.23v4.68h39.23v-4.68h0ZM541.12,730.15h-39.23v4.68h39.23v-4.68h0ZM541.12,719.45h-39.23v4.68h39.23v-4.68h0ZM541.12,708.75h-39.23v4.68h39.23v-4.68h0ZM541.12,698.05h-39.23v4.68h39.23v-4.68h0ZM541.12,687.35h-39.23v4.68h39.23v-4.68h0ZM541.12,676.65h-39.23v4.68h39.23v-4.68h0ZM541.12,665.95h-39.23v4.68h39.23v-4.68h0ZM541.12,655.25h-39.23v4.68h39.23v-4.68Z"/>
      <g>
        <rect class="cls-29" x="370.01" y="647.24" width="6.23" height="6.43"/>
        <rect class="cls-29" x="370.01" y="659.9" width="6.23" height="6.43"/>
        <rect class="cls-29" x="370.01" y="672.57" width="6.23" height="6.43"/>
        <rect class="cls-29" x="370.01" y="685.23" width="6.23" height="6.43"/>
        <rect class="cls-29" x="370.01" y="697.89" width="6.23" height="6.43"/>
        <rect class="cls-29" x="356.52" y="647.24" width="6.22" height="6.43"/>
        <rect class="cls-29" x="343.03" y="647.24" width="6.23" height="6.43"/>
        <rect class="cls-29" x="356.52" y="659.9" width="6.22" height="6.43"/>
        <rect class="cls-29" x="343.03" y="659.9" width="6.23" height="6.43"/>
        <rect class="cls-29" x="356.52" y="672.57" width="6.22" height="6.43"/>
        <rect class="cls-29" x="343.03" y="672.57" width="6.23" height="6.43"/>
        <rect class="cls-29" x="356.52" y="685.23" width="6.22" height="6.43"/>
        <rect class="cls-29" x="343.03" y="685.23" width="6.23" height="6.43"/>
        <rect class="cls-29" x="356.52" y="697.89" width="6.22" height="6.43"/>
        <rect class="cls-29" x="343.03" y="697.89" width="6.23" height="6.43"/>
      </g>
      <g>
        <rect class="cls-29" x="453.61" y="644.16" width="8.86" height="9.15"/>
        <rect class="cls-29" x="453.61" y="662.17" width="8.86" height="9.15"/>
        <rect class="cls-29" x="453.61" y="680.18" width="8.86" height="9.15"/>
        <rect class="cls-29" x="453.61" y="698.19" width="8.86" height="9.15"/>
        <rect class="cls-29" x="453.61" y="716.2" width="8.86" height="9.15"/>
        <rect class="cls-29" x="434.43" y="644.16" width="8.85" height="9.15"/>
        <rect class="cls-29" x="415.24" y="644.16" width="8.86" height="9.15"/>
        <rect class="cls-29" x="434.43" y="662.17" width="8.85" height="9.15"/>
        <rect class="cls-29" x="415.24" y="662.17" width="8.86" height="9.15"/>
        <rect class="cls-29" x="434.43" y="680.18" width="8.85" height="9.15"/>
        <rect class="cls-29" x="415.24" y="680.18" width="8.86" height="9.15"/>
        <rect class="cls-29" x="434.43" y="698.19" width="8.85" height="9.15"/>
        <rect class="cls-29" x="415.24" y="698.19" width="8.86" height="9.15"/>
        <rect class="cls-29" x="434.43" y="716.2" width="8.85" height="9.15"/>
        <rect class="cls-29" x="415.24" y="716.2" width="8.86" height="9.15"/>
      </g>
    </g>
    <g>
      <polygon class="cls-7" points="1148.65 834.37 1148.65 805.09 1141.1 805.09 1141.1 773.76 1137.04 773.76 1137.04 752.88 1098.76 752.88 1098.76 773.76 1094.7 773.76 1094.7 805.09 1088.32 805.09 1088.32 859.03 1068.02 859.03 1068.02 765.64 1021.02 765.64 1021.02 702.99 994.34 702.99 994.34 686.74 977.52 686.74 977.52 665.86 934.01 665.86 934.01 851.5 892.83 851.5 892.83 791.16 885.29 791.16 885.29 757.52 809.88 757.52 809.88 791.16 804.66 791.16 804.66 871.22 786.67 871.22 786.67 820.75 750.71 820.75 750.71 750.7 744.9 750.7 744.9 734.31 692.12 734.31 692.12 750.7 687.47 750.7 687.47 840.47 670.07 840.47 670.07 803.35 666.02 803.35 666.02 791.16 628.88 791.16 628.88 803.35 624.25 803.35 624.25 871.22 606.26 871.22 606.26 824.81 574.93 824.81 574.93 776.08 516.93 750.7 516.93 873.83 491.4 873.83 491.4 840.47 453.7 840.47 453.7 791.16 445.58 791.16 445.58 776.08 400.91 776.08 400.91 791.16 396.85 791.16 396.85 875.86 374.23 875.86 374.23 857.3 361.29 857.3 361.29 741 354.42 741 354.42 725.03 348.24 725.03 348.24 711.11 331.42 711.11 331.42 627.03 328.52 627.03 328.52 711.11 311.7 711.11 311.7 725.03 305.53 725.03 305.53 741 298.65 741 298.65 857.3 285.47 857.3 285.47 1025.01 1191.93 1025.01 1191.93 852.62 1148.65 834.37"/>
      <g>
        <rect class="cls-29" x="306.78" y="748.33" width="8.86" height="9.15"/>
        <rect class="cls-29" x="306.78" y="766.34" width="8.86" height="9.15"/>
        <rect class="cls-29" x="306.78" y="784.35" width="8.86" height="9.15"/>
        <rect class="cls-29" x="306.78" y="802.35" width="8.86" height="9.15"/>
        <rect class="cls-29" x="306.78" y="820.36" width="8.86" height="9.15"/>
        <rect class="cls-29" x="325.97" y="748.33" width="8.85" height="9.15"/>
        <rect class="cls-29" x="345.16" y="748.33" width="8.86" height="9.15"/>
        <rect class="cls-29" x="325.97" y="766.34" width="8.85" height="9.15"/>
        <rect class="cls-29" x="345.16" y="766.34" width="8.86" height="9.15"/>
        <rect class="cls-29" x="325.97" y="784.35" width="8.85" height="9.15"/>
        <rect class="cls-29" x="345.16" y="784.35" width="8.86" height="9.15"/>
        <rect class="cls-29" x="325.97" y="802.35" width="8.85" height="9.15"/>
        <rect class="cls-29" x="345.16" y="802.35" width="8.86" height="9.15"/>
        <rect class="cls-29" x="325.97" y="820.36" width="8.85" height="9.15"/>
        <rect class="cls-29" x="345.16" y="820.36" width="8.86" height="9.15"/>
      </g>
      <path class="cls-1" d="M405.85,795.68h39.24v4.68h-39.24v-4.68h0ZM405.85,891.97h39.24v4.68h-39.24v-4.68h0ZM405.85,881.27h39.24v4.68h-39.24v-4.68h0ZM405.85,870.58h39.24v4.68h-39.24v-4.68h0ZM405.85,859.88h39.24v4.68h-39.24v-4.68h0ZM405.85,849.18h39.24v4.68h-39.24v-4.68h0ZM405.85,838.48h39.24v4.68h-39.24v-4.68h0ZM405.85,827.78h39.24v4.68h-39.24v-4.68h0ZM405.85,817.08h39.24v4.68h-39.24v-4.68h0ZM405.85,806.38h39.24v4.68h-39.24v-4.68Z"/>
      <path class="cls-1" d="M526.35,777.76h39.24v4.68h-39.24v-4.68h0ZM526.35,874.05h39.24v4.68h-39.24v-4.68h0ZM526.35,863.35h39.24v4.68h-39.24v-4.68h0ZM526.35,852.65h39.24v4.68h-39.24v-4.68h0ZM526.35,841.95h39.24v4.68h-39.24v-4.68h0ZM526.35,831.25h39.24v4.68h-39.24v-4.68h0ZM526.35,820.55h39.24v4.68h-39.24v-4.68h0ZM526.35,809.86h39.24v4.68h-39.24v-4.68h0ZM526.35,799.16h39.24v4.68h-39.24v-4.68h0ZM526.35,788.45h39.24v4.68h-39.24v-4.68Z"/>
      <path class="cls-1" d="M630.9,806.48h4.57v85.69h-4.57v-85.69h0ZM659.81,806.48h4.58v85.69h-4.58v-85.69h0ZM645.35,806.48h4.57v85.69h-4.57v-85.69Z"/>
      <g>
        <rect class="cls-29" x="697.1" y="755.31" width="8.86" height="9.15"/>
        <rect class="cls-29" x="697.1" y="773.32" width="8.86" height="9.15"/>
        <rect class="cls-29" x="697.1" y="791.33" width="8.86" height="9.15"/>
        <rect class="cls-29" x="697.1" y="809.34" width="8.86" height="9.15"/>
        <rect class="cls-29" x="697.1" y="827.34" width="8.86" height="9.15"/>
        <rect class="cls-29" x="716.28" y="755.31" width="8.86" height="9.15"/>
        <rect class="cls-29" x="735.47" y="755.31" width="8.86" height="9.15"/>
        <rect class="cls-29" x="716.28" y="773.32" width="8.86" height="9.15"/>
        <rect class="cls-29" x="735.47" y="773.32" width="8.86" height="9.15"/>
        <rect class="cls-29" x="716.28" y="791.33" width="8.86" height="9.15"/>
        <rect class="cls-29" x="735.47" y="791.33" width="8.86" height="9.15"/>
        <rect class="cls-29" x="716.28" y="809.34" width="8.86" height="9.15"/>
        <rect class="cls-29" x="735.47" y="809.34" width="8.86" height="9.15"/>
        <rect class="cls-29" x="716.28" y="827.34" width="8.86" height="9.15"/>
        <rect class="cls-29" x="735.47" y="827.34" width="8.86" height="9.15"/>
      </g>
      <path class="cls-1" d="M819.36,764.08h5.9v22.03h-5.9v-22.03h0ZM869.11,763.41h5.9v22.04h-5.9v-22.04h0ZM852.53,763.63h5.9v22.04h-5.9v-22.04h0ZM835.94,763.86h5.9v22.03h-5.9v-22.03Z"/>
      <path class="cls-1" d="M813.11,797.87h7.57v28.29h-7.57v-28.29h0ZM876.96,797.02h7.57v28.28h-7.57v-28.28h0ZM855.67,797.3h7.57v28.28h-7.57v-28.28h0ZM834.39,797.59h7.57v28.28h-7.57v-28.28Z"/>
      <path class="cls-1" d="M813.11,835.9h7.57v28.28h-7.57v-28.28h0ZM876.96,835.04h7.57v28.28h-7.57v-28.28h0ZM855.67,835.33h7.57v28.28h-7.57v-28.28h0ZM834.39,835.61h7.57v28.28h-7.57v-28.28Z"/>
      <path class="cls-1" d="M813.11,878.8h7.57v28.28h-7.57v-28.28h0ZM876.96,877.95h7.57v28.28h-7.57v-28.28h0ZM855.67,878.24h7.57v28.28h-7.57v-28.28h0ZM834.39,878.52h7.57v28.28h-7.57v-28.28Z"/>
      <path class="cls-1" d="M936.28,670.49h39.23v4.68h-39.23v-4.68h0ZM936.28,766.78h39.23v4.68h-39.23v-4.68h0ZM936.28,756.08h39.23v4.68h-39.23v-4.68h0ZM936.28,745.39h39.23v4.68h-39.23v-4.68h0ZM936.28,734.69h39.23v4.68h-39.23v-4.68h0ZM936.28,723.99h39.23v4.68h-39.23v-4.68h0ZM936.28,713.29h39.23v4.68h-39.23v-4.68h0ZM936.28,702.59h39.23v4.68h-39.23v-4.68h0ZM936.28,691.89h39.23v4.68h-39.23v-4.68h0ZM936.28,681.19h39.23v4.68h-39.23v-4.68Z"/>
      <path class="cls-1" d="M936.28,777.32h39.23v4.68h-39.23v-4.68h0ZM936.28,873.61h39.23v4.68h-39.23v-4.68h0ZM936.28,862.92h39.23v4.68h-39.23v-4.68h0ZM936.28,852.22h39.23v4.68h-39.23v-4.68h0ZM936.28,841.52h39.23v4.68h-39.23v-4.68h0ZM936.28,830.82h39.23v4.68h-39.23v-4.68h0ZM936.28,820.12h39.23v4.68h-39.23v-4.68h0ZM936.28,809.42h39.23v4.68h-39.23v-4.68h0ZM936.28,798.72h39.23v4.68h-39.23v-4.68h0ZM936.28,788.02h39.23v4.68h-39.23v-4.68Z"/>
      <g>
        <rect class="cls-29" x="1101.16" y="780.01" width="6.23" height="6.43"/>
        <rect class="cls-29" x="1101.16" y="792.67" width="6.23" height="6.43"/>
        <rect class="cls-29" x="1101.16" y="805.33" width="6.23" height="6.43"/>
        <rect class="cls-29" x="1101.16" y="818" width="6.23" height="6.43"/>
        <rect class="cls-29" x="1101.16" y="830.66" width="6.23" height="6.43"/>
        <rect class="cls-29" x="1114.64" y="780.01" width="6.22" height="6.43"/>
        <rect class="cls-29" x="1128.14" y="780.01" width="6.23" height="6.43"/>
        <rect class="cls-29" x="1114.64" y="792.67" width="6.22" height="6.43"/>
        <rect class="cls-29" x="1128.14" y="792.67" width="6.23" height="6.43"/>
        <rect class="cls-29" x="1114.64" y="805.33" width="6.22" height="6.43"/>
        <rect class="cls-29" x="1128.14" y="805.33" width="6.23" height="6.43"/>
        <rect class="cls-29" x="1114.64" y="818" width="6.22" height="6.43"/>
        <rect class="cls-29" x="1128.14" y="818" width="6.23" height="6.43"/>
        <rect class="cls-29" x="1114.64" y="830.66" width="6.22" height="6.43"/>
        <rect class="cls-29" x="1128.14" y="830.66" width="6.23" height="6.43"/>
      </g>
      <g>
        <rect class="cls-29" x="1014.93" y="776.93" width="8.86" height="9.15"/>
        <rect class="cls-29" x="1014.93" y="794.94" width="8.86" height="9.15"/>
        <rect class="cls-29" x="1014.93" y="812.95" width="8.86" height="9.15"/>
        <rect class="cls-29" x="1014.93" y="830.96" width="8.86" height="9.15"/>
        <rect class="cls-29" x="1014.93" y="848.97" width="8.86" height="9.15"/>
        <rect class="cls-29" x="1034.12" y="776.93" width="8.85" height="9.15"/>
        <rect class="cls-29" x="1053.31" y="776.93" width="8.86" height="9.15"/>
        <rect class="cls-29" x="1034.12" y="794.94" width="8.85" height="9.15"/>
        <rect class="cls-29" x="1053.31" y="794.94" width="8.86" height="9.15"/>
        <rect class="cls-29" x="1034.12" y="812.95" width="8.85" height="9.15"/>
        <rect class="cls-29" x="1053.31" y="812.95" width="8.86" height="9.15"/>
        <rect class="cls-29" x="1034.12" y="830.96" width="8.85" height="9.15"/>
        <rect class="cls-29" x="1053.31" y="830.96" width="8.86" height="9.15"/>
        <rect class="cls-29" x="1034.12" y="848.97" width="8.85" height="9.15"/>
        <rect class="cls-29" x="1053.31" y="848.97" width="8.86" height="9.15"/>
      </g>
    </g>
  </g>
  <g>
    <path class="cls-31" d="M1201,586.43h217.94c2.73,72.12,5.67,132.06,12.72,196.2.23,2.12.56,8.47.95,18.41,4.96,125.27,21.77,622.03,26.57,651.7h-.4c0,22.61-70.08,40.94-156.52,40.94s-156.51-18.33-156.51-40.94h-.4c4.73-29.23,39.06-636.07,42.07-662.53,7.66-67.04,10.73-128.82,13.58-203.78Z"/>
    <path class="cls-11" d="M1315.11,669.98c-43.33,0-83.67-3.06-117.39-8.33-.44,8.37-.9,16.63-1.4,24.83,34.01,5.4,74.85,8.55,118.79,8.55,39.64,0,76.75-2.56,108.6-7.03-.51-8.21-.97-16.48-1.41-24.86-31.53,4.34-68.14,6.83-107.19,6.83Z"/>
    <path class="cls-11" d="M1198.97,635.9c33.47,5.14,73.34,8.13,116.14,8.13,38.53,0,74.69-2.42,105.93-6.66-.37-8.17-.73-16.47-1.08-24.91-31,4.14-66.76,6.51-104.85,6.51-42.35,0-81.83-2.92-115.07-7.96-.34,8.44-.7,16.73-1.07,24.9Z"/>
    <path class="cls-11" d="M1311.09,586.33c-60.25,0-109.1-1.63-109.1-3.64,0-.09.09-.17.27-.26h-2.06v12.76c12.62,1.44,52.42,2.52,100.78,2.65h10.12c50.2.01,92.89-1,108.63-2.42v-12.99c0,.54-2.27,1.05-6.43,1.53-15.5,1.38-55.4,2.36-102.19,2.36Z"/>
    <path class="cls-11" d="M1309.98,577.53c60.63,0,109.77,2.2,109.77,4.91s-49.14,4.91-109.77,4.91-109.77-2.2-109.77-4.91,49.14-4.91,109.77-4.91Z"/>
  </g>
  <g>
    <polygon class="cls-33" points="2059.65 1534.49 1331.63 1467.57 1331.91 1492.93 2059.6 1560.51 2059.65 1534.49"/>
    <polygon class="cls-15" points="2034.76 983.4 1352.2 1018.7 1357.61 1469.23 2034.61 1532.19 2034.76 983.4"/>
    <polygon class="cls-33" points="2060.8 956.05 1325.92 994.05 1326.21 1018.79 2060.74 982.49 2060.8 956.05"/>
    <polygon class="cls-16" points="2034.76 983.77 2131.61 1022.68 2130.89 1493.61 2034.61 1532.19 2034.76 983.77"/>
    <path class="cls-27" d="M2162.61,997.46l-101.82-41.41-.06,26.44c33.8,13.63,67.81,27.13,101.87,40.98v-26.01Z"/>
    <path class="cls-27" d="M2161.98,1519.09l-102.38,41.41.05-26.02c33.8-13.63,68.74-28.69,102.8-42.55l-.47,27.15Z"/>
    <path class="cls-33" d="M2162.72,1492.02l-103.01,42.56-25.09-2.39c33.8-13.63,61.94-24.71,95.99-38.57l32.12-1.6Z"/>
    <path class="cls-33" d="M2034.76,983.77l105.4,43,22.45-3.29c-33.84-13.67-67.85-27.16-101.87-40.98l-25.98,1.28Z"/>
    <polygon class="cls-16" points="1558.06 1032.51 1410.84 1038.46 1410.84 1413.53 1557.11 1426.79 1558.06 1032.51"/>
    <path class="cls-1" d="M1544.77,1377.63h-53.04l-.27,22.91,53.85,2.44-.54-25.35h0ZM1477.18,1048.88h-53.04v19.12h53.04v-19.12h0ZM1544.77,1048.88h-53.04v19.12h53.04v-19.12h0ZM1477.18,1081.76h-53.04v19.12h53.04v-19.12h0ZM1544.77,1081.76h-53.04v19.12h53.04v-19.12h0ZM1477.18,1114.63h-53.04v19.12h53.04v-19.12h0ZM1544.77,1114.63h-53.04v19.12h53.04v-19.12h0ZM1477.18,1147.51h-53.04v19.12h53.04v-19.12h0ZM1544.77,1147.51h-53.04v19.12h53.04v-19.12h0ZM1477.18,1180.39h-53.04v19.12h53.04v-19.12h0ZM1544.77,1180.39h-53.04v19.12h53.04v-19.12h0ZM1477.18,1213.26h-53.04v19.11h53.04v-19.11h0ZM1544.77,1213.26h-53.04v19.11h53.04v-19.11h0ZM1477.18,1246.13h-53.04v19.12h53.04v-19.12h0ZM1544.77,1246.13h-53.04v19.12h53.04v-19.12h0ZM1477.18,1279.01h-53.04v19.12h53.04v-19.12h0ZM1544.77,1279.01h-53.04v19.12h53.04v-19.12h0ZM1477.18,1311.89h-53.04v19.11h53.04v-19.11h0ZM1544.77,1311.89h-53.04v19.11h53.04v-19.11h0ZM1477.18,1344.76h-53.04v19.12h53.04v-19.12h0ZM1544.77,1344.76h-53.04v19.12h53.04v-19.12h0ZM1477.18,1377.63h-53.04v19.12l53.04,3.52v-22.64Z"/>
    <polygon class="cls-16" points="1922.11 1029 1763.28 1034.55 1763.28 1445.63 1921.08 1459.93 1922.11 1029"/>
    <path class="cls-1" d="M1907.76,1406.9h-57.22l-.29,24.72,58.1,2.63-.59-27.34h0ZM1834.84,1049.51l-57.23,2.7v20.63h57.23v-23.33h0ZM1907.22,1045.17l-56.68,3.79v23.88h57.22l-.54-27.67h0ZM1834.84,1087.68h-57.23v20.63h57.23v-20.63h0ZM1907.76,1087.68h-57.22v20.63h57.22v-20.63h0ZM1834.84,1123.15h-57.23v20.63h57.23v-20.63h0ZM1907.76,1123.15h-57.22v20.63h57.22v-20.63h0ZM1834.84,1158.62h-57.23v20.63h57.23v-20.63h0ZM1907.76,1158.62h-57.22v20.63h57.22v-20.63h0ZM1834.84,1194.09h-57.23v20.63h57.23v-20.63h0ZM1907.76,1194.09h-57.22v20.63h57.22v-20.63h0ZM1834.84,1229.56h-57.23v20.63h57.23v-20.63h0ZM1907.76,1229.56h-57.22v20.63h57.22v-20.63h0ZM1834.84,1265.03h-57.23v20.63h57.23v-20.63h0ZM1907.76,1265.03h-57.22v20.63h57.22v-20.63h0ZM1834.84,1300.5h-57.23v20.63h57.23v-20.63h0ZM1907.76,1300.5h-57.22v20.63h57.22v-20.63h0ZM1834.84,1335.97h-57.23v20.63h57.23v-20.63h0ZM1907.76,1335.97h-57.22v20.63h57.22v-20.63h0ZM1834.84,1371.44h-57.23v20.63h57.23v-20.63h0ZM1907.76,1371.44h-57.22v20.63h57.22v-20.63h0ZM1834.84,1406.9h-57.23v20.63l57.23,3.8v-24.42Z"/>
  </g>
  <g>
    <circle class="cls-25" cx="1624.75" cy="855.8" r="129.79"/>
    <path class="cls-11" d="M1500.9,851.4c0-71.68,58.11-129.79,129.79-129.79s129.79,58.11,129.79,129.79-58.11,129.79-129.79,129.79-129.79-58.11-129.79-129.79Z"/>
    <path class="cls-23" d="M1518.78,854c0-60.84,49.32-110.16,110.16-110.16s110.15,49.32,110.15,110.16-49.32,110.16-110.15,110.16-110.16-49.32-110.16-110.16Z"/>
    <path class="cls-1" d="M1520.54,851.4c0-60.83,49.32-110.15,110.16-110.15s110.15,49.32,110.15,110.15-49.32,110.16-110.15,110.16-110.16-49.32-110.16-110.16Z"/>
    <path class="cls-24" d="M1544.2,883.27c-13.9-51.88,16.89-105.19,68.76-119.09,30.32-8.13,61.13-.98,84.28,16.72-23.76-23.81-59.24-34.62-94.07-25.29-51.88,13.9-82.66,67.22-68.76,119.09,5.78,21.55,18.36,39.46,34.81,52.04-11.63-11.65-20.46-26.42-25.03-43.47Z"/>
    <polygon class="cls-11" points="1635.47 760.3 1585.22 858.52 1628.67 857 1615.07 946.91 1670.21 829.81 1623.76 833.21 1635.47 760.3"/>
    <path class="cls-31" d="M1688.33,757.39c10.97,17.13,17.32,37.49,17.32,59.34,0,60.84-49.31,110.15-110.15,110.15-21.13,0-40.87-5.95-57.63-16.27,19.58,30.56,53.83,50.82,92.82,50.82,60.84,0,110.15-49.32,110.15-110.16,0-39.7-21.02-74.5-52.52-93.89Z"/>
  </g>
  <g>
    <path class="cls-8" d="M485.97,720.37c2.37-8.19.09-16.77-9.3-22.62-10.18-6.34-24.43-5.82-34.78.41-2.34-4.53-6.83-8.36-11.08-10.93-2.56-1.55-5.16-2.2-7.57-2.06.5-7.99-1.93-16.09-7.67-21.63-4.3-4.16-9.65-6.45-15.12-7.04-1.17-5.62-4.08-11.07-8.07-14.21-3.82-3.01-9.9-5.09-14.91-3.89-7.43-9.02-22.58-10.41-33.56-9-15.04,1.93-23.08,11.12-25.79,23.75-5.19-3.1-12.02-2.71-17.14,1.73-4.67,4.03-6.85,10.78-5.64,16.75-6.48-2.05-13.75-1.31-20.34,3.08-4.14,2.77-7.13,6.69-9.07,11.13-10.05-6.85-24.41-8.96-34.78-5.31-16.91,5.95-23.34,20.38-22.16,35.92-3.09-.8-6.27-.5-9.18,1.96-2.39,2.02-3.43,5.35-3.28,8.65-18.99,1.85-33.58,22.91-30.11,41.39,1.84,9.76,8.16,17.92,17.54,21.42,1.17.43,2.46.81,3.81,1.12.65,6.28,2.71,12.3,6.64,17.39,8.38,10.86,22.69,7.03,32.15-.14,1.16,1.95,3.01,3.39,5.92,3.8,4.92.7,9.87-2.44,12.73-6.62,2.12,7.46,5.84,14.29,12.89,18.46,6.87,4.07,15.23,3.7,22.54.75,3.18,9.58,13.05,18.37,21.7,20.11,14.38,2.9,26.74-6.29,34.7-17.86,9.34,9.12,21.76,14.67,35.53,14.76,10.86.07,23.98-5.2,29.63-14.44,6.08,1.11,13.96-1.5,17.69-4.98,3.03-2.83,5.39-8.74,5.98-14.65,7.28,1.02,15,.17,20.83-1.92,12.34-4.45,23.04-15.84,25.26-28.91,10.53-2.37,20.9-11.21,24.39-20.11,4.39-11.21.91-30.83-10.37-36.23Z"/>
    <path class="cls-16" d="M434.01,787.68c-17.64,23.99-45.86-2.11-45.86-2.11,0,0-7.05,9.17-30.69,19.4-23.64,10.23-39.86-25.56-39.86-25.56,0,0-12.56,24.18-34.39,17.51-21.83-6.67-12.88-39.57-12.88-39.57,0,0-12.26,15.7-30.98,0-18.71-15.7,16.16-40.22,16.16-40.22,0,0-22.58.7-21.59-22.58.36-8.46,3.87-13.19,8.19-15.78-3.88.02-7.64.59-10.97,1.76-16.91,5.95-23.34,20.38-22.16,35.92-3.09-.8-6.27-.5-9.18,1.96-2.39,2.02-3.43,5.35-3.28,8.65-18.99,1.85-33.58,22.91-30.11,41.39,1.84,9.75,8.16,17.92,17.54,21.42,1.17.43,2.46.81,3.81,1.12.65,6.28,2.71,12.3,6.64,17.39,8.38,10.86,22.69,7.03,32.15-.14,1.16,1.95,3.01,3.39,5.92,3.8,4.92.7,9.87-2.44,12.73-6.62,2.12,7.46,5.84,14.29,12.89,18.46,6.87,4.07,15.23,3.7,22.54.75,3.18,9.58,13.05,18.37,21.7,20.11,14.38,2.9,26.74-6.29,34.7-17.86,9.34,9.12,21.76,14.67,35.53,14.76,10.86.07,23.98-5.2,29.63-14.44,6.08,1.11,13.96-1.5,17.69-4.98,3.03-2.83,5.39-8.74,5.98-14.65,7.28,1.02,15,.17,20.83-1.92,7.93-2.86,15.17-8.6,19.93-15.8-19.06,10.81-32.62-2.15-32.62-2.15Z"/>
    <path class="cls-12" d="M336.09,889.83c4.14-9.76,8.25-19.55,12.08-29.45,10.19-26.36,14.13-55.69,29.04-79.92.27-.24.53-.48.81-.72,3.3-2.78,6.67-5.42,9.93-8.16,11.95-4.05,24.75-1.79,37.29-4.75,10.7-2.53,20.2-8.25,25.59-18.06.17-.31-.23-.63-.49-.38-11.18,10.87-25.65,14.41-40.92,14.44-4.05,0-8.3-.11-12.45.19.67-.75,1.33-1.5,1.96-2.3,6.29-7.86,10.54-17.12,13.97-26.52.55-1.52-1.8-2.1-2.39-.66-4.53,11.06-11.95,20.43-21.17,28.03-7.88,6.5-17.13,11.16-23.87,19.02-3.15,3.67-5.39,7.83-7.14,12.26-1.57-9.21-4.54-18.06-7.2-27.12-.24-.83-.45-1.65-.66-2.47-.95-4.77-1.68-9.65-1.93-14.8v-.02c0-1.31.05-2.61.13-3.91,3.09-12.63,5.2-26.66,16.74-33.74,8.89-5.45,17.99-7.75,22.37-18.03.41-.95-.86-1.77-1.43-.83-7.43,12.21-24.76,10.78-33.25,22.01-2.46,3.26-4.46,7.23-6.03,11.5-.46-3.74-1.09-7.46-2.04-11.13-3.89-14.96-12.83-28.89-10.48-44.88.1-.74-.99-1.09-1.15-.32-2.04,9.86-.9,19.21,1.61,28.89,3.57,13.8,6.15,26.79,6.68,41.11.42,11.47.84,22.98,3.87,34.11,1.27,4.65,2.83,9.15,4.13,13.62.21,1.07.41,2.14.6,3.2.72,3.98,1.11,7.93,1.27,11.87-1.61,11.86-6.02,23.42-11.27,34.36-.46.6-.96,1.1-1.53,1.38-.23.11-.43.16-.65.25-8.65-5.57-15.05-16.14-22.27-23.19-7.33-7.17-14.68-14.43-19.38-23.11-3.39-9.29-3.12-19.56.15-28.96,5.82-16.76,28.14-27.45,27.11-46.22-.04-.83-1.34-1.12-1.52-.21-2.84,14.31-16.13,19.7-24.12,30.58-.97,1.32-1.86,2.7-2.69,4.11.53-9.06-.66-17.69-5.42-25.9-.36-.61-1.25-.08-.95.55,10.19,21.01-6.9,43.66-2.97,65.09-6.67-4.84-13.45-9.53-19.3-15.38-5.22-5.23-9.55-10.97-13.38-17.04-3.27-6.39-6.13-12.79-8.47-19.97-1.95-5.97-4.55-12.13-10.31-15.23-.27-.15-.66.17-.45.45,5.53,7.49,6.32,16.03,9.34,24.58,1.3,3.69,3.01,7.36,5.12,10.76,2.63,5.12,5.83,9.82,9.49,14.21-6.88-2.64-14.19-3.16-21.24-5.16-10.85-3.09-20-9.39-26.36-18.74-.46-.68-1.53-.08-1.11.65,8,13.9,19.27,22.1,34.85,25.83,15.49,3.71,27.02,12.47,39,21.3,18.96,17.89,37.35,35.83,38.68,63.55,1.63,34.03-19.1,61.98-35.43,89.87-15.15,25.86-19.75,53.63-14,82.87h64.18c-29.65-43.56-18.54-96.06-.54-143.39Z"/>
    <path class="cls-27" d="M346.17,757.35c-1.77-9.88-.71-18.7-.71-24.34s-3.17-21.17-7.58-30.69c-4.41-9.53-4.49-33.2-4.49-33.2-2.04,9.86-.9,19.21,1.61,28.89,3.57,13.8,6.15,26.79,6.68,41.11.42,11.47.84,22.98,3.87,34.11,1.27,4.65,2.83,9.15,4.13,13.62.21,1.07.41,2.14.6,3.2.72,3.98,1.11,7.93,1.27,11.87-1.61,11.86-6.02,23.42-11.27,34.36l-4.51,11.46s-24.61-31.48-30.95-37.04c-6.35-5.56-10.32-14.29-12.44-20.11-2.11-5.82-.53-23.82,2.38-33.07,2.91-9.26,21.16-24.34,24.87-29.63,1.63-2.34,2.91-7.21,3.82-11.98-.4-.37-1.13-.35-1.27.31-2.84,14.31-16.13,19.7-24.12,30.58-.97,1.32-1.86,2.7-2.69,4.11.53-9.06-.66-17.69-5.42-25.9-.36-.61-1.25-.08-.95.55,10.19,21.01-6.9,43.66-2.97,65.09l2.11,5.46s-15.04-9.49-18.52-14.52c-3.48-5.03-12.97-14.55-16.41-20.11-3.44-5.56-10.85-23.02-13.23-30.43-1.01-3.14-3.44-5.79-5.91-7.82-.03.08-.03.16.03.24,5.53,7.49,6.32,16.03,9.34,24.58,1.3,3.69,3.01,7.36,5.12,10.76,2.63,5.12,5.83,9.82,9.49,14.21l3.62,4.06s-10.85-2.64-20.64-5.55c-9.79-2.91-13.49-4.77-24.91-15.58-3.21-3.04-5.26-5.28-6.62-6.98-.23.17-.35.47-.16.8,8,13.9,19.27,22.1,34.85,25.83,15.49,3.71,27.02,12.47,39,21.3,18.96,17.89,37.35,35.83,38.68,63.55,1.63,34.03-19.1,61.98-35.43,89.87-15.15,25.86-19.75,53.63-14,82.87h32.26c-5.66-21.47-12.41-54.66-5.1-70.2,11.29-23.99,25.4-75.14,33.87-91.37,8.46-16.23,22.93-59.62,23.99-66.68,1.06-7.06-9.53-37.75-11.29-47.62Z"/>
    <path class="cls-32" d="M254.11,794.62c.04-.69.19-2.51.8-3.62,0,0-.03,1.88.23,2.84.27.96-1.04.79-1.04.79Z"/>
  </g>
  <g>
    <path class="cls-16" d="M493.79,1107.92H121.67c14.53-75.87,25.05-151.36,19.53-221.16,4.22-17.32,10.23-15.67,18.05,4.94,5.93-5.17,9.96-4.15,12.07,3.07,9.11-24.65,15.42-21.03,18.93,10.89,13.99-12.93,21.17-8.82,21.53,12.3,13.34-15.12,17.21-11.65,11.6,10.41,12.79-14.58,17.05-10,12.77,13.72,15.29-14.04,21.12-13.33,17.52,2.13,13.12-15.37,19.9-12.93,20.35,7.34,11.92-28.4,18.79-31,20.59-7.81,19.08-32.22,26.82-28.91,23.19,9.94,19.14-9.97,24.74-4.6,16.8,16.09,15.81-8.32,18.82-5.48,9,8.52,16.06-4.52,19.61,2.77,10.65,21.9,19.12-4.42,22.32,2.41,9.59,20.46,12.87,5.33,14.36,11.17,4.5,17.51,7.59-7.94,14.53-5.18,20.82,8.28,8.36-18.27,14.36-23.16,17.99-14.67,17.93-25.55,26.92-21.93,26.98,10.89,12.91-16.66,18.9-14.53,17.99,6.39,13.22-9.07,16.45-8.19,9.71,2.61,17.95-2.96,21.1,3.66,9.46,19.88,17.94-7.82,24.64-1.6,20.11,18.7,15.02,3.65,15.82,9.54,2.39,17.67Z"/>
    <path class="cls-19" d="M351.86,1107.91H121.67c9.22-48.1,16.79-96.04,19.72-142.5l.33,1.83c2.35-29.27,6.63-33.99,12.84-14.14,3.49-3.7,5.86-2.97,7.11,2.2,5.37-17.65,9.09-15.05,11.17,7.79,8.25-9.24,12.49-6.3,12.7,8.82,7.86-10.83,10.14-8.35,6.85,7.45,7.53-10.43,10.05-7.16,7.53,9.83,9.01-10.05,12.46-9.55,10.33,1.52,7.74-11,11.75-9.26,12.01,5.25,7.03-20.33,11.08-22.19,12.15-5.58,11.25-23.08,15.81-20.71,13.68,7.11,11.29-7.14,14.6-3.3,9.91,11.52,9.33-5.96,11.1-3.93,5.31,6.1,9.47-3.24,11.57,1.99,6.28,15.68,11.28-3.16,13.17,1.73,5.66,14.66,7.6,3.81,8.47,7.99,2.66,12.54,4.48-5.69,8.57-3.72,12.28,5.93,4.93-13.09,8.47-16.59,10.61-10.51,10.58-18.3,15.88-15.71,15.91,7.8,7.61-11.93,11.15-10.41,10.61,4.57,7.79-6.5,9.7-5.88,5.72,1.86,10.59-2.12,12.45,2.63,5.58,14.23,10.58-5.6,14.54-1.14,11.87,13.38,8.86,2.62,9.33,6.84,1.41,12.65Z"/>
  </g>
  <g>
    <g>
      <path class="cls-22" d="M666.16,1832.72c-27.8-10.28-30.04-25.32-45.02-32.66-15.09-7.39-16.82-20.56-2.07-34.87,10.9,9.14,24.42,20.37,31.58,14.42,4.78-3.97,20.99-3.71,24.21,2.08,14.12,34.46,33.76,23.54,37.64,39.21.45,20.88-33.58,16.53-46.34,11.82Z"/>
      <path class="cls-22" d="M907.06,1798.45c-48.96-.82-85.56-1.44-102.47-7.05-18.24-6.04-14.47-17.72-3.99-36.4,46.15,22.28,33.85-4.58,55.43-1.17,15.17,12.81,37.64,21.4,67.38,25.76,12.58,9.74,7.47,18.42-16.35,18.85Z"/>
      <path class="cls-4" d="M882.61,595.25c-24.44-7.44-46.38-11.96-65.83-13.55-3.52,56.36-31.53,55.97-84.04-1.17-50.57,4.45-60.47,5.14-88.52,14.69-60.7,60.86-66.28,131.1-98.01,211.36,35.13,1.65,50.9,6.09,74.78,15.02,5.13-19.23,9.43-34.71,12.88-46.44-.97,105.84-1.33,178.35-1.12,217.56,116.19,48.31,211.89,31.78,250.98-5.88.55-94.08,1.29-168.56,2.24-223.43,13.89,17.19,26.78,30.52,38.66,39.98,28.48-34.28,47.78-48.08,63.94-68.29-35.76-61.63-87-118.97-105.96-139.85Z"/>
      <path class="cls-26" d="M1116.77,698.34c-61.04,26.62-103.77,48.6-128.21,65.98l-10.85-16.86c-10.09,10.61-21.62,21.01-35.68,36.13,13,14.27,26.95,26.02,43.2,35.94,42.41-4.75,89.29-38.47,140.63-101.12,15.97-3.35,27.72-9.41,35.26-18.22.4-8.08-3.48-16.17-11.64-24.28,21.29-14.56,29.76-24.98,25.43-31.26-33.35,21.65-52.74,39.55-58.14,53.69Z"/>
      <path class="cls-10" d="M883.73,986.85c-2.3,9.15,7.21,62.89,8.78,90.92,15.45,100.08,2.21,230.33-6.1,397.84-14.88,59.02-36.85,137.69-35.42,248.39-25.92,8.32-35.31,9.18-58.7,2.94-16.36-115.54-5.2-208.07,9.58-250.8-9.46-66.05-23.59-139.98-44.16-246.61-23.17,116.21-54.18,202.44-67.6,258.71-2.65,62.74-14.75,147.41-21.07,254.01-19.25,6.09-31.23,7.85-51.19,5.29-25.92-97.99-21.56-204.62-10.58-319.87,11.68-138.56-7.58-295.02,11.7-349.26,9.86-32.14,11.13-60.67,13.78-85.68,96.94,33.86,180.59,31.9,250.98-5.87Z"/>
      <path class="cls-10" d="M650.62,885.2c-6.22.98-12.11,1.83-17.65,2.61-.29,46.69-.36,81.66-.23,104.91,5.49,2.58,13.21,5.55,19.23,6.3-.03-2.99-.92-9.92-.95-12.87-.38-35.7-.52-69.35-.39-100.94h0ZM934.7,791.67c-17.11-14.95-33.39-39.24-48.85-72.85,1.74,11.7,2.44,27.37,2.08,46.99,13.15,16.03,25.39,28.55,36.71,37.57,3.48-4.19,6.83-8.09,10.07-11.72h0ZM655.46,700.64c-7.53,25.46-14.74,50.29-21.6,74.52-.19,20.46-.35,39.66-.5,57.63,4.99-.49,10.81-.82,17.74-.99.72-49.68,2.17-93.4,4.36-131.15Z"/>
      <path class="cls-26" d="M803.86,1729.65c1.16,10.08,1.32,19.12.5,27.12,38.61,17.61,32.05-2.72,47.48-3.23-3.88-7.16-6.39-16.31-7.54-27.44-16.83,5.06-26.41,6.19-40.44,3.55h0ZM623.94,1748.21c.01,7.33-.67,13.78-2.04,19.35,10.31,8.56,22.19,17.5,28.74,12.05,3.14-2.61,11.22-3.39,17.3-1.98-2.51-8.86-4.48-19.94-5.93-33.27-13.54,3.83-23.93,5.11-38.08,3.84Z"/>
      <path class="cls-20" d="M892.51,1077.77c-68.17,66.71-159.35,66.93-273.54.63-19.29,54.25-.02,210.7-11.7,349.26-10.98,115.25-15.33,221.89,10.58,319.87,2.12.27,4.14.49,6.09.66,14.14,1.27,24.54-.01,38.08-3.84,2.25-.63,4.57-1.33,7.02-2.11,6.32-106.6,18.41-191.28,21.07-254.01,13.42-56.27,44.42-142.51,67.6-258.71,20.57,106.63,34.7,180.56,44.16,246.61-14.78,42.73-25.94,135.26-9.58,250.8,4.26,1.13,8.06,2.03,11.57,2.7,14.03,2.65,23.61,1.51,40.44-3.55,2.1-.63,4.33-1.33,6.68-2.09-1.43-110.71,20.54-189.37,35.42-248.39,8.32-167.5,21.55-297.76,6.1-397.84Z"/>
      <path class="cls-5" d="M784.91,1647.55c24.88,7.1,47.66,9.24,68.33,6.42.44-5.73.95-11.36,1.5-16.88-22.67,3.09-46.12,1.5-70.35-4.78.12,5.01.29,10.1.51,15.25h0ZM603.14,1667.42c27.05,3.4,51.01,1.52,71.88-5.63.52-5.97,1.05-11.84,1.58-17.63-23.41,8.02-48.4,10.76-74.97,8.23.45,5.03.95,10.05,1.51,15.03h0ZM671.53,1704.93c.43-5.9.89-11.74,1.35-17.5-20.89,6-42.99,7.93-66.3,5.78.79,5.08,1.64,10.14,2.57,15.19,23.07,2.72,43.86,1.57,62.39-3.46h0ZM852.02,1672.29c-21.08,3.66-43,3.26-65.75-1.2.37,5.06.79,10.17,1.27,15.35,23.25,5.16,44.5,6.08,63.75,2.76.18-5.73.42-11.36.72-16.91Z"/>
      <path class="cls-10" d="M798.71,627.13c2.48.2,4.39,2.45,4.27,5.04-.13,2.59-2.24,4.53-4.73,4.34-2.47-.19-4.39-2.45-4.26-5.04.12-2.59,2.24-4.53,4.72-4.34Z"/>
      <path class="cls-14" d="M810.58,726.01h134.62c6.17,0,10.42,5.04,9.45,11.22l-30.22,190.72c-.98,6.17-6.82,11.22-12.99,11.22h-134.63c-6.17,0-10.41-5.05-9.44-11.22l30.21-190.72c.98-6.17,6.83-11.22,13-11.22Z"/>
      <path class="cls-10" d="M766.55,666.16c-23.56-25.45-39.92-50.35-49.07-74.7,5.14-9.72,13.24-19.49,18.92-22.23,27.41,28.6,44.85,44.6,61.57,54.33.09.06.19.12.28.17.22-.75.44-1.52.66-2.29,4.41-15.11,10.82-32.61,13.59-50.04,7.88,5.58,10.71,14.08,15.01,22.6,7.01,18.88,9.45,41.32,7.32,67.3-5.18-7.24-10.36-13.66-15.53-19.27-7.02-7.6-14.04-13.69-21.05-18.29-6.18,5.27-12.12,11.84-17.82,19.72-4.8,6.64-9.42,14.22-13.88,22.72Z"/>
      <path class="cls-26" d="M736.68,569.39c4.25-5.28,7.84-12.33,10.75-21.13-1.54-4.69-3.13-10.64-4.76-17.81-30-21.33-33.83-36.71-11.5-46.16,4.4,2.6,9.77,10.42,16.1,23.46,5.28-.1.31-13.87,3.14-19-5.82-21.9-.49-28.52-2.1-42.14,15.49-21.97,53.03-27.86,99.35-20.85,3.93,42.69,17.12,143.42-34.51,140.17l-.37,5.62c-2.78,17.43-9.18,34.94-13.59,50.04l-.95,2.13c-16.71-9.73-34.15-25.72-61.56-54.33Z"/>
      <path class="cls-22" d="M845.28,429.22c-46.33-7.01-81.47-4.58-96.96,17.39,1.61,13.62-2.17,21.94,3.64,43.85-2.83,5.13.59,17.19-4.69,17.29-6.33-13.04-11.69-20.86-16.1-23.46-22.34,9.45-18.51,24.83,11.5,46.16,1.64,7.17,3.23,13.12,4.76,17.81-52.7-30.96-75.77-105.96-27.75-141.15,9.74-62.17,99.11-5.11,145.12-34.2,17.5,25.3-5.47,56.06-19.53,56.31Z"/>
      <path class="cls-21" d="M778.12,561.59c8.48,2.35,25.23,4.64,35.03,4.34l-.37,5.63c-.54,3.37-1.22,6.76-1.98,10.13-.1-.03-.2-.07-.3-.1-15.16-5.29-25.96-11.96-32.38-19.99Z"/>
      <path class="cls-22" d="M714.69,428.51c4.39-6.29,4.72-11.76,1-16.42-10.48-2.2-18.99.31-25.54,7.5,4.96-1.25,13.15,1.73,24.54,8.91Z"/>
      <path class="cls-22" d="M725.53,409.06c-4.32,4.84-8.29,5.9-11.9,3.2-2.23-9.12-.92-17.13,3.93-24.04-.61,4.64,2.05,11.59,7.97,20.84Z"/>
      <path class="cls-22" d="M812.66,425.91c.37-13.45,5.62-21.51,15.72-24.18,17.06,7.83,26.45,20.24,28.18,37.23-5.7-6.94-20.33-11.29-43.9-13.05Z"/>
      <path class="cls-22" d="M781.69,378.53c2.06,5.73-.63,13.21,7.48,14.95,5.35,24.66,24.82-8.61,24.43-17.82-3.45,2.6-14.08,3.56-31.91,2.87Z"/>
      <path class="cls-10" d="M800.84,659.81c2.48.2,4.39,2.45,4.26,5.04-.12,2.59-2.24,4.53-4.72,4.34-2.48-.19-4.39-2.45-4.26-5.04.12-2.59,2.24-4.53,4.72-4.34Z"/>
      <path class="cls-10" d="M802.96,692.5c2.48.2,4.39,2.45,4.27,5.04-.13,2.59-2.24,4.53-4.72,4.33-2.48-.19-4.39-2.45-4.27-5.04.13-2.59,2.25-4.53,4.72-4.33Z"/>
      <path class="cls-26" d="M557.99,807.3c-5.54,23.54-7.84,45.08-3.31,73.64,13.81,21.04,69.52,9.28,212.95-15.88,5.14,4.93,15.78,9.83,31.93,7.64,15.01-3.93,15.72-8.05,32.55-24.69,4.09-12.97,3.24-22.86-2.52-29.7-18.95,11.7-28.92,17.93-50.26,18.67,5.68-15.34,6.54-25.24,2.56-29.71-7.28,6.13-12.02,15.34-14.21,27.64-113.09-5.15-142.91-4.47-157.96,3.82,1.63-7.45,3.08-13.99,4.34-19.65-17.6-6.29-31.94-9.95-56.07-11.77Z"/>
    </g>
    <g>
      <g>
        <path class="cls-17" d="M793.95,464.33c-2.82-.38-5.34,2.27-5.63,5.9-.29,3.64,1.75,6.89,4.57,7.26,2.82.37,5.33-2.27,5.62-5.91.29-3.64-1.75-6.89-4.57-7.26Z"/>
        <path class="cls-30" d="M792.9,477.5c-2.82-.38-4.87-3.63-4.58-7.27.29-3.65,2.81-6.29,5.63-5.92,1.18.16,2.22.82,3.02,1.81l-.38-.11c-.91-.12-1.73.74-1.83,1.92-.09,1.18.57,2.23,1.48,2.35.91.12,1.73-.73,1.82-1.91v-.25c.39,1.05.56,2.24.46,3.47-.29,3.64-2.81,6.29-5.63,5.92Z"/>
      </g>
      <path class="cls-30" d="M802.86,459.95c.15.13.27.23.39.37-.17-.6-.88-1.41-1.16-1.9.28.24.46.32.74.71.25.33.41.69.59,1.1.03-.46-.13-.76-.17-1.17.22.31.37.92.4,1.29-.01-1.34-.07-1.25-.56-2.51.55.38.96,1.59,1.04,2.28.14-.28.15-.67.16-1.05.23.46.23.68.21,1.14l.36-.49c-.06.3-.15.38-.2.63.66-.5,1.83-2.2,1.71-3.09-.11.38-.39,1.07-.59,1.29.08-.63.31-1.33.21-2.06-.19.46-.14,1.09-.27,1.6-.13.51-.34,1.09-.59,1.41.2-1.06.52-1.95.22-3.13l-.04.29c-.02.56.01,1.17-.12,1.71-.14-.99-.04-1.92-.87-2.67.19.42.37.66.51,1.16-.44-.46-.61-1.31-1.35-1.4.32.38.63.63.96,1.17.26.42.66,1.14.48,1.67-.47-1.83-1.5-2.79-2.74-3.13.34.18,1.39.95,1.48,1.39v.08c-.09.49-.07-.44-.03.11.24.18.52.58.67.89.1.19.2.42.26.65.03.1.08.3.09.4.01.11,0,.1,0,.19l-.02.12c-.35-1.22-.76-1.89-1.58-2.58-.51-.42-1.69-1.14-2.37-1.24.02.01.03.02.05.03l.57.28c1.38.72,2.7,1.57,3.12,3.31-.08-.07-.01.02-.12-.15-.03-.05-.03-.05-.07-.1-.3-.51-.6-1.05-1.01-1.48-.43-.47-.98-.91-1.45-1.18-.62-.35-2.61-1.12-3.62-1,.3-.02,2.18.55,2.5.68.7.3,1.6.7,2.11,1.4-.3-.08-.6-.29-.87-.41-1.74-.79-4.76-1.97-6.58-1.87,1.12.24,2.72.74,3.56,1.23l-.69-.15c.19.09.35.2.56.3.2.09.35.16.55.28.94.55,2.37,1.49,2.89,2.52-.24-.24-.57-.49-.86-.73-.31-.25-.58-.46-.91-.7-.6-.41-1.26-.89-1.92-1.21-1.39-.67-2.72-1.24-4.28-1.58.2.09.43.17.61.38-1.28-.06-3.36-1.09-6.56-1.24.68.25,1.82.34,2.59.57l.71.27c-.42,0-1.79-.35-2.34-.46-2.73-.52-4.43-.89-7.4-.87-1.9.01-3.67.01-5.58.81-1.24.52-2.39,1.15-3.41,1.98-.37.3-.55.52-.83.79.77-.38,2.46-2.06,4.14-2.4-2.59,1.52-4.65,2.85-6.46,4.85.49-.31,1.19-.97,1.73-1.38.62-.47,1.23-.89,1.88-1.32,1.15-.76,3.01-1.8,4.47-2.17-.34.27-1.25.72-1.69.98-3.2,1.82-6.28,3.89-9.09,6.25-.33.28-.99.98-1.24,1.14.3-.11,1.48-1.05,1.88-1.32,2.07-1.42,4.03-2.72,6.57-3.45-.67.51-5.25,2.35-6.7,3.68l3.94-1.99c1.2-.55,3.22-1.42,4.54-1.6-1.51.3-7.35,2.95-8.53,3.94.62-.21,1.52-.72,2.19-1.01.79-.35,1.56-.66,2.37-.95,1.64-.6,3.39-1.1,5.11-1.34,2.34-.32,4.56-.28,6.84-.05.65.06,1.53.23,2.14.23-.37-.23-1.49-.31-1.9-.37-1.31-.19-2.63-.3-3.96-.31-.53,0-1.62.12-2.05.05,1.59-.4,2.83-.24,4.19-.41-.13-.01-.07,0-.17-.03-.13-.05-.07-.02-.16-.08.85-.08,2.46.23,3.24.41.92.23,2.77.95,2.87.97-.23-.17-.44-.27-.61-.46l2.24.54-2.76-1.02c.54.07,1.29.36,1.82.49.66.17,2.02.5,2.63.74.71.28,2.05.46,2.79.48-.26-.16-1.16-.42-1.55-.56l-1.49-.53c-.28-.11-.52-.17-.76-.29-.7-.36-1.42-.63-2.14-.92-1.31-.52-5.08-1.65-6.46-1.26,1.78-.57,5.44.57,6.72,1.08l3,1.24c.27.09.47.21.74.32.72.29,1.48.62,2.24.84l-.05-.16s0-.03-.01-.03c0,0,0-.02,0-.03,0-.01,0-.02,0-.03.25.17,1.04.47,1.4.5-.72-.68-2.53-1.24-3.16-2.12.62.21,1.36.75,1.92,1.12.21.13.41.22.6.34-.48-.87-1.47-1.59-2.23-2.16l-.88-.53c.74.05,1.61.75,2.16,1.24.55.49,1.03,1.08,1.5,1.66.05.07.05.06.1.12.1.11.05.05.15.09l-.67-1.17c.12.23,1.05,1.17,1.09,1.49-.1-.6-.5-1.09-.75-1.57l.43.31c-.68-1.18-2.34-2.01-3.36-2.74,1.02.11,2.86,1.55,3.53,2.49.32.45.54,1.01.84,1.38l-.32-.92s.03.03.05.03l.49.58c-.38-1.16-.95-1.77-1.63-2.5.3.06.53.28.77.51.22.2.44.45.62.72.38.55.72,1.16.97,1.84.05-.28-.13-.79-.24-1.12.2.06.03-.02.22.1.31.21.52.67.71.98l-.12-.7.47.69c-.1-.63-.3-.99-.45-1.53.38.27.55.76.74,1.25.06-.22-.03-.57-.1-.84l.53.56c.14.18.27.42.4.59-.15-.62-.43-.93-.68-1.4.58.37.78.92,1.2,1.53-.11-.71-.63-1.76-1.02-2.18.63.1,1.02,1.77,1.32,2.12v-.72s.02.01.1.12l.38.72-.05-.92c.24.26.28.56.46.92-.02-.05.01-.77-.12-1.19.13.06.02-.02.18.13.27.27.38.66.63.93l-.28-.73c.1.04.04.01.15.08l.33.28Z"/>
      <g>
        <path class="cls-17" d="M839.13,462.84c2.61.38,4.51,3.62,4.24,7.26-.27,3.64-2.6,6.28-5.22,5.9-2.61-.37-4.51-3.62-4.24-7.26.27-3.64,2.6-6.28,5.21-5.91Z"/>
        <path class="cls-30" d="M838.16,476.02c2.61.38,4.95-2.27,5.22-5.91.27-3.64-1.63-6.9-4.25-7.27-1.09-.16-2.14.22-3.01.97h.37c.84.11,1.46,1.17,1.37,2.35-.08,1.18-.84,2.04-1.69,1.92-.84-.12-1.46-1.18-1.37-2.36l.03-.24c-.5.92-.82,2.05-.92,3.28-.27,3.64,1.63,6.9,4.24,7.27Z"/>
      </g>
      <path class="cls-30" d="M828.13,460.76c-.1.13-.19.23-.29.37.13-.6.66-1.41.86-1.9-.2.24-.33.32-.55.7-.18.33-.3.69-.43,1.1-.02-.47.11-.76.15-1.17-.16.31-.28.92-.31,1.29.04-1.34.07-1.25.45-2.51-.4.38-.72,1.59-.79,2.27-.1-.28-.09-.66-.09-1.05-.17.46-.17.67-.17,1.13l-.25-.49c.04.3.1.38.13.63-.47-.5-1.27-2.2-1.16-3.09.07.37.26,1.07.4,1.29-.05-.63-.2-1.33-.11-2.06.13.46.08,1.09.17,1.6.09.51.22,1.09.4,1.41-.13-1.06-.34-1.95-.1-3.13l.02.28c0,.56-.03,1.17.05,1.71.12-.99.07-1.92.67-2.67-.14.42-.28.66-.39,1.15.32-.46.46-1.3.99-1.4-.24.38-.46.64-.71,1.17-.2.42-.49,1.14-.38,1.66.37-1.82,1.13-2.78,2.02-3.12-.24.18-1.01.95-1.09,1.39v.08c.05.49.06-.44.02.11-.17.18-.38.58-.5.88-.08.19-.15.42-.2.65-.02.1-.06.29-.07.4-.01.11,0,.09,0,.18l.02.12c.27-1.21.58-1.89,1.18-2.57.36-.42,1.23-1.14,1.71-1.23-.01.01-.02.02-.03.03l-.41.27c-.99.71-1.96,1.56-2.29,3.29.06-.06,0,.02.09-.14.03-.05.03-.05.05-.1.23-.51.45-1.05.75-1.47.33-.47.72-.91,1.06-1.17.45-.35,1.89-1.11,2.61-.99-.22-.02-1.57.55-1.8.68-.51.29-1.16.69-1.54,1.38.22-.08.44-.29.63-.41,1.25-.78,3.45-1.95,4.74-1.84-.8.23-1.96.73-2.57,1.21l.49-.15c-.13.09-.25.21-.4.3-.15.09-.26.16-.4.27-.68.55-1.72,1.48-2.12,2.51.18-.24.42-.49.63-.73.23-.26.42-.47.66-.7.44-.41.92-.89,1.4-1.2,1-.67,1.97-1.23,3.1-1.57-.15.09-.31.17-.45.38.92-.06,2.42-1.08,4.71-1.22-.49.24-1.31.33-1.87.56l-.51.27c.3,0,1.29-.35,1.69-.45,1.96-.52,3.18-.87,5.31-.84,1.35.02,2.63.02,3.98.83.87.52,1.69,1.15,2.4,1.98.26.3.38.52.58.8-.54-.38-1.73-2.07-2.92-2.42,1.82,1.52,3.28,2.87,4.53,4.88-.34-.31-.82-.97-1.21-1.39-.43-.48-.86-.9-1.32-1.33-.81-.77-2.12-1.81-3.16-2.18.23.27.88.73,1.19.98,2.26,1.83,4.42,3.91,6.39,6.28.23.28.7.98.87,1.14-.22-.12-1.05-1.06-1.32-1.33-1.46-1.43-2.84-2.74-4.64-3.46.47.52,3.71,2.37,4.72,3.7l-2.78-2c-.84-.55-2.28-1.43-3.21-1.61,1.07.3,5.2,2.97,6.03,3.96-.44-.21-1.08-.72-1.55-1.02-.56-.35-1.11-.66-1.68-.96-1.16-.6-2.4-1.12-3.63-1.36-1.67-.33-3.26-.29-4.89-.07-.47.06-1.1.22-1.54.22.27-.23,1.07-.3,1.37-.36.94-.19,1.89-.28,2.84-.3.38,0,1.16.12,1.47.06-1.13-.41-2.02-.26-2.99-.43.09-.01.04,0,.12-.03.09-.05.05-.02.12-.08-.6-.08-1.77.22-2.33.41-.66.22-2,.93-2.07.96.16-.17.32-.27.45-.45l-1.62.52,1.99-1.01c-.4.06-.93.35-1.32.49-.48.17-1.45.49-1.89.73-.52.28-1.48.45-2.01.47.18-.16.84-.42,1.12-.55l1.07-.52c.2-.11.38-.17.55-.29.5-.36,1.03-.62,1.55-.91.95-.52,3.67-1.64,4.65-1.24-1.27-.58-3.91.55-4.83,1.06l-2.17,1.23c-.2.09-.34.21-.54.32-.52.29-1.07.62-1.62.83l.04-.16s0-.03,0-.03c0,0,0-.02,0-.03,0-.01,0-.02,0-.03-.19.16-.75.47-1.01.5.52-.68,1.83-1.23,2.29-2.11-.45.2-.98.74-1.39,1.11-.15.13-.3.22-.44.34.37-.86,1.08-1.58,1.64-2.14l.64-.53c-.52.05-1.16.75-1.56,1.24-.41.49-.76,1.07-1.11,1.64-.04.07-.03.07-.08.12-.07.11-.03.06-.1.09l.51-1.16c-.09.23-.77,1.16-.81,1.48.09-.6.38-1.08.56-1.57l-.31.31c.51-1.17,1.71-2,2.46-2.73-.73.11-2.08,1.54-2.58,2.48-.24.45-.4,1.01-.63,1.38l.25-.92s-.03.02-.03.03l-.36.58c.29-1.16.71-1.77,1.22-2.49-.22.06-.39.27-.56.5-.16.2-.33.45-.46.72-.28.55-.54,1.16-.73,1.84-.03-.28.11-.79.2-1.12-.15.06-.02-.02-.16.1-.23.21-.38.67-.52.97l.1-.69-.35.69c.08-.64.23-.99.35-1.53-.28.27-.41.75-.55,1.24-.05-.22.03-.57.09-.84l-.4.56c-.1.19-.2.41-.3.59.12-.61.33-.92.51-1.4-.42.37-.57.92-.88,1.53.1-.7.48-1.75.77-2.17-.46.1-.76,1.76-.99,2.11l.02-.72s-.02.02-.08.12l-.29.71.05-.92c-.18.26-.22.56-.35.92.02-.04.01-.77.12-1.19-.1.07-.02-.02-.13.13-.2.26-.28.66-.47.92l.22-.73c-.07.05-.03.02-.1.08l-.24.29Z"/>
      <path class="cls-3" d="M819.75,475.25c-.45-.44-.45-1.16-.01-1.61.44-.45,1.16-.45,1.61-.02,1.11,1.09,3.43,6.94,5.57,13.16l.03.11c2.53,7.33,4.87,15.32,4.73,16.65-.68,6.57-5.61,6.77-8.95,6.91-.91.03-1.67.07-1.85.19-.53.34-1.24.2-1.59-.32-.35-.52-.21-1.24.32-1.59.71-.47,1.77-.52,3.03-.57,2.54-.1,6.29-.25,6.76-4.85.1-1.04-2.17-8.59-4.62-15.67l-.04-.11c-2.05-5.95-4.17-11.46-5-12.27Z"/>
      <path class="cls-1" d="M790.37,522.18c24.01,16.44,38,17.51,41.96,3.21-17.44,1.74-31.43.67-41.96-3.21Z"/>
    </g>
  </g>
  <g>
    <path class="cls-1" d="M1694.95,193.94c-22.85-12.61-24.87-48.95-.81-61.16,2.95-1.5,7.36-3.82,10.64-4.3,1.67-.24,12.57,1.16,12.45,3.61.41-8.33,6.59-15.44,13.78-19.67,18.06-10.62,43.87-5.03,55.92,12.11,12.05,17.14,8.57,43.32-7.54,56.72,6.41-2.87,14.62-.97,19.11,4.42,4.5,5.39,4.9,13.81.93,19.6,8.47-4.89,20.58-1.89,25.78,6.39,12.85-2.77,26.51-1.64,38.72,3.21,2.73,1.08,5.49,2.43,7.25,4.78,1.76,2.35,2.16,5.94.17,8.1-1.27,1.38-3.21,1.91-5.06,2.27-7.05,1.41-14.29,1.45-21.48,1.48-33.6.16-67.2.32-100.8.48-3.39.02-6.89.01-9.97-1.38-3.09-1.39-5.64-4.57-5.17-7.93-4.92,3.89-10.7,6.9-16.93,7.58-6.23.67-12.92-1.23-17.15-5.85-19.59,5.31-40.27,6.53-60.34,3.59-3.31-.49-6.7-1.13-9.48-2.96-2.79-1.84-4.85-5.17-4.24-8.45.62-3.29,3.76-5.65,7.04-6.36,3.27-.71,6.67-.11,9.96.55-1.29-6.39,2.57-13.01,8.03-16.59,5.46-3.57,12.19-4.6,18.71-4.81,10.32-.32,20.7,1.23,30.48,4.56Z"/>
    <path class="cls-6" d="M1627.76,210.22c-3.28.72-6.42,3.07-7.04,6.36-.61,3.28,1.45,6.61,4.24,8.45,2.79,1.84,6.18,2.47,9.48,2.96,20.07,2.95,40.76,1.72,60.34-3.59,4.23,4.63,10.92,6.53,17.15,5.85,6.23-.68,12.02-3.68,16.93-7.58-.47,3.35,2.08,6.54,5.17,7.93,3.08,1.39,6.59,1.4,9.97,1.38,33.6-.16,67.2-.32,100.8-.48,7.19-.03,14.43-.08,21.48-1.48,1.85-.36,3.78-.89,5.06-2.27,1.99-2.16,1.59-5.75-.17-8.1-.65-.87-1.44-1.61-2.31-2.24-10.22,2.98-21.49,1.9-32.11,0-3.63-.65-7.51-1.52-10-4.24-.43-.47-.79-1.03-1.07-1.62-.16.03-.32.06-.48.09-5.2-8.29-17.31-11.29-25.78-6.39,3.97-5.79,3.57-14.2-.93-19.6-4.5-5.39-12.7-7.29-19.11-4.42,12.04-10.01,17.02-27.16,13.74-42.34-1.55,10.45-5.19,20.64-11.67,28.92-7.67,9.78-19.66,16.57-32.08,16.23-1.68-12.79-9.96-24.53-21.44-30.4,6.22,4.75,6.39,15.11,1.06,20.84-5.33,5.74-14.64,6.74-21.68,3.33-7.05-3.42-11.84-10.55-13.69-18.17-2.74-11.32,1.13-20.83,7.04-29.97-2.32.92-4.71,2.16-6.53,3.09-24.06,12.2-22.03,48.55.81,61.16-2.45-.84-4.93-1.56-7.45-2.16-8.27,2.18-17.45,3.55-25.63,5.78-8.65,2.35-17.34,7.69-19.95,16.26-1.32-1.1-2.73-2.12-4.2-3.04,0,0,0,0,0,0-3.29-.66-6.69-1.27-9.96-.55Z"/>
    <path class="cls-13" d="M1694.95,193.94c-22.85-12.61-24.87-48.95-.81-61.16,1.82-.92,4.21-2.16,6.53-3.09-12.03,5.85-18.26,19.74-18.48,33.11-.11,6.93,1.09,14.29,5.62,19.53,4.08,4.72,10.4,7.1,16.63,7.47,6.23.38,12.43-1.05,18.41-2.85-7.06,6.66-19.39,11.67-27.9,6.98Z"/>
    <path class="cls-13" d="M1799.43,205.27c3.97-5.79,3.57-14.2-.93-19.6-4.5-5.39-12.7-7.29-19.11-4.42,4.73-.87,9.25,3.59,10.19,8.3.95,4.72-1,9.6-3.84,13.48-1.19,1.62-2.56,3.15-4.31,4.13-2.64,1.49-5.84,1.56-8.88,1.41-6.95-.34-14.81-2.28-18.01-8.46-.61,4.76,2.65,9.38,6.86,11.7,4.2,2.32,9.16,2.78,13.97,2.88,4.54.09,9.14-.1,13.48-1.43,4.34-1.32,8.02-4.26,10.58-8.01Z"/>
    <path class="cls-13" d="M1871.18,219.66c1.76,2.35,2.16,5.94.17,8.1-1.27,1.38-3.21,1.91-5.06,2.27-7.05,1.41-14.29,1.45-21.48,1.48-33.6.16-67.2.32-100.8.48-3.39.02-6.89.01-9.97-1.38-3.09-1.39-5.64-4.57-5.17-7.93,5.33,3.75,11.68,4.48,18.19,4.72,7.87.28,15.85.28,23.52-1.56,7.67-1.84,15.08-5.67,19.93-11.88.6,5.15-1.95,10.54-6.32,13.32,22.74-2.79,45.77-.17,68.68-.61,6.67-.13,15.85-.83,18.32-7.02Z"/>
    <path class="cls-13" d="M1728.87,222.69c-4.92,3.89-10.7,6.9-16.93,7.58-6.23.67-12.92-1.23-17.15-5.85-19.59,5.31-40.27,6.53-60.34,3.59-3.31-.49-6.7-1.13-9.48-2.96-2.79-1.84-4.85-5.17-4.24-8.45,2.68,5.18,9.71,6.29,15.52,6.78,6.69.57,13.48.08,20.01-1.44-3.06-.64-5.91-2.27-8.02-4.58,17.9,4.38,37.22,2.78,54.15-4.5-.72,3.28,1.35,6.74,4.28,8.37,2.93,1.64,6.51,1.73,9.8,1.1,10.92-2.1,19.66-12.47,19.88-23.58,1.75,8.13-.96,18.79-7.48,23.95Z"/>
  </g>
  <g>
    <path class="cls-1" d="M1102.49,294.98c-15.95,4.76-30.4,16.66-34.46,31.72-9.11-3.59-19.3-5.6-28.68-2.79-9.37,2.81-17.45,11.5-17.03,21.28-8.35-1.78-16.87-3.57-25.36-2.75-8.15.79-17.04,4.56-21.89,11.46-1.51,2.15-2.45,4.85-1.96,7.44-6.53-4.44-15.23-5.46-22.93-4.58-4.43.52-8.93,1.81-12.33,4.71-3.4,2.9-5.46,7.65-4.26,11.95,2.1,7.51,11.7,9.41,19.49,9.93,14.41.95,28.82,1.91,43.23,2.86,39.97,2.64,80.19,5.29,120,.84,3.25-.36,7.05-1.16,8.4-4.15,1.24-2.77-.47-6.15-3.03-7.79-2.55-1.64-5.71-1.98-8.73-2.27,18.24.02,36.48.05,54.73.08,14.6.02,29.2.03,43.8-.13,15.34-.18,31-.62,45.38-5.95,2.8-1.03,5.89-2.68,6.42-5.61.51-2.83-1.79-5.54-4.5-6.52-2.7-.96-5.67-.62-8.52-.27,7.26-.34,9.81-11.33,4.94-16.73-4.88-5.4-13.29-5.8-20.35-4.05-7.06,1.76-13.66,5.23-20.86,6.28-5.27-10-15.95-17.38-27.3-17.98-6.76-.36-30.62,3.88-32.62,12.41,3.82-16.27-7.5-33.84-23.24-39.44-8.71-3.1-18.8-2.8-28.34.05Z"/>
    <path class="cls-6" d="M975.07,353.89c-1.51,2.15-2.45,4.85-1.96,7.44-6.53-4.44-15.23-5.46-22.93-4.58-4.43.52-8.93,1.81-12.33,4.71-3.4,2.9-5.46,7.65-4.26,11.95,2.1,7.51,11.7,9.41,19.49,9.93,14.41.95,28.82,1.91,43.23,2.86,39.97,2.64,80.19,5.29,120,.84,3.25-.36,7.05-1.16,8.4-4.15,1.24-2.77-.47-6.15-3.03-7.79-2.55-1.64-5.71-1.98-8.73-2.27,18.24.02,36.48.05,54.73.08,14.6.02,29.2.03,43.8-.13,15.34-.18,31-.62,45.38-5.95,2.8-1.03,5.89-2.68,6.42-5.61.51-2.83-1.79-5.54-4.5-6.52-2.7-.96-5.67-.62-8.52-.27,7.26-.34,9.81-11.34,4.94-16.73-4.88-5.4-13.29-5.8-20.35-4.05-7.06,1.76-13.66,5.23-20.86,6.28-2.2-4.18-5.35-7.89-9.1-10.85-4.52,8.95-11.72,16.56-20.53,21.36-12.21,6.66-28.94,7.34-42.03,2.64,5.55-5.45,9.79-12.35,12.12-19.76-.16.34-.3.68-.38,1.05,1.42-6.03.74-12.24-1.45-17.95-2.25,8.04-5.36,15.83-10.58,22.27-6.85,8.45-18.14,14.1-28.7,11.5-4.76-1.17-9.03-3.91-12.66-7.2-11.35-10.31-16.19-27.51-11.87-41.92-9.98,6.09-17.94,15.07-20.78,25.62h-.01c.03,10.23,4.3,20.46,11.83,27.42-16.01,5-34.73,4.74-50.6-.7,4.73,6.29,11.52,11,19.08,13.23-15.97,5.64-33.98,5.29-49.71-.97-4.38-1.74-8.96-4.34-10.51-8.78-1.58-4.51.58-9.65,4.05-12.93.37-.35.74-.67,1.13-.98-7.03,1.43-14.09,5.03-18.21,10.9Z"/>
    <path class="cls-13" d="M1250.26,354.44c7.26-.34,9.81-11.34,4.94-16.73-4.88-5.4-13.29-5.8-20.35-4.05,2.34.01,5.25.3,7.3,1.41,2.06,1.12,3.74,3.1,4.06,5.42.17,1.24-.05,2.51-.44,3.7-1.74,5.31-6.71,8.99-11.95,10.93-7.85,2.91-16.48,2.61-24.84,2.29,13.84,1.84,27.33-2.31,41.28-2.97Z"/>
    <path class="cls-13" d="M1121.68,375.1c2.56,1.64,4.27,5.02,3.03,7.79-1.34,2.99-5.14,3.78-8.4,4.15-39.81,4.45-80.03,1.81-120-.84-14.41-.95-28.82-1.91-43.23-2.86-7.79-.51-17.39-2.41-19.49-9.93-1.2-4.31.86-9.05,4.26-11.95-1.58,3.1-.22,6.92,2.16,9.46,2.38,2.54,5.73,3.92,9.05,4.98,15.13,4.79,31.37,4.18,47.23,3.51-5.06-.69-9.7-3.93-12.09-8.45,20.1,8.96,42.76,9.7,64.76,10.3,13.37.36,26.91.72,39.94-2.31-6.24.11-12.51-1.8-17.63-5.38,16.97,3.49,33.67,5.97,50.41,1.53Z"/>
    <path class="cls-13" d="M1112.95,372.83c18.24.02,36.48.05,54.73.08,14.6.02,29.2.03,43.8-.13,15.34-.18,31-.62,45.38-5.95,2.8-1.03,5.89-2.68,6.42-5.61.51-2.83-1.79-5.54-4.5-6.52.07,2.24-1.88,4.09-3.76,5.29-1.89,1.19-4.13,1.69-6.32,2.12-24.71,4.88-50.1,4.78-75.29,4.67-9.82-.04-20.29-.28-28.42-5.79-9.47,6.89-20.33,11.61-32.03,11.84Z"/>
  </g>
  <g>
    <path class="cls-1" d="M527.96,284.18c13.48-28.6,54.2-39.98,80.56-22.51,15.21-19.92,41.93-30.36,66.62-26.04,24.7,4.32,46.27,23.21,53.82,47.12,13.32-2.22,28.53,4.28,33.42,16.88,4.88,12.59-4.56,29.39-18.06,29.27-4.43-.04-8.93-1.7-13.21-.55-3.44.92-6.14,3.49-8.84,5.8-33.86,29.01-91.6,23.31-119.15-11.75-19.47,16.97-51.76,16.54-70.77-.94,2.55,2.35-26.57,8.42-29.88,7.9-10.64-1.67-23.99-8.1-25.78-19.94-3.73-24.79,34.01-37.06,51.28-25.23Z"/>
    <path class="cls-6" d="M476.68,309.41c1.79,11.84,15.13,18.27,25.78,19.94,3.31.52,32.43-5.55,29.88-7.9,19.01,17.48,51.3,17.91,70.77.94,27.54,35.06,85.28,40.76,119.15,11.75,2.7-2.31,5.4-4.88,8.84-5.8,4.28-1.14,8.78.51,13.21.55,13.51.12,22.94-16.67,18.06-29.27-4.89-12.59-20.1-19.1-33.42-16.88-2.37-7.48-6.1-14.48-10.88-20.68,1.27,14.11-3.22,28.76-12.56,39.45-4.97,5.68-11.24,10.29-18.33,12.87-10.23,3.73-21.5,3.11-32.31,1.78-7.25-.9-14.61-2.13-21.07-5.55-6.45-3.42-11.94-9.4-13.03-16.62-.93-6.14,1.36-12.32,4.33-17.77,4.54-8.34,10.8-15.74,18.27-21.62-19.91,3.36-37.5,18.03-44.38,37.02-.97,2.67-1.82,5.55-3.9,7.5-1.71,1.61-4.03,2.37-6.29,3.01-11.11,3.15-22.72,4.51-34.25,4.03-9.69-.41-20.5-2.85-25.66-11.07-3.43,5-8.4,9.34-14.39,10.26-5.99.92-12.85-2.6-14.12-8.52-1.01-4.67,1.59-9.53,5.3-12.55,1.32-1.08,6.13-2.78,8.83-4.5-18.2-1.52-40.74,10.21-37.82,29.64Z"/>
    <path class="cls-13" d="M603.11,322.4c27.54,35.06,85.28,40.76,119.15,11.75,2.7-2.31,5.4-4.88,8.84-5.8,4.28-1.14,8.78.51,13.21.55,13.51.12,22.94-16.67,18.06-29.27-2.08,8.71-9.95,16.23-18.18,19.76-8.23,3.53-18.12,2.92-25.86-1.58-2.75,9.09-10.53,16.05-19.28,19.75-8.75,3.7-18.43,4.55-27.93,4.67-6.59.09-13.22-.15-19.65-1.57-11.04-2.44-21-8.25-30.57-14.27-7.81-4.91-16.15-10.98-17.84-20.04-.28,4.76.34,11.29.06,16.05Z"/>
    <path class="cls-13" d="M603.11,322.4c-19.47,16.97-51.76,16.54-70.77-.94,2.55,2.35-26.57,8.42-29.88,7.9-10.64-1.67-23.99-8.1-25.78-19.94-2.92-19.43,19.62-31.16,37.82-29.64-8.98,2.23-18.19,5.65-22.93,13.6-4.74,7.94-3.82,19.65,3.78,24.93,4.99,3.48,11.58,3.6,17.6,2.7,7.25-1.09,14.99-4.05,18.35-10.56,8.66,9.28,21.29,14.11,33.91,15.42,12.62,1.3,25.46-.98,37.9-3.46Z"/>
  </g>
  <g>
    <path class="cls-1" d="M795.04,176.3c4.72-2.02,10.5-1.3,14.58,1.83-.79-10.51,5.89-21.16,15.7-25.04,9.8-3.87,21.96-.65,28.56,7.57,4.77-16.14,20.35-28.95,37.19-28.87,16.83.08,32.88,14.28,33.5,31.1,4.59-6.03,13.26-6.78,20.82-6.52,7.54.27,15.58,1.25,21.33,6.13,8.17,6.93,8.96,19.09,8.51,29.79,9.3-4.34,21.28-4.05,28.95,2.78,7.67,6.82,8.64,20.66.58,27.01-6.76,5.32-16.47,3.98-24.82,1.93-7.07,11.82-18.6,21.2-32,24.39-13.4,3.2-28.51-.28-38.28-10-7.36,10.39-20.68,16.22-33.3,14.57-12.62-1.64-24.01-10.68-28.47-22.6-8.07,5.55-19.44,5.82-27.77.66-8.32-5.16-13.14-15.47-11.75-25.16-5.52,3.93-13.72,3.51-18.81-.95-8.88-7.78-5.03-24.15,5.46-28.64Z"/>
    <path class="cls-6" d="M825.31,153.09c-9.81,3.87-16.49,14.52-15.7,25.04-4.07-3.13-9.86-3.85-14.58-1.83-10.5,4.49-14.34,20.86-5.46,28.64,5.09,4.46,13.29,4.88,18.81.95-1.39,9.7,3.43,20,11.75,25.16,8.33,5.16,19.7,4.89,27.77-.66,4.46,11.92,15.84,20.96,28.47,22.6,12.62,1.64,25.93-4.18,33.3-14.57,9.76,9.71,24.88,13.2,38.28,10,13.4-3.2,24.93-12.58,32-24.39,8.35,2.06,18.06,3.4,24.82-1.93,8.07-6.35,7.1-20.19-.58-27.01-7.67-6.82-19.64-7.11-28.95-2.78.36-8.68-.09-18.32-4.64-25.35.4,9.7-1.42,19.48-5.34,28.36-1.78,4.03-4.1,8.01-7.77,10.43-3.1,2.04-6.86,2.77-10.54,3.29-7.2,1.04-14.5,1.45-21.77,1.24-4.17-.12-8.99-.83-11.1-4.43,7.85-11.13,8.91-26.67,2.64-38.76-5.21,13.62-17.47,25.06-31.98,26.55-14.51,1.49-30.04-9.02-31.65-23.51-2.13,8.22-.33,17.38,4.75,24.18-7.18,1.76-14.9,1.23-21.78-1.48-6.4-2.52-12.33-7.32-14.25-13.93-1.98-6.82.77-14.39,5.6-19.6,3.19-3.43,6.97-5.48,10.9-7.47-4.36-.72-8.88-.35-12.99,1.27Z"/>
    <path class="cls-13" d="M1004.19,195.08c7.67,6.82,8.64,20.66.58,27.01-6.76,5.32-16.47,3.98-24.82,1.93-7.07,11.82-18.6,21.2-32,24.39-13.4,3.2-28.51-.28-38.28-10-7.36,10.39-20.68,16.22-33.3,14.57-12.62-1.64-24.01-10.68-28.47-22.6-8.07,5.55-19.44,5.82-27.77.66-8.32-5.16-13.14-15.47-11.75-25.16-5.52,3.93-13.72,3.51-18.81-.95,7.07.21,14.89-2.21,21.14-5.51-.51-3.74.43-7.66,2.59-10.76-1.12,10.4,2.08,21.41,9.41,28.88,7.33,7.46,18.9,10.83,28.81,7.5-.94-4.79-.99-9.75-.15-14.55,4.24,14.83,16.55,27.44,31.64,30.64,15.09,3.2,32.18-3.98,39.29-17.67.12,5.34-1.33,10.7-4.11,15.26,7.99,4.03,17.67,3.99,26.06.88,8.38-3.1,15.51-9.07,21-16.12,4.87-6.27,8.65-13.83,8.46-21.77,4.11,3.3,6.73,8.4,7.02,13.66.06,1.12.05,2.35.78,3.21.43.52,1.09.81,1.73,1.05,6.17,2.19,13.39-.94,17.19-6.27,3.8-5.33,4.73-11.8,3.74-18.28Z"/>
  </g>
  <g>
    <path class="cls-1" d="M1263.93,163.68c15.59-4.33,32.8-.55,45,13.48,14.29-7.06,31.92-6.92,46.1.38,14.18,7.3,24.53,21.57,27.08,37.31,8.34-1.12,16.94-2.21,25.07-.06,8.14,2.16,15.78,8.41,16.93,16.74,10.11.34,20.71,10.14,16.95,19.53-2.13,5.31-8,8.25-13.68,9.04-5.67.8-11.44-.05-17.17.16-12.3.45-23.81,5.72-35.53,9.48-9.7,3.12-20.39,4.55-30.51,2.72-7.82-1.41-15.52-5.49-19.55-12.34-11.04,9.43-26.3,12.02-40.8,12.7-10.79.5-21.88.1-31.94-3.82-10.06-3.92-19.04-11.89-21.83-22.33-14.27,5.02-30.82,2.49-42.08-7.74-8.39-7.62-8.06-21.7-.32-29.77,6.1-6.36,15.96-6.86,24.78-6.66,6.13.14,12.64.54,17.66,4.05-1.37-9.11,2.28-18.43,8.02-25.63,6.88-8.61,16.03-14.53,25.82-17.25Z"/>
    <path class="cls-6" d="M1263.93,163.68c-9.79,2.72-18.94,8.65-25.82,17.25-5.75,7.2-9.4,16.52-8.02,25.63,1.05,6.97,3.5,13.09,8.91,17.6,5.4,4.51,12.09,7.2,18.79,9.37-9.78-22.54-8-49.76,6.13-69.86Z"/>
    <path class="cls-6" d="M1187.97,238.95c11.26,10.23,27.82,12.76,42.08,7.74,2.79,10.44,11.77,18.4,21.83,22.33,10.07,3.92,21.15,4.32,31.94,3.82,14.5-.67,29.77-3.27,40.8-12.7,4.03,6.85,11.72,10.93,19.55,12.34,10.12,1.83,20.81.4,30.51-2.72,11.72-3.77,23.24-9.03,35.53-9.48,5.72-.21,11.5.63,17.17-.16,5.67-.8,11.55-3.73,13.68-9.04,3.77-9.39-6.84-19.19-16.95-19.53-.13-.97-.36-1.91-.66-2.83-3.98-.41-8.06-.28-12,.27-20.37,2.86-38.47,15.35-58.88,17.88-5.5.69-11.2.61-16.44-1.21-4.57-1.59-8.62-4.45-12.18-7.73-6.77-6.24-11.98-14.15-15.05-22.83,3.13,12.36-6.64,25.18-18.65,29.44-12.02,4.26-25.34,1.95-37.58-1.63-7.71-2.26-16.27-5.98-18.57-13.68-9,7.5-23.52,8.56-32.22.72-9.88-8.91-4.89-17.67-1.18-26.87-4.97.79-9.61,2.51-13.05,6.09-7.74,8.07-8.07,22.15.32,29.77Z"/>
    <path class="cls-13" d="M1324.63,260.14c-11.04,9.43-26.3,12.02-40.8,12.7-10.79.5-21.88.1-31.94-3.82-10.06-3.92-19.04-11.89-21.83-22.33-14.27,5.02-30.82,2.49-42.08-7.74,14.72,5.71,30.73,7.09,46.02,3.13,5.85,11.53,18.34,18.82,31.18,20.35,12.83,1.53,25.87-2.15,37.26-8.26-.18,5.45-3.49,10.69-8.33,13.19,10.79.1,21.05-2.06,30.54-7.23Z"/>
    <path class="cls-13" d="M1441.06,251.07c-2.13,5.31-8,8.25-13.68,9.04-5.67.8-11.44-.05-17.17.16-12.3.45-23.81,5.72-35.53,9.48-9.7,3.12-20.39,4.55-30.51,2.72-7.82-1.41-15.52-5.49-19.55-12.34,12.29,4.73,27.19,4.55,39.8.78,7.17-2.15,13.88-5.61,20.91-8.17,17.39-6.33,37.97-6.95,55.71-1.67Z"/>
  </g>
  <g>
    <path class="cls-1" d="M2093.02,117.06c-19.45,2.36-36.76,17.36-41.86,36.28-16.99-10.01-40.47-7.39-54.85,6.12-9.44,8.87-14.41,24.89-5.85,34.61-11.2,8.21-13.31,26.32-4.29,36.89,9.03,10.56,27.24,11.31,37.1,1.51,9.05,15.64,26.15,26.33,44.19,27.6,10.4.74,22.6-1.82,31.96-6.37,2.74-1.32,19.85-14.21,15.57-18.62,9.08,9.33,20.69,16.69,33.58,18.52,12.89,1.84,27.03-2.56,34.95-12.89,7.93-10.33,7.94-26.62-1.43-35.66,9.8-4.17,16.59-14.62,16.41-25.27-.17-10.33-8.3-22.53-17.97-26.68-4.54-1.95-31.1-.77-30.08,8-1.42-12.2-7.66-23.07-16.63-31-10.83-9.58-25.65-14.87-40.79-13.04Z"/>
    <path class="cls-6" d="M2150.44,161.09c-1.42-12.2-7.66-23.07-16.63-31-10.83-9.58-25.65-14.87-40.79-13.04,10.33,3.93,18.69,12.08,26.03,20.33,7.72,8.69,14.91,18.03,19.57,28.68,4.66,10.65,6.64,22.77,3.74,34.02,5.43-11.34,9.53-26.51,8.08-39Z"/>
    <path class="cls-6" d="M1990.46,194.06c-11.2,8.21-13.31,26.32-4.29,36.89,9.03,10.56,27.24,11.31,37.1,1.51,9.05,15.64,26.15,26.33,44.19,27.6,10.4.74,22.6-1.82,31.96-6.37,2.74-1.32,19.85-14.21,15.57-18.62,9.08,9.33,20.69,16.69,33.58,18.52,12.89,1.84,27.03-2.56,34.95-12.89,7.93-10.33,7.94-26.62-1.43-35.66,9.8-4.17,16.59-14.62,16.41-25.28-.17-10.33-8.3-22.53-17.97-26.67-.28-.12-.64-.23-1.06-.32,3.53,4.98,5.12,11.31,3.31,17.1-2.58,8.26-13.06,13.58-20.65,9.43,7.05,19.39-5.65,43.48-25.64,48.61,4.77-13.4.94-29.45-9.36-39.26-4.5,18.07-20.48,32.71-38.87,35.64-18.39,2.92-38.12-6.06-48-21.84-10.79,2.12-23.35,3.8-31.6-3.48-7.25-6.4-8.16-17.62-5.54-26.93,2.99-10.61,9.37-18.05,17.44-24.15-9,1.42-17.59,5.31-24.24,11.56-9.44,8.87-14.41,24.89-5.85,34.61Z"/>
    <path class="cls-13" d="M2148.57,253.59c12.89,1.84,27.03-2.56,34.95-12.89,7.93-10.33,7.94-26.62-1.43-35.66,9.8-4.17,16.59-14.62,16.41-25.28-1.56,11.69-12.4,19.88-24.19,20,5.16,9.94,5.58,22.21,1.13,32.49-4.45,10.28-16.09,18.31-26.87,21.34Z"/>
    <path class="cls-13" d="M2114.99,235.07c4.29,4.41-12.83,17.3-15.57,18.62-9.36,4.55-21.56,7.11-31.96,6.37-18.03-1.27-35.13-11.96-44.19-27.6-9.86,9.79-28.08,9.05-37.1-1.51-9.03-10.56-6.92-28.67,4.29-36.89-2.7,5.38-3.03,11.82-2.76,17.84.27,6.01,2.78,12.08,7.47,15.86,5.04,4.08,12.14,5.11,18.42,3.49,6.28-1.62,11.75-5.65,15.92-10.61,2.44,11.58,11.26,21.19,21.86,26.44,10.61,5.25,22.82,6.53,34.63,5.67,5.78-.42,11.61-1.35,16.86-3.81,5.25-2.46,10.01-8.47,12.13-13.87Z"/>
  </g>
  <g>
    <path class="cls-1" d="M2213.51,352.94c-22.85-12.61-24.87-48.95-.81-61.16,2.95-1.49,7.36-3.82,10.64-4.3,1.67-.24,12.57,1.16,12.45,3.61.41-8.33,6.59-15.44,13.78-19.67,18.06-10.62,43.87-5.03,55.92,12.11,12.05,17.14,8.57,43.31-7.54,56.72,6.41-2.86,14.62-.97,19.11,4.42,4.5,5.39,4.9,13.81.93,19.6,8.47-4.89,20.58-1.89,25.78,6.39,12.85-2.77,26.51-1.64,38.72,3.21,2.73,1.08,5.49,2.43,7.25,4.78,1.76,2.35,2.16,5.95.17,8.1-1.27,1.38-3.21,1.91-5.06,2.27-7.05,1.41-14.29,1.45-21.48,1.48-33.6.16-67.2.32-100.8.48-3.39.01-6.89,0-9.97-1.38-3.09-1.4-5.64-4.58-5.17-7.93-4.92,3.89-10.7,6.89-16.93,7.57-6.23.68-12.92-1.23-17.15-5.85-19.59,5.3-40.27,6.53-60.34,3.58-3.31-.49-6.7-1.13-9.49-2.96-2.78-1.84-4.85-5.17-4.23-8.45.62-3.29,3.76-5.65,7.04-6.36,3.27-.71,6.67-.11,9.96.55-1.29-6.39,2.57-13.01,8.03-16.58,5.46-3.57,12.19-4.6,18.71-4.81,10.32-.32,20.7,1.23,30.48,4.56Z"/>
    <path class="cls-6" d="M2146.32,369.23c-3.28.72-6.42,3.07-7.04,6.36-.62,3.28,1.45,6.61,4.23,8.45,2.79,1.84,6.18,2.47,9.49,2.96,20.07,2.95,40.76,1.72,60.34-3.58,4.23,4.62,10.92,6.53,17.15,5.85,6.23-.68,12.02-3.68,16.93-7.57-.47,3.35,2.08,6.53,5.17,7.93,3.08,1.39,6.59,1.39,9.97,1.38,33.6-.16,67.2-.32,100.8-.48,7.19-.03,14.43-.08,21.48-1.48,1.85-.36,3.78-.89,5.06-2.27,1.99-2.16,1.59-5.75-.17-8.1-.65-.87-1.44-1.6-2.31-2.24-10.22,2.98-21.49,1.91-32.11,0-3.63-.65-7.51-1.52-10-4.24-.43-.47-.79-1.02-1.07-1.62-.16.03-.32.06-.48.09-5.2-8.29-17.31-11.29-25.78-6.39,3.97-5.79,3.57-14.2-.93-19.6-4.5-5.39-12.7-7.28-19.11-4.42,12.04-10.01,17.02-27.16,13.74-42.34-1.55,10.45-5.19,20.64-11.67,28.92-7.67,9.78-19.66,16.58-32.08,16.23-1.68-12.79-9.96-24.52-21.44-30.39,6.22,4.76,6.39,15.11,1.06,20.84-5.33,5.74-14.64,6.74-21.69,3.33-7.04-3.42-11.83-10.55-13.68-18.17-2.74-11.32,1.13-20.84,7.04-29.97-2.33.92-4.71,2.16-6.53,3.09-24.05,12.21-22.03,48.55.81,61.16-2.45-.83-4.93-1.55-7.45-2.16-8.27,2.19-17.45,3.55-25.63,5.78-8.65,2.35-17.34,7.69-19.95,16.26-1.32-1.1-2.73-2.12-4.2-3.04h0c-3.29-.66-6.69-1.27-9.96-.55Z"/>
    <path class="cls-13" d="M2213.51,352.94c-22.85-12.61-24.87-48.95-.81-61.16,1.83-.92,4.21-2.16,6.53-3.09-12.03,5.85-18.26,19.74-18.48,33.12-.11,6.93,1.09,14.28,5.62,19.53,4.08,4.72,10.4,7.1,16.63,7.47,6.23.38,12.43-1.05,18.41-2.85-7.06,6.67-19.4,11.67-27.9,6.98Z"/>
    <path class="cls-13" d="M2317.99,364.28c3.97-5.79,3.57-14.2-.93-19.6-4.5-5.39-12.7-7.28-19.11-4.42,4.73-.87,9.25,3.59,10.19,8.3.95,4.72-1,9.6-3.84,13.48-1.19,1.62-2.56,3.15-4.31,4.13-2.64,1.49-5.84,1.56-8.88,1.41-6.95-.34-14.81-2.28-18.01-8.46-.61,4.77,2.65,9.38,6.86,11.7,4.2,2.32,9.16,2.79,13.97,2.88,4.54.09,9.14-.1,13.48-1.43,4.34-1.32,8.02-4.26,10.58-8.01Z"/>
    <path class="cls-13" d="M2389.74,378.67c1.76,2.35,2.16,5.95.17,8.1-1.27,1.38-3.21,1.91-5.06,2.27-7.05,1.41-14.29,1.45-21.48,1.48-33.6.16-67.2.32-100.8.48-3.39.01-6.89,0-9.97-1.38-3.09-1.4-5.64-4.58-5.17-7.93,5.33,3.74,11.68,4.48,18.19,4.72,7.88.29,15.85.28,23.52-1.55,7.67-1.84,15.08-5.67,19.93-11.88.6,5.14-1.95,10.54-6.32,13.32,22.74-2.8,45.77-.17,68.68-.62,6.67-.13,15.85-.82,18.32-7.02Z"/>
    <path class="cls-13" d="M2247.43,381.7c-4.92,3.89-10.7,6.89-16.93,7.57-6.23.68-12.92-1.23-17.15-5.85-19.59,5.3-40.27,6.53-60.34,3.58-3.31-.49-6.7-1.13-9.49-2.96-2.78-1.84-4.85-5.17-4.23-8.45,2.68,5.18,9.71,6.29,15.52,6.79,6.69.56,13.48.08,20.01-1.44-3.06-.64-5.91-2.27-8.02-4.58,17.9,4.39,37.22,2.78,54.16-4.5-.72,3.28,1.35,6.73,4.28,8.37,2.93,1.64,6.51,1.73,9.8,1.1,10.92-2.1,19.66-12.47,19.88-23.58,1.75,8.12-.96,18.79-7.48,23.95Z"/>
  </g>
  <g>
    <path class="cls-1" d="M416.15,164.39c-22.85-12.6-24.87-48.95-.81-61.15,2.96-1.5,7.36-3.82,10.65-4.3,1.67-.24,12.57,1.16,12.45,3.62.41-8.33,6.58-15.43,13.78-19.66,18.06-10.62,43.87-5.04,55.92,12.11,12.05,17.15,8.57,43.32-7.54,56.72,6.41-2.87,14.62-.97,19.11,4.42,4.5,5.39,4.9,13.8.93,19.6,8.47-4.9,20.58-1.9,25.78,6.39,12.85-2.77,26.51-1.64,38.72,3.21,2.73,1.09,5.49,2.44,7.25,4.78,1.75,2.35,2.16,5.95.17,8.1-1.28,1.38-3.21,1.91-5.06,2.28-7.05,1.4-14.29,1.44-21.48,1.48-33.6.16-67.2.32-100.8.48-3.38.02-6.89,0-9.97-1.38-3.09-1.4-5.64-4.57-5.17-7.93-4.91,3.89-10.7,6.9-16.94,7.57-6.23.68-12.92-1.23-17.15-5.85-19.58,5.31-40.26,6.53-60.34,3.58-3.31-.49-6.69-1.12-9.48-2.96-2.79-1.84-4.85-5.17-4.23-8.46.62-3.29,3.76-5.65,7.03-6.36,3.27-.72,6.68-.11,9.96.56-1.29-6.4,2.58-13.02,8.03-16.59,5.46-3.57,12.19-4.6,18.71-4.81,10.32-.33,20.7,1.23,30.48,4.55Z"/>
    <path class="cls-6" d="M348.96,180.67c-3.27.72-6.42,3.07-7.03,6.36-.62,3.28,1.44,6.61,4.23,8.46,2.79,1.84,6.18,2.47,9.48,2.96,20.08,2.95,40.76,1.73,60.34-3.58,4.23,4.62,10.92,6.53,17.15,5.85,6.23-.67,12.02-3.69,16.94-7.57-.47,3.35,2.08,6.53,5.17,7.93,3.09,1.39,6.59,1.4,9.97,1.38,33.6-.16,67.2-.32,100.8-.48,7.19-.03,14.43-.08,21.48-1.48,1.85-.37,3.78-.9,5.06-2.28,1.99-2.15,1.59-5.76-.17-8.1-.65-.87-1.44-1.6-2.32-2.24-10.22,2.98-21.49,1.91-32.11.01-3.63-.65-7.5-1.52-10-4.24-.43-.48-.79-1.03-1.07-1.62-.16.03-.32.06-.48.09-5.2-8.29-17.31-11.29-25.78-6.39,3.97-5.8,3.57-14.21-.93-19.6-4.5-5.39-12.7-7.29-19.11-4.42,12.04-10.01,17.03-27.16,13.74-42.34-1.54,10.45-5.18,20.64-11.67,28.92-7.67,9.79-19.66,16.57-32.08,16.23-1.67-12.79-9.96-24.53-21.44-30.39,6.22,4.75,6.39,15.1,1.06,20.84-5.33,5.74-14.64,6.74-21.68,3.32-7.05-3.42-11.84-10.55-13.69-18.17-2.74-11.32,1.13-20.83,7.04-29.97-2.32.92-4.71,2.16-6.53,3.09-24.06,12.21-22.03,48.55.81,61.15-2.45-.83-4.93-1.55-7.45-2.16-8.27,2.19-17.45,3.55-25.63,5.78-8.65,2.35-17.34,7.69-19.95,16.26-1.33-1.1-2.73-2.12-4.2-3.04h0c-3.28-.66-6.69-1.27-9.96-.55Z"/>
    <path class="cls-13" d="M416.15,164.39c-22.85-12.6-24.87-48.95-.81-61.15,1.82-.93,4.21-2.17,6.53-3.09-12.03,5.85-18.26,19.74-18.47,33.12-.11,6.93,1.09,14.28,5.61,19.53,4.08,4.73,10.4,7.1,16.63,7.48,6.23.38,12.43-1.04,18.41-2.85-7.07,6.67-19.4,11.68-27.9,6.98Z"/>
    <path class="cls-13" d="M520.64,175.73c3.97-5.8,3.57-14.21-.93-19.6-4.5-5.39-12.7-7.29-19.11-4.42,4.73-.87,9.25,3.59,10.19,8.31.95,4.71-1,9.59-3.84,13.48-1.19,1.62-2.56,3.15-4.31,4.13-2.64,1.49-5.84,1.56-8.87,1.41-6.95-.33-14.81-2.28-18.01-8.46-.6,4.77,2.66,9.39,6.86,11.7,4.2,2.33,9.17,2.79,13.97,2.88,4.54.09,9.14-.1,13.48-1.43,4.34-1.32,8.01-4.26,10.58-8Z"/>
    <path class="cls-13" d="M592.39,190.12c1.75,2.35,2.16,5.95.17,8.1-1.28,1.38-3.21,1.91-5.06,2.28-7.05,1.4-14.29,1.44-21.48,1.48-33.6.16-67.2.32-100.8.48-3.38.02-6.89,0-9.97-1.38-3.09-1.4-5.64-4.57-5.17-7.93,5.33,3.74,11.68,4.48,18.19,4.72,7.87.29,15.85.28,23.52-1.55,7.67-1.84,15.08-5.67,19.93-11.88.6,5.14-1.96,10.54-6.33,13.32,22.74-2.79,45.77-.17,68.68-.61,6.67-.13,15.85-.82,18.32-7.02Z"/>
    <path class="cls-13" d="M450.07,193.14c-4.91,3.89-10.7,6.9-16.94,7.57-6.23.68-12.92-1.23-17.15-5.85-19.58,5.31-40.26,6.53-60.34,3.58-3.31-.49-6.69-1.12-9.48-2.96-2.79-1.84-4.85-5.17-4.23-8.46,2.67,5.18,9.71,6.29,15.51,6.79,6.7.57,13.48.08,20.02-1.44-3.06-.64-5.91-2.26-8.02-4.57,17.9,4.38,37.22,2.78,54.16-4.5-.72,3.28,1.34,6.73,4.27,8.37,2.94,1.64,6.51,1.73,9.81,1.1,10.92-2.1,19.66-12.46,19.88-23.58,1.74,8.12-.97,18.79-7.48,23.95Z"/>
  </g>
  <g>
    <path class="cls-1" d="M228.83,292.64c15.59-4.33,32.8-.55,44.99,13.48,14.29-7.06,31.93-6.92,46.1.38,14.17,7.3,24.54,21.57,27.09,37.31,8.34-1.12,16.94-2.21,25.07-.06,8.14,2.16,15.78,8.41,16.93,16.74,10.11.34,20.71,10.14,16.95,19.52-2.13,5.32-8,8.25-13.68,9.05-5.67.8-11.44-.05-17.17.16-12.3.45-23.82,5.72-35.53,9.48-9.7,3.12-20.39,4.55-30.51,2.72-7.82-1.41-15.52-5.49-19.55-12.34-11.03,9.43-26.3,12.02-40.8,12.7-10.79.5-21.87.1-31.94-3.82-10.06-3.92-19.04-11.89-21.84-22.33-14.27,5.02-30.82,2.49-42.08-7.75-8.39-7.62-8.06-21.7-.32-29.77,6.1-6.36,15.96-6.86,24.77-6.66,6.13.14,12.64.54,17.67,4.05-1.37-9.11,2.28-18.43,8.03-25.63,6.87-8.61,16.02-14.53,25.82-17.25Z"/>
    <path class="cls-6" d="M228.83,292.64c-9.79,2.72-18.95,8.65-25.82,17.25-5.75,7.2-9.4,16.52-8.03,25.63,1.05,6.97,3.51,13.09,8.92,17.6,5.4,4.51,12.09,7.2,18.79,9.37-9.78-22.54-8-49.76,6.13-69.86Z"/>
    <path class="cls-6" d="M152.87,367.9c11.26,10.23,27.81,12.77,42.08,7.75,2.79,10.44,11.77,18.4,21.84,22.33,10.07,3.92,21.15,4.32,31.94,3.82,14.5-.67,29.77-3.27,40.8-12.7,4.03,6.85,11.73,10.93,19.55,12.34,10.12,1.83,20.81.4,30.51-2.72,11.72-3.77,23.24-9.03,35.53-9.48,5.73-.21,11.5.63,17.17-.16,5.67-.8,11.54-3.73,13.68-9.05,3.77-9.38-6.84-19.18-16.95-19.52-.13-.97-.36-1.91-.66-2.83-3.98-.41-8.06-.28-12,.27-20.37,2.86-38.47,15.35-58.88,17.88-5.5.69-11.21.61-16.45-1.21-4.57-1.59-8.61-4.45-12.17-7.73-6.77-6.24-11.98-14.15-15.05-22.83,3.13,12.36-6.64,25.18-18.66,29.44-12.01,4.26-25.34,1.95-37.58-1.63-7.7-2.26-16.26-5.98-18.57-13.68-9,7.5-23.52,8.56-32.22.72-9.88-8.91-4.89-17.67-1.17-26.87-4.97.79-9.61,2.51-13.05,6.09-7.74,8.07-8.07,22.15.32,29.77Z"/>
    <path class="cls-13" d="M289.52,389.09c-11.03,9.43-26.3,12.02-40.8,12.7-10.79.5-21.87.1-31.94-3.82-10.06-3.92-19.04-11.89-21.84-22.33-14.27,5.02-30.82,2.49-42.08-7.75,14.72,5.72,30.73,7.1,46.02,3.14,5.85,11.53,18.34,18.82,31.17,20.35,12.83,1.53,25.87-2.15,37.27-8.26-.19,5.45-3.49,10.69-8.34,13.19,10.8.1,21.06-2.06,30.54-7.22Z"/>
    <path class="cls-13" d="M405.95,380.02c-2.13,5.32-8,8.25-13.68,9.05-5.67.8-11.44-.05-17.17.16-12.3.45-23.82,5.72-35.53,9.48-9.7,3.12-20.39,4.55-30.51,2.72-7.82-1.41-15.52-5.49-19.55-12.34,12.29,4.73,27.19,4.55,39.81.78,7.17-2.15,13.87-5.61,20.91-8.17,17.39-6.33,37.97-6.95,55.71-1.68Z"/>
  </g>
  <g>
    <path class="cls-11" d="M1580.12,288.27l.09,1.82-5.8-1.44-5.08-1.26h-4.15l.55,1.73-5.97.11-5.24.1h-.03s-3.98,1.07-3.98,1.07l.98,1.53-5.74,1.65-5.04,1.45h-.03s-3.56,2.07-3.56,2.07l1.35,1.22-5.12,3.08-4.49,2.71-.02.02-2.91,2.91,1.62.84-4.14,4.3-3.64,3.77v.03s-2.07,3.56-2.07,3.56l1.78.39-2.89,5.22-2.53,4.59v.03s-1.08,3.97-1.08,3.97l1.82-.08-1.44,5.79-1.26,5.09v4.14l1.73-.55.11,5.97.1,5.24v.03s1.07,3.98,1.07,3.98l1.53-.98,1.66,5.74,1.45,5.03.02.03,2.06,3.56,1.22-1.34,3.09,5.11,2.7,4.49.02.02,2.91,2.91.84-1.62,4.3,4.14,3.77,3.64.03.02,3.56,2.06.39-1.78,5.22,2.89,4.59,2.54h.03s3.98,1.07,3.98,1.07l-.09-1.82,5.8,1.44,5.09,1.26h4.14l-.55-1.73,5.97-.11,5.24-.1h.03s3.97-1.07,3.97-1.07l-.98-1.54,5.74-1.65,5.03-1.45.03-.02,3.56-2.06-1.34-1.23,5.11-3.08,4.49-2.7.02-.02,2.91-2.91-1.62-.84,4.14-4.3,3.64-3.77.02-.03,2.06-3.56-1.78-.39,2.89-5.22,2.54-4.59v-.03s1.07-3.98,1.07-3.98l-1.81.08,1.44-5.79,1.26-5.09v-4.15l-1.73.55-.11-5.97-.09-5.24v-.03s-1.08-3.98-1.08-3.98l-1.53.98-1.65-5.74-1.45-5.04-.02-.03-2.06-3.56-1.23,1.35-3.08-5.12-2.7-4.49-.02-.02-2.91-2.91-.83,1.62-4.3-4.14-3.78-3.64h-.03s-3.56-2.07-3.56-2.07l-.39,1.78-5.23-2.89-4.58-2.53h-.03s-3.98-1.07-3.98-1.07h0ZM1557.7,275.28l1.28-7.32,4,9.28,1.63-5.47,4.67-15.62,4.67,15.62,1.27,4.25.81-1.37,3.13-6.74,1.46,10,3-4.87,8.55-13.88.46,16.29.12,4.43,1.14-1.12,4.77-5.7-1.17,10.04,4.16-3.92,11.85-11.19-3.77,15.86-1.02,4.31,1.38-.78,6.09-4.27-3.73,9.39,5.03-2.71,14.34-7.75-7.74,14.34-2.11,3.9,1.54-.4,6.99-2.55-6.04,8.11,5.56-1.32,15.86-3.77-11.19,11.85-3.04,3.22,1.59.02,7.4-.66-7.93,6.27,5.71.16,16.3.47-13.88,8.55-3.78,2.32,1.53.42,7.33,1.29-9.28,4,5.47,1.63,15.62,4.67-15.62,4.67-4.25,1.27,1.37.81,6.74,3.14-9.99,1.47,4.86,2.99,13.88,8.55-16.3.47-4.43.12,1.11,1.13,5.7,4.78-10.04-1.17,3.92,4.15,11.19,11.85-15.86-3.77-4.31-1.02.78,1.38,4.27,6.09-9.39-3.73,2.71,5.03,7.74,14.34-14.34-7.74-3.9-2.11.39,1.54,2.55,6.98-8.11-6.03,1.32,5.56,3.77,15.85-11.85-11.19-3.23-3.04-.02,1.58.66,7.41-6.27-7.93-.16,5.71-.46,16.29-8.55-13.87-2.32-3.78-.43,1.53-1.28,7.32-4.01-9.28-1.64,5.48-4.67,15.61-4.67-15.61-1.27-4.25-.81,1.37-3.13,6.74-1.47-10-3,4.87-8.55,13.87-.47-16.29-.13-4.43-1.13,1.11-4.77,5.71,1.17-10.04-4.16,3.92-11.85,11.19,3.77-15.85,1.03-4.32-1.38.78-6.09,4.28,3.74-9.4-5.03,2.72-14.34,7.74,7.75-14.34,2.1-3.9-1.54.4-6.99,2.55,6.03-8.11-5.56,1.32-15.86,3.77,11.19-11.85,3.05-3.23-1.59-.02-7.41.66,7.93-6.27-5.71-.16-16.29-.47,13.88-8.55,3.77-2.32-1.52-.42-7.33-1.28,9.28-4.01-5.47-1.63-15.62-4.67,15.62-4.67,4.25-1.27-1.37-.81-6.75-3.13,10-1.47-4.87-2.99-13.88-8.55,16.29-.47,4.43-.13-1.11-1.13-5.7-4.77,10.04,1.17-3.92-4.16-11.19-11.85,15.86,3.77,4.31,1.02-.78-1.38-4.27-6.09,9.39,3.73-2.71-5.03-7.75-14.34,14.34,7.75,3.91,2.1-.4-1.53-2.56-6.99,8.11,6.03-1.32-5.56-3.77-15.86,11.85,11.19,3.22,3.04.02-1.58-.66-7.42,6.27,7.93.16-5.71.47-16.29,8.55,13.88,2.32,3.77.42-1.53Z"/>
    <path class="cls-35" d="M1569.29,281.66c34.75,0,62.92,28.17,62.92,62.92s-28.17,62.92-62.92,62.92-62.92-28.17-62.92-62.92,28.17-62.92,62.92-62.92Z"/>
    <path class="cls-31" d="M1565.33,305.29c27.92,0,50.55,22.63,50.55,50.55s-22.63,50.55-50.55,50.55-50.54-22.63-50.54-50.55,22.63-50.55,50.54-50.55Z"/>
  </g>
  <g>
    <path class="cls-1" d="M1389.46,333.61c9.93-2.76,20.88-.34,28.65,8.58,9.1-4.5,20.33-4.4,29.35.24,9.03,4.65,15.63,13.73,17.25,23.75,5.31-.7,10.79-1.41,15.97-.03,5.18,1.38,10.05,5.35,10.78,10.66,6.43.21,13.19,6.46,10.79,12.43-1.35,3.38-5.1,5.25-8.71,5.76-3.61.5-7.29-.03-10.93.1-7.83.28-15.16,3.64-22.62,6.04-6.18,1.98-12.98,2.89-19.42,1.73-4.98-.9-9.88-3.5-12.45-7.86-7.03,6-16.74,7.66-25.98,8.09-6.87.32-13.93.06-20.34-2.44-6.41-2.49-12.13-7.57-13.9-14.21-9.08,3.2-19.63,1.58-26.8-4.93-5.34-4.86-5.13-13.82-.2-18.96,3.88-4.05,10.17-4.36,15.77-4.24,3.91.09,8.05.34,11.25,2.58-.87-5.8,1.45-11.74,5.12-16.32,4.38-5.47,10.2-9.25,16.43-10.99Z"/>
    <path class="cls-6" d="M1389.46,333.61c-6.23,1.73-12.06,5.51-16.43,10.99-3.66,4.59-5.99,10.53-5.12,16.32.67,4.43,2.23,8.33,5.68,11.21,3.45,2.87,7.7,4.58,11.97,5.97-6.22-14.36-5.09-31.68,3.91-44.48Z"/>
    <path class="cls-6" d="M1341.1,381.54c7.17,6.51,17.71,8.13,26.8,4.93,1.77,6.64,7.49,11.72,13.9,14.21,6.41,2.5,13.47,2.76,20.34,2.44,9.23-.43,18.95-2.09,25.98-8.09,2.57,4.37,7.47,6.96,12.45,7.86,6.45,1.16,13.24.25,19.42-1.73,7.46-2.4,14.8-5.76,22.62-6.04,3.64-.14,7.32.4,10.93-.1,3.61-.51,7.35-2.38,8.71-5.76,2.4-5.97-4.35-12.22-10.79-12.43-.09-.62-.23-1.22-.42-1.8-2.53-.26-5.13-.17-7.64.17-12.97,1.82-24.5,9.78-37.5,11.39-3.5.44-7.13.39-10.47-.77-2.91-1.01-5.49-2.83-7.76-4.92-4.31-3.97-7.62-9.01-9.58-14.53,1.99,7.87-4.23,16.03-11.88,18.74-7.65,2.71-16.13,1.24-23.93-1.04-4.9-1.44-10.36-3.81-11.83-8.7-5.73,4.77-14.97,5.45-20.52.45-6.29-5.68-3.11-11.25-.75-17.12-3.16.5-6.11,1.6-8.31,3.88-4.93,5.14-5.14,14.1.2,18.96Z"/>
    <path class="cls-13" d="M1428.11,395.03c-7.03,6-16.74,7.66-25.98,8.09-6.87.32-13.93.06-20.34-2.44-6.41-2.49-12.13-7.57-13.9-14.21-9.08,3.2-19.63,1.58-26.8-4.93,9.37,3.64,19.57,4.51,29.3,1.99,3.73,7.34,11.68,11.99,19.85,12.96,8.16.98,16.47-1.37,23.72-5.25-.12,3.47-2.22,6.81-5.31,8.4,6.87.06,13.41-1.31,19.44-4.6Z"/>
    <path class="cls-13" d="M1502.24,389.25c-1.35,3.38-5.1,5.25-8.71,5.76-3.61.5-7.29-.03-10.93.1-7.83.28-15.16,3.64-22.62,6.04-6.18,1.98-12.98,2.89-19.42,1.73-4.98-.9-9.88-3.5-12.45-7.86,7.83,3.01,17.31,2.9,25.35.49,4.57-1.37,8.84-3.57,13.32-5.2,11.08-4.03,24.18-4.42,35.47-1.06Z"/>
  </g>
  <g>
    <path class="cls-1" d="M1780.44,349.93c-1.68-11.66-9.29-22.3-19.78-27.67-10.48-5.37-23.57-5.31-34.01.14-6.5-17.03-24.46-28.97-42.67-28.36-18.21.6-35.35,13.7-40.7,31.12-11.48-.66-22.26,10.15-21.57,21.63-8.72-3.93-19.23,6.26-17.17,15.61,2.06,9.35,13.28,14.7,22.57,12.41,23.27,17.17,56.06,20.45,82.27,8.21,20.84,13.78,52.76,5.79,64.65-16.18-1.57,2.9,23.32,7.6,28.13-3.01,5.45-12-12.57-19.22-21.74-13.91Z"/>
    <path class="cls-6" d="M1604.55,362.4c2.06,9.35,13.28,14.7,22.57,12.41,23.27,17.17,56.06,20.45,82.27,8.21,20.84,13.78,52.76,5.79,64.65-16.18-1.57,2.9,23.32,7.6,28.13-3.01,5.45-12-12.57-19.22-21.74-13.91-1.68-11.66-9.29-22.3-19.78-27.67-2.94-1.51-6.1-2.57-9.33-3.23,3.5,4.4,6.4,9.25,7.59,14.69,1.64,7.49-.75,16.31-7.34,20.23-4.6,2.74-10.27,2.69-15.61,2.44-6.28-.3-13.78-1.58-16.26-7.36-.84-1.95-.93-4.14-1.32-6.24-1.93-10.6-12.41-18.93-23.17-18.42,5.55.66,9.18,7.09,8.05,12.57-1.13,5.47-5.9,9.65-11.17,11.52-5.27,1.88-11.01,1.82-16.6,1.52-9.35-.51-19.68-2.18-25.54-9.5-4.56,4.9-12.72,5.95-18.38,2.36-2.78-1.76-4.72-4.5-5.81-7.57-.09-.25-.15-.62-.19-1.04-2.62,3.65-4.13,8.04-3.86,12.55-8.72-3.93-19.23,6.26-17.17,15.61Z"/>
    <path class="cls-13" d="M1774.05,366.85c-1.57,2.9,23.32,7.6,28.13-3.01,5.45-12-12.57-19.22-21.74-13.91,4.25-.53,8.94-.63,13.15.16,2.35.43,4.95,1.31,5.91,3.5.39.88.45,1.88.4,2.84-.17,3.25-1.72,6.52-4.46,8.27-2.41,1.55-5.42,1.79-8.28,1.91-3.86.17-9.25.32-13.12.23Z"/>
    <path class="cls-13" d="M1774.05,366.85c-11.89,21.97-43.81,29.96-64.65,16.18-26.21,12.24-59,8.97-82.27-8.21-9.3,2.28-20.51-3.07-22.57-12.41-2.06-9.35,8.44-19.55,17.17-15.61-6.29.58-10.5,8.11-8.63,14.13,1.88,6.03,9.86,9.21,15.37,6.13-1.35-3.41-2.02-7.09-1.95-10.76,2.43,5.31,9.15,6.99,14.99,7.15,5.64.15,11.3-.51,16.76-1.95-1.36,6.88-7.62,12.48-14.6,13.07,10.14,5.7,22.18,6.9,33.81,6.79,7.83-.07,15.96-.77,22.75-4.66,6.79-3.89,11.86-11.77,10.23-19.43,5.71,5.11,7.34,14.23,3.73,21,9.37,5.03,20.67,5.84,31.02,3.4,10.34-2.44,20.71-7.97,28.85-14.8Z"/>
  </g>
</svg>