<?xml version="1.0" encoding="UTF-8"?>
<svg width="243px" height="70px" viewBox="0 0 243 70" version="1.1" xmlns="http://www.w3.org/2000/svg" xmlns:xlink="http://www.w3.org/1999/xlink">
    <title>ABCE2618-B712-4B27-A3DD-FF9BC5675D18</title>
    <defs>
        <radialGradient cx="47.3053778%" cy="37.3232376%" fx="47.3053778%" fy="37.3232376%" r="47.7048499%" gradientTransform="translate(0.473054,0.373232),scale(1.000000,0.988886),translate(-0.473054,-0.373232)" id="radialGradient-1">
            <stop stop-color="#FFFFFF" offset="0%"></stop>
            <stop stop-color="#EFEEEE" offset="29%"></stop>
            <stop stop-color="#DFDEDF" offset="45%"></stop>
            <stop stop-color="#B4B6B7" offset="76%"></stop>
            <stop stop-color="#8E9193" offset="100%"></stop>
        </radialGradient>
    </defs>
    <g id="Home" stroke="none" stroke-width="1" fill="none" fill-rule="evenodd">
        <g id="3---HomePage" transform="translate(-101.000000, -7.000000)" fill-rule="nonzero">
            <g id="EAD" transform="translate(101.964596, 7.000000)">
                <polygon id="Rectangle" fill="url(#radialGradient-1)" points="13.3423321 17.9025559 35.1605974 17.9025559 44.4021545 21.597113 47.223539 23.4447668 47.223539 52.1645367 27.0722689 52.1645367 15.7322371 48.5303514 13.3423321 47.750914"></polygon>
                <path d="M46.6132078,35.4964856 C46.7950403,35.7946752 46.9761276,36.1018104 47.1564697,36.4178914 L47.2145965,36.384345 C47.0268022,36.0466454 46.8345367,35.7134185 46.6400356,35.4070288 C46.9060904,34.498474 47.0482215,33.5581271 47.0625726,32.6115016 L46.9932676,32.6115016 C46.9794753,33.533242 46.844169,34.449133 46.5908514,35.3354633 C45.8790255,34.1670087 45.0554214,33.0704859 44.1316414,32.0613419 C44.3648668,31.191038 44.4850899,30.2943138 44.4893446,29.3932907 C44.4868326,28.7268621 44.4179323,28.0623429 44.2836653,27.4095847 C44.9371666,27.8058363 45.5380833,28.2829796 46.0721816,28.8297125 L46.1236015,28.7782748 C45.5699947,28.2113336 44.9455641,27.7182304 44.2657801,27.3111821 C43.9428674,25.77932 43.336256,24.3214301 42.4772637,23.0127796 L42.4213726,23.0507987 C43.2659833,24.3352502 43.8669576,25.7642917 44.1942394,27.2664537 C43.0561083,26.6172136 41.8064213,26.1871052 40.5098957,25.9984026 C40.2432617,24.8984496 39.7681722,23.8598743 39.1103817,22.9389776 C40.1877871,22.768203 41.286476,22.7833313 42.3587745,22.9837061 L42.3721884,22.9121406 C41.2795134,22.710746 40.1604442,22.6978874 39.0634331,22.8741214 C38.3782506,21.9253993 37.5314261,21.1047768 36.5617458,20.4498403 C37.049883,20.1768443 37.5598787,19.9449476 38.086456,19.7565495 L38.0640996,19.6872204 C37.5230574,19.8808281 36.9995092,20.1202475 36.4991478,20.4028754 C35.4008575,19.6716122 34.1813349,19.1415302 32.8975229,18.8373802 C33.0428399,18.613738 33.1926281,18.3900958 33.344652,18.1664537 L33.2887609,18.1239617 C33.1210875,18.3476038 32.9645923,18.571246 32.8170397,18.8127796 C31.947666,18.6107825 31.0580804,18.5087373 30.1655642,18.5086262 L30.0895522,18.5086262 C29.5093608,18.5115299 28.9302007,18.5578787 28.356927,18.6472843 C28.2585586,18.4236422 28.1579546,18.2 28.0484079,18.0031949 L27.9858099,18.0345048 C28.0931208,18.2357827 28.1892536,18.4460064 28.2831507,18.6584665 C26.9858885,18.8639833 25.7344909,19.2946317 24.5853931,19.9309904 C24.2099419,19.6886255 23.815127,19.4776852 23.4049723,19.3003195 L23.3781446,19.3651757 C23.7724979,19.5360962 24.1523167,19.7387864 24.5138525,19.971246 C23.3916603,20.6015968 22.3969116,21.4358982 21.5806856,22.4313099 C20.7519694,22.2410199 19.9046693,22.143509 19.0544063,22.1405751 L19.0544063,22.2099042 C19.8864498,22.2128536 20.7156444,22.3073516 21.5270301,22.4916933 C20.8229067,23.3675775 20.2883789,24.3672262 19.9509001,25.4392971 C18.7442999,25.5816646 17.5661878,25.9058898 16.4565862,26.4009585 C16.6750874,25.5411434 16.9745107,24.7039648 17.3508444,23.900639 L17.2256483,24.0683706 C16.8636586,24.8263461 16.5819246,25.6201225 16.3850456,26.4367412 C15.984865,26.6223642 15.5824489,26.828115 15.177797,27.0651757 L15.2135674,27.1277955 C15.58605,26.9083742 15.9696003,26.7083213 16.3626891,26.5284345 C16.126742,27.4625805 15.9999527,28.4209601 15.984865,29.384345 C15.984474,30.1073127 16.0594002,30.8283528 16.2084296,31.5357827 C15.3042799,32.3525213 14.5045579,33.2779669 13.8274672,34.2910543 C13.6968674,33.6416686 13.630966,32.9809274 13.6307304,32.3185304 L13.5614254,32.3185304 C13.5661106,33.0094305 13.6410175,33.6980634 13.7849899,34.3738019 C13.6284947,34.5974441 13.4742352,34.8479233 13.3244469,35.0984026 L13.3848094,35.1364217 C13.5234194,34.9127796 13.664265,34.6891374 13.8073464,34.4654952 C14.1371488,35.9813606 14.7632023,37.4170713 15.6495182,38.6900958 C15.2808431,39.4867065 14.9700288,40.3088567 14.7194897,41.1501597 C14.31246,40.4449159 13.9997772,39.6892538 13.7894612,38.9025559 L13.7201562,38.9204473 C13.9380995,39.7346114 14.2652398,40.5155068 14.692662,41.241853 C14.6635986,41.3402556 14.6322995,41.4341853 14.6054718,41.5325879 L14.6725412,41.5527157 C14.692662,41.4766773 14.7194897,41.4028754 14.7418462,41.3290735 C15.7548224,42.9787602 17.0818275,44.4133656 18.6475188,45.5514377 C18.5871563,46.1306709 18.5402078,46.7210863 18.51338,47.3159744 L18.5849207,47.3159744 C18.6087676,46.7359957 18.6527353,46.1627263 18.7168238,45.5961661 C20.0203787,46.5602236 21.4343797,47.3650725 22.9287798,47.9936102 C22.9287798,48.8300319 22.9757284,49.6955272 23.0383265,50.6035144 L23.1098671,50.6035144 C23.0450334,49.7089457 23.0114987,48.8523962 23.0025561,48.0316294 C24.49653,48.6588063 26.0586673,49.1091463 27.65717,49.3734824 C27.6772908,50.2277955 27.7041185,51.0910543 27.7465958,51.9654952 L27.8159008,51.9654952 C27.7756592,51.0977636 27.7488314,50.2434505 27.7287106,49.3913738 C28.6669234,49.5414024 29.6156212,49.6161879 30.5657447,49.615016 C31.1022996,49.615016 31.6343833,49.5881789 32.1642312,49.5456869 C32.1776451,50.4044728 32.1865877,51.2632588 32.1955303,52.1265176 L32.2648353,52.1265176 C32.2648353,51.2632588 32.2447145,50.4022364 32.2335362,49.5412141 C33.7322914,49.4085136 35.2108217,49.1038501 36.6399934,48.6332268 C36.61093,49.4383387 36.5595102,50.2680511 36.4834983,51.1313099 L36.5528033,51.1313099 C36.6310509,50.2613419 36.6824707,49.4182109 36.7137697,48.6019169 C38.1997227,48.1035637 39.6182365,47.4229815 40.936904,46.5757188 C40.9503179,47.1415335 40.9503179,47.7230032 40.936904,48.3223642 L41.0084447,48.3223642 C41.0285655,47.7051118 41.0285655,47.1057508 41.0084447,46.5220447 C42.5720207,45.5129265 43.9362098,44.2240783 45.0326065,42.7201278 C45.0496286,42.9306389 45.0555986,43.1418983 45.0504917,43.3530351 L45.1197967,43.3530351 C45.1255484,43.1120193 45.118085,42.8708693 45.0974402,42.6306709 C45.7765168,41.6734676 46.3043411,40.6174524 46.662392,39.4996805 L46.593087,39.4773163 C46.2484607,40.5623724 45.7395246,41.5881404 45.0840263,42.5188498 C44.9731551,41.5429829 44.7208627,40.5884589 44.3350851,39.6853035 C45.360628,38.4512532 46.1345756,37.0281843 46.6132078,35.4964856 Z M46.5640236,35.4159744 C46.0993817,36.9525664 45.3358187,38.382179 44.3171999,39.6226837 C43.7650519,38.3265305 43.0683315,37.0969059 42.2402853,35.9571885 C43.1033638,34.8141223 43.7407189,33.516958 44.1182275,32.1351438 C45.0367271,33.1478078 45.8557613,34.2464736 46.5640236,35.4159744 L46.5640236,35.4159744 Z M27.9634534,27.029393 C27.9636244,27.2303083 27.9999752,27.4295496 28.0707644,27.6175719 C26.7288932,28.1593461 25.4325468,28.8077443 24.1941552,29.5565495 C23.9497189,29.0296372 23.7941038,28.4659032 23.7336122,27.8881789 C25.0884133,27.54377 26.5035769,27.284345 27.9634534,27.029393 L27.9634534,27.029393 Z M28.0461723,26.9466454 L28.0461723,26.9466454 C28.0555143,26.7554195 28.0970862,26.567147 28.1691328,26.3897764 L28.1691328,26.3897764 L28.1825467,26.3204473 L28.1825467,26.3204473 C28.268809,26.1331205 28.3868006,25.9621247 28.5313074,25.815016 L28.5313074,25.815016 L28.5313074,25.815016 C28.8794939,25.4671911 29.3363837,25.2493234 29.8257461,25.1977636 L29.8592808,25.1977636 C29.9334602,25.188748 30.0081204,25.1842668 30.0828453,25.184344 C30.2193539,25.1844896 30.3555588,25.1972164 30.4897328,25.2223642 C30.4897328,25.2223642 30.4897328,25.2223642 30.4897328,25.2357827 L30.5590378,25.2492013 L30.5590378,25.2492013 C31.0402248,25.3446453 31.4719671,25.607743 31.7774646,25.9916933 C31.7774646,25.9916933 31.7774646,25.9916933 31.7774646,25.9916933 L31.8177062,26.0498403 C31.8177062,26.0498403 31.8177062,26.0498403 31.8177062,26.0498403 C32.0250733,26.3353414 32.1376719,26.67873 32.1396391,27.0316294 C32.1431079,27.0830086 32.1431079,27.1345633 32.1396391,27.1859425 L32.052449,27.1859425 L32.052449,27.2597444 L32.1351678,27.2597444 C32.0776176,27.6573286 31.8849913,28.0229717 31.5896703,28.2952077 L31.5516644,28.2616613 L31.5047158,28.313099 L31.5360149,28.3421725 C31.1319951,28.6808507 30.6187842,28.8612521 30.0917879,28.8498403 C30.0066556,28.8498903 29.921581,28.8454112 29.8369243,28.8364217 C29.8426925,28.8166043 29.8471732,28.7964344 29.8503382,28.7760383 L29.7832688,28.7603834 C29.7832688,28.7827476 29.7832688,28.8028754 29.7676193,28.827476 C29.333801,28.767568 28.9283999,28.5772752 28.6050837,28.2817891 L28.5626064,28.2258786 C28.5540179,28.2292482 28.5463546,28.2346144 28.5402499,28.2415335 C28.375227,28.0747239 28.243239,27.8781907 28.1512476,27.6623003 L28.1668971,27.6623003 L28.142305,27.5974441 L28.1266555,27.5974441 C28.057459,27.4137107 28.0218671,27.2190236 28.0215802,27.0226837 L28.0215802,27.0226837 L28.0461723,27.0226837 L28.0461723,26.9466454 Z M28.9404305,28.6597444 C28.1892536,29.9389776 27.5073817,31.1466454 26.8948149,32.3185304 C26.3284713,32.0247523 25.8092676,31.6478409 25.3544552,31.2003195 C26.3442156,30.1659239 27.4090476,29.206121 28.5402499,28.328754 C28.8748862,28.6361957 29.2952211,28.8343444 29.7452628,28.8968051 C29.4210942,30.2632588 29.132696,31.6252396 28.8823037,32.9939297 C28.2117205,32.875361 27.5623318,32.6583205 26.9551773,32.3498403 C27.5677442,31.1801917 28.249616,29.9702875 28.9985573,28.6932907 L28.9404305,28.6597444 Z M33.1188518,32.4460064 C32.4948742,32.738075 31.8311672,32.9362765 31.1492482,33.0341853 C30.9525114,31.6595314 30.7177686,30.2863685 30.4450199,28.9146965 L30.3757149,28.928115 C30.6506992,30.2968051 30.8809707,31.6699681 31.0777075,33.0408946 C30.7641624,33.0821576 30.448276,33.1030746 30.1320295,33.1035178 C29.7372342,33.1039029 29.3431093,33.0709854 28.9538443,33.0051118 C29.1997653,31.6386581 29.4903993,30.2766773 29.8145678,28.9102236 C29.9044152,28.9200274 29.9947029,28.9252525 30.0850809,28.9258786 C30.6342619,28.9302101 31.1661221,28.733775 31.5807278,28.3734824 C32.6833439,29.3163952 33.7320298,30.320646 34.7218096,31.3814696 C34.2611926,31.7977636 33.7431968,32.1457246 33.1836856,32.4146965 C32.5554692,31.1779553 31.8601834,29.9546326 31.1022996,28.7 L31.0441728,28.7380192 C31.806528,29.9837061 32.499578,31.2115016 33.1255588,32.4460064 L33.1188518,32.4460064 Z M28.8711255,33.0654952 C28.6229688,34.4453674 28.4083469,35.8252396 28.2362022,37.2207668 C27.1618421,37.0464573 26.1182302,36.7180498 25.1375975,36.2456869 C25.6450891,34.9888179 26.2420064,33.7252396 26.9261139,32.4146965 C27.5408546,32.7252918 28.1975947,32.9445323 28.8755968,33.0654952 L28.8711255,33.0654952 Z M28.9426661,33.0766773 C29.336579,33.1414415 29.7350681,33.1743488 30.1342651,33.1750799 C30.4542619,33.1757519 30.7739396,33.1548312 31.0911214,33.1124601 C31.2878582,34.4990415 31.446589,35.8878594 31.5784921,37.2833866 C31.119402,37.3410871 30.6573147,37.3717044 30.1946276,37.3750799 L30.1186156,37.3750799 C29.5122015,37.374238 28.9067645,37.3263844 28.3077428,37.2319489 C28.4821232,35.8394036 28.6952547,34.4543131 28.9471374,33.0766773 L28.9426661,33.0766773 Z M31.1604264,33.101278 C31.8501931,33.003978 32.5215775,32.8042264 33.1523865,32.5086262 C33.7887851,33.7649727 34.3508992,35.057612 34.8358275,36.3798722 C33.8224769,36.8320726 32.7484151,37.1334568 31.6477971,37.2744409 C31.5211105,35.8818956 31.3601441,34.4900958 31.1648977,33.0990415 L31.1604264,33.101278 Z M33.2149846,32.4795527 C33.7839973,32.2073505 34.3110189,31.8548766 34.7799364,31.4329073 C35.7412826,32.4722113 36.6153959,33.5889814 37.393406,34.771885 C36.642635,35.4108149 35.8066962,35.942208 34.9096038,36.3507987 C34.4238179,35.0278539 33.8594291,33.7351341 33.2194559,32.4795527 L33.2149846,32.4795527 Z M34.820178,31.3837061 C35.2652545,30.9696544 35.64247,30.4881603 35.9380008,29.956869 C37.1158494,30.7557534 38.2235185,31.6535686 39.2489917,32.6405751 C38.7868921,33.3555272 38.232932,34.0066751 37.601321,34.5773163 L37.4269406,34.7271565 C36.6539335,33.5422427 35.7834864,32.4238833 34.8246493,31.3837061 L34.820178,31.3837061 Z M34.7754651,31.3322684 C33.7887255,30.2723269 32.7438102,29.2681133 31.6455615,28.3242812 C31.7947809,28.182888 31.9201109,28.0182409 32.0166786,27.8367412 C33.3793097,28.3958091 34.6812575,29.0927204 35.9022304,29.9166134 C35.6036692,30.4437862 35.2250573,30.921365 34.7799364,31.3322684 L34.7754651,31.3322684 Z M32.0412707,27.7763578 C32.120229,27.6087275 32.1730082,27.4299703 32.1977659,27.2463259 C33.6608924,27.2925472 35.1165756,27.4744772 36.5460963,27.7897764 C36.4860291,28.5142659 36.2750845,29.2181665 35.9268225,29.85623 C34.708007,29.0313777 33.4074401,28.3344035 32.045742,27.7763578 L32.0412707,27.7763578 Z M28.0931208,27.6846645 C28.1858804,27.9069367 28.3210475,28.108998 28.4910657,28.2795527 C27.3621237,29.1587855 26.2981669,30.1184729 25.3075066,31.1511182 C24.8632479,30.7053384 24.4967503,30.1882839 24.2232186,29.6214058 C25.4600874,28.8718828 26.7558114,28.2241698 28.0975921,27.6846645 L28.0931208,27.6846645 Z M25.2627937,31.2047923 C24.2834339,32.2339146 23.3920177,33.3433352 22.5979043,34.5214058 C21.8523929,33.8391944 21.2200139,33.0427845 20.7244334,32.1619808 C21.7977145,31.2312971 22.9479787,30.3933626 24.1628561,29.6571885 C24.4424968,30.2297189 24.8140696,30.7525191 25.2627937,31.2047923 L25.2627937,31.2047923 Z M25.3119779,31.25623 C25.7717751,31.7027842 26.2945081,32.0795237 26.8635158,32.3744409 C26.1928222,33.684984 25.5847266,34.9485623 25.0749995,36.2054313 C24.194272,35.7724793 23.3779163,35.2192721 22.6493241,34.5616613 C23.4417702,33.3858483 24.3333172,32.280006 25.3142135,31.25623 L25.3119779,31.25623 Z M25.0504074,36.2792332 C24.5339107,37.5523406 24.1073454,38.8601312 23.7738538,40.1929712 C22.6418907,39.6993558 21.5773612,39.0635726 20.6059442,38.3009585 C21.167033,37.019199 21.84035,35.7895946 22.6180251,34.6265176 C23.3485917,35.2882462 24.1680647,35.8445371 25.052643,36.2792332 L25.0504074,36.2792332 Z M25.1130054,36.3127796 C26.0991615,36.7879725 27.148869,37.117909 28.2294952,37.2923323 C28.0618218,38.6341853 27.9321544,39.9760383 27.8360216,41.3536741 C26.4595064,41.1545223 25.1153923,40.774009 23.8386875,40.2220447 C24.1742168,38.891252 24.6007387,37.5850888 25.1152411,36.3127796 L25.1130054,36.3127796 Z M28.3010359,37.301278 C28.9030137,37.3963727 29.5114161,37.444972 30.1208513,37.4466454 L30.1968632,37.4466454 C30.6617764,37.4431936 31.1260911,37.412577 31.5874347,37.3549521 C31.7148665,38.7124601 31.8109992,40.0766773 31.8914825,41.4408946 C31.3381078,41.4975989 30.7821969,41.525964 30.2259266,41.5258794 C29.4495179,41.5261172 28.6740596,41.4715622 27.9053266,41.3626198 C28.003695,39.9939297 28.1355981,38.643131 28.3032715,37.301278 L28.3010359,37.301278 Z M31.6545041,37.3460064 C32.7662876,37.2081845 33.8517601,36.9075225 34.8760692,36.4536741 C35.350267,37.76723 35.7320041,39.1123679 36.018484,40.4792332 C34.7185518,40.9763728 33.3587168,41.2997183 31.9742014,41.4408946 C31.8907373,40.0707135 31.7864071,38.7064963 31.661211,37.3482428 L31.6545041,37.3460064 Z M34.9230177,36.4178914 C35.8262185,36.0079878 36.6675484,35.4735052 37.4224693,34.8300319 C38.203302,36.0325776 38.8609273,37.3108218 39.3853661,38.6453674 C38.3602595,39.3821167 37.2444012,39.9834612 36.0654326,40.4345048 C35.7813592,39.0706803 35.4018557,37.7285051 34.9297247,36.4178914 L34.9230177,36.4178914 Z M37.4761248,34.7853035 C37.5364873,34.7316294 37.5968497,34.6824281 37.6572121,34.6265176 C38.2913009,34.0570408 38.846883,33.4057537 39.3093541,32.6897764 C40.3501301,33.6924949 41.2995592,34.7859524 42.1463882,35.9571885 C41.3778114,36.9635668 40.4682395,37.8538708 39.4457285,38.600639 C38.9207103,37.2663557 38.2631142,35.9881684 37.4828318,34.7853035 L37.4761248,34.7853035 Z M39.3473601,32.629393 C39.9902234,31.6265439 40.4201663,30.5022145 40.6104998,29.3261981 C41.8927467,30.0596696 43.0546873,30.9859243 44.0556294,32.072524 C43.6845338,33.4560184 43.0507549,34.7551468 42.1888655,35.8990415 C41.3399111,34.7274882 40.389038,33.6333425 39.3473601,32.629393 L39.3473601,32.629393 Z M39.2959402,32.5801917 C38.2702113,31.5925688 37.1617454,30.6947139 35.9827137,29.8964856 C36.3359446,29.2509106 36.5506687,28.5387234 36.6131657,27.8054313 C37.9889648,28.1153805 39.3142938,28.6175392 40.5501373,29.2971246 C40.3628593,30.4652356 39.9382977,31.5825703 39.3026472,32.5801917 L39.2959402,32.5801917 Z M36.6131657,27.7338658 C36.6131657,27.6086262 36.6288152,27.4833866 36.6288152,27.358147 C36.6287602,26.8934402 36.5663501,26.4308434 36.4432566,25.9827476 C37.7680952,25.8495378 39.1041258,25.8758172 40.4227056,26.0610224 C40.5650826,26.6689285 40.6400566,27.2906791 40.6462701,27.915016 C40.6476623,28.3491391 40.616274,28.7827473 40.552373,29.2121406 C39.3193046,28.5376772 37.9978666,28.0393311 36.6265796,27.7316294 L36.6131657,27.7338658 Z M36.5572746,27.358147 C36.5572746,27.4789137 36.5572746,27.5974441 36.5438607,27.7182109 C35.1147815,27.405082 33.6599728,27.2239163 32.1977659,27.1769968 C32.1977659,27.1233227 32.1977659,27.071885 32.1977659,27.0182109 C32.1959522,26.9184502 32.1862339,26.8189905 32.1687025,26.7207668 C33.5467516,26.3737094 34.9486128,26.1292702 36.3627734,25.9894569 C36.4934161,26.4342302 36.5633544,26.8946291 36.5706884,27.358147 L36.5572746,27.358147 Z M32.1642312,26.6514377 C32.1118595,26.4154658 32.0122317,26.1925568 31.8713617,25.9961661 C32.9686678,25.2281539 34.1382289,24.5690174 35.3634399,24.028115 C35.8150343,24.5876393 36.1523009,25.2304921 36.3560665,25.9201278 C34.9471281,26.060422 33.5505046,26.3048599 32.1776451,26.6514377 L32.1642312,26.6514377 Z M31.8288844,25.9402556 C31.7029465,25.775483 31.5520908,25.6313658 31.3817553,25.513099 C32.0818991,24.4759457 32.872695,23.5030114 33.7448326,22.6057508 C34.3391688,22.9696179 34.8681803,23.4307737 35.3097844,23.9699681 C34.092154,24.5122635 32.9307442,25.1729464 31.8422983,25.942492 L31.8288844,25.9402556 Z M31.3213929,25.4750799 C31.0910215,25.3269119 30.8357845,25.2215995 30.5679804,25.1642173 C30.7865828,24.0015905 31.0922369,22.8570456 31.4823594,21.7402556 C32.2576443,21.889097 33.001702,22.1697284 33.6822345,22.5699681 C32.8154861,23.4670513 32.029936,24.4392264 31.3348068,25.4750799 L31.3213929,25.4750799 Z M30.4986754,25.1507987 C30.359984,25.125647 30.2193259,25.1129235 30.078374,25.1127796 C30.0001264,25.1127796 29.9263501,25.1127796 29.8548095,25.1127796 C29.7328334,23.948288 29.5447353,22.7916805 29.2914268,21.6485623 C30.0000774,21.5625936 30.7176556,21.5844602 31.4197613,21.7134185 C31.0304107,22.8345001 30.7269759,23.9836164 30.5120892,25.1507987 L30.4986754,25.1507987 Z M29.7810332,25.1329073 C29.52954,25.1666242 29.2854628,25.2422161 29.0589197,25.3565495 L28.8062917,24.9428115 C28.2762179,24.0337301 27.6947513,23.1556273 27.0647239,22.3127796 C27.7430886,21.9858451 28.4703229,21.7720562 29.2176505,21.6798722 C29.4739699,22.8192559 29.6665347,23.9720595 29.794447,25.1329073 L29.7810332,25.1329073 Z M28.7459293,24.9674121 L28.9963216,25.3789137 C28.819023,25.4716458 28.6563167,25.5899503 28.5134222,25.7300319 C27.4245208,25.0025497 26.2935435,24.3401569 25.1264193,23.7463259 C25.6581314,23.1629478 26.2943264,22.6843085 27.0021259,22.3351438 C27.6367032,23.178939 28.2233676,24.0577478 28.7593432,24.9674121 L28.7459293,24.9674121 Z M28.4620023,25.7792332 C28.3124263,25.9338741 28.1906587,26.1131842 28.1020634,26.3092652 L27.2569894,26.1303514 C26.2487133,25.9067093 25.1666609,25.6830671 24.0287174,25.5265176 C24.2700949,24.893057 24.6246239,24.3087903 25.0749995,23.8022364 C26.2468692,24.3928108 27.3823699,25.052989 28.4754162,25.7792332 L28.4620023,25.7792332 Z M27.2435756,26.1996805 C27.5275025,26.2623003 27.8024869,26.3182109 28.0752357,26.3763578 C28.0014693,26.561769 27.9598852,26.7584168 27.9522752,26.9578275 C26.490163,27.2060703 25.0727638,27.4722045 23.7045488,27.8188498 C23.7045488,27.6667732 23.6821917,27.5146965 23.6821917,27.358147 C23.6818987,26.7561252 23.7878549,26.1587789 23.9951827,25.5936102 C25.1577184,25.7479233 26.244242,25.9805112 27.2569894,26.1996805 L27.2435756,26.1996805 Z M23.6218299,27.358147 C23.6218299,27.5191693 23.6218299,27.6779553 23.6441864,27.8367412 C22.2908126,28.170821 20.9724853,28.6336314 19.7072147,29.2188498 C19.648854,28.8308647 19.6174796,28.4392957 19.6133176,28.0469649 C19.6084742,27.1879482 19.7359093,26.333309 19.9911417,25.513099 C21.3020597,25.3726072 22.625395,25.3966489 23.930349,25.5846645 C23.7311831,26.1545584 23.631363,26.7544429 23.6352438,27.358147 L23.6218299,27.358147 Z M23.6508933,27.9083067 C23.7125501,28.4921519 23.8720187,29.0614485 24.1226145,29.5923323 C22.9057305,30.3292781 21.7539217,31.1687444 20.6797205,32.1015974 C20.2035944,31.2288222 19.8828435,30.2798566 19.7318068,29.2971246 C20.9953076,28.7096482 22.312154,28.2445854 23.6643072,27.9083067 L23.6508933,27.9083067 Z M20.6238294,32.157508 C19.5716363,33.0765314 18.6130769,34.0976018 17.7622032,35.2057508 C17.047026,34.0964605 16.5387711,32.8666779 16.2620851,31.5760383 C17.2820979,30.6750969 18.4237853,29.9222401 19.6535592,29.3396166 C19.8181535,30.3253948 20.1508916,31.2755408 20.6372432,32.1485623 L20.6238294,32.157508 Z M20.6595997,32.2201278 C21.1606506,33.1042096 21.7982215,33.9035257 22.5487201,34.5884984 C21.7703203,35.7511354 21.0969672,36.9808058 20.5366392,38.2629393 C19.4694749,37.4184241 18.5454653,36.407249 17.8002091,35.2683706 C18.6542815,34.1546456 19.6165854,33.1283311 20.6730136,32.2044728 L20.6595997,32.2201278 Z M20.5098114,38.3300319 C19.9708322,39.5923786 19.5414935,40.8987997 19.226551,42.2348243 C17.8773599,41.2505863 16.6971805,40.0533797 15.7322371,38.6900958 C16.2910969,37.4969229 16.9737355,36.365793 17.7689101,35.3153355 C18.5204297,36.4581455 19.4503492,37.4729554 20.5232253,38.3210863 L20.5098114,38.3300319 Z M20.5657026,38.3769968 C21.5458359,39.1362256 22.6186326,39.7675015 23.7582043,40.2555911 C23.4247145,41.6147165 23.1937929,42.9969895 23.0673899,44.3907348 C21.725211,43.8362593 20.4538554,43.1237827 19.2802064,42.2683706 C19.6018545,40.9337774 20.0363906,39.6289684 20.5791165,38.3680511 L20.5657026,38.3769968 Z M23.8096241,40.3003195 C25.0907287,40.8530222 26.4393729,41.2335411 27.8203721,41.4319489 C27.7220037,42.8230032 27.6601508,44.2341853 27.6348135,45.6654952 C26.0855491,45.4419326 24.5696062,45.0288281 23.1210453,44.4354633 C23.2506869,43.0384263 23.4853484,41.6531437 23.823038,40.2913738 L23.8096241,40.3003195 Z M27.8896771,41.4408946 C29.2138442,41.6312018 30.5564134,41.6574916 31.8870112,41.5191693 C31.9674944,42.9392971 32.0233856,44.3616613 32.0658628,45.7884984 C31.5069515,45.8376997 30.9368619,45.8667732 30.362301,45.8667732 C29.4727944,45.8660059 28.5844768,45.8017318 27.7041185,45.6744409 C27.7443602,44.2364217 27.8024869,42.8252396 27.903091,41.4319489 L27.8896771,41.4408946 Z M31.9563162,41.5124601 C33.3425445,41.3698609 34.7043172,41.0473425 36.0073058,40.5530351 C36.297585,41.9699835 36.488083,43.4055666 36.5773954,44.8492013 C35.138255,45.3305586 33.6484106,45.6442399 32.1374035,45.7840256 C32.1083401,44.3482428 32.0502133,42.9214058 31.9697301,41.5035144 L31.9563162,41.5124601 Z M36.0743751,40.5239617 C37.2576753,40.0690404 38.3773026,39.4631794 39.4054869,38.7214058 C39.9395878,40.0839636 40.3343314,41.4971418 40.583672,42.9392971 C39.3566909,43.7181023 38.040981,44.3472795 36.6645855,44.8134185 C36.572778,43.3689134 36.3800418,41.9326049 36.087789,40.515016 L36.0743751,40.5239617 Z M39.4658493,38.6811502 C40.5011072,37.9272932 41.4207244,37.0261924 42.1955724,36.0063898 C43.025135,37.1487418 43.719821,38.3832506 44.2657801,39.6853035 C43.2320425,40.9344242 42.0101542,42.0148882 40.6440345,42.8878594 C40.3994732,41.4468128 40.0092129,40.0343445 39.4792632,38.6722045 L39.4658493,38.6811502 Z M44.1830612,27.3693291 C44.3262452,28.0376371 44.4011517,28.7187735 44.4066289,29.4022364 C44.4073017,30.2718389 44.2991498,31.1381058 44.0846928,31.9808307 C43.0814463,30.8930837 41.9145389,29.9687411 40.6261493,29.2412141 C40.7890846,28.1848456 40.7496321,27.1071128 40.5098957,26.0654952 C41.8103979,26.2566229 43.0620011,26.6962408 44.1964751,27.3603834 L44.1830612,27.3693291 Z M40.4048204,25.9939297 C39.0858728,25.8126285 37.7501304,25.7878562 36.4253715,25.9201278 C36.222735,25.224603 35.8854725,24.5756793 35.4327449,24.0102236 C36.5751331,23.508434 37.7773656,23.1559072 39.0097776,22.9613419 C39.667575,23.8702363 40.1456387,24.8965323 40.4182343,25.984984 L40.4048204,25.9939297 Z M38.9561221,22.8942492 C37.7241228,23.0952846 36.5223278,23.4506886 35.3790894,23.9520767 C34.9318224,23.402689 34.3933698,22.9344055 33.7873098,22.5677316 C34.5804846,21.7601463 35.4791542,21.0635295 36.4589062,20.4968051 C37.4287075,21.1403069 38.2784092,21.9486742 38.969536,22.8853035 L38.9561221,22.8942492 Z M36.4141932,20.4408946 C35.4420444,21.0145408 34.5491434,21.7130198 33.7582464,22.5185304 C33.0680696,22.1083643 32.3114295,21.822255 31.522601,21.6731629 C31.8616115,20.7034296 32.3038279,19.7729532 32.8416318,18.8977636 C34.114075,19.19755 35.3235331,19.719963 36.4141932,20.4408946 Z M30.0828453,18.5846626 L30.1588572,18.5846626 C31.037617,18.5841586 31.9136084,18.683192 32.7700911,18.8798722 C32.2344319,19.757011 31.7923307,20.6879946 31.4510603,21.657508 C31.0181324,21.5781591 30.5788708,21.5384845 30.1387364,21.5389776 C29.8532934,21.5390649 29.5681113,21.5562415 29.2847199,21.5904153 C29.0701058,20.6085933 28.7670562,19.6482289 28.3792835,18.7210863 C28.9431191,18.6346909 29.5124507,18.5890986 30.0828453,18.5846626 Z M28.3077428,18.7345048 C28.6896891,19.6604438 28.9889433,20.6183896 29.202001,21.5971246 C28.4457559,21.693521 27.7102735,21.9125804 27.0244823,22.2456869 C26.3566836,21.3651968 25.549387,20.5999252 24.6345773,19.9801917 C25.7777674,19.3556577 27.0205709,18.9341837 28.3077428,18.7345048 L28.3077428,18.7345048 Z M24.5764505,20.0204473 C25.493454,20.6362751 26.303104,21.3986077 26.9730625,22.2769968 C26.2553201,22.6332623 25.6107436,23.1210347 25.0727638,23.715016 C23.9839151,23.167121 22.8363815,22.744712 21.6522263,22.4559105 C22.4667792,21.4689371 23.4585452,20.642937 24.5764505,20.0204473 L24.5764505,20.0204473 Z M21.6052777,22.5162939 C22.788954,22.8012402 23.935929,23.2214685 25.0235796,23.7686901 C24.5705479,24.2829028 24.2138521,24.874572 23.9705906,25.5153355 C22.664331,25.3261292 21.3396462,25.2998367 20.026912,25.4370607 C20.3669089,24.3737654 20.9021844,23.3832377 21.6052777,22.5162939 L21.6052777,22.5162939 Z M16.0429918,29.3932907 C16.0587279,28.4121611 16.190047,27.436309 16.4342298,26.4859425 C17.5425527,25.9869233 18.7198518,25.6581905 19.926308,25.5108626 C19.6763438,26.3289833 19.5519667,27.1803197 19.5574265,28.0357827 C19.5620529,28.4401394 19.5949224,28.8436784 19.6557949,29.2434505 C18.423908,29.8247421 17.280564,30.5776986 16.2598494,31.4798722 C16.1168149,30.7935326 16.0441528,30.0943855 16.0429918,29.3932907 Z M13.8386454,34.3984026 C14.5123633,33.3786894 15.3106998,32.4470986 16.2151365,31.6252396 C16.4989484,32.9158414 17.0115531,34.1451564 17.7286685,35.2549521 C16.9318216,36.3023673 16.2469511,37.4304724 15.6852885,38.6207668 C14.7966764,37.349318 14.1690158,35.9141669 13.8386454,34.3984026 L13.8386454,34.3984026 Z M14.7686739,41.2284345 C15.0186868,40.3869538 15.3295153,39.5647661 15.6987024,38.7683706 C16.6673757,40.1314934 17.8504612,41.3285845 19.2019589,42.313099 C18.9557606,43.3511933 18.7743233,44.4035964 18.658697,45.4642173 C17.0937797,44.324625 15.7713894,42.8846957 14.7686739,41.2284345 L14.7686739,41.2284345 Z M18.7235307,45.5111821 C18.8395117,44.4470697 19.0201884,43.3910136 19.2645569,42.3488818 C20.4414963,43.2060468 21.7175984,43.9179085 23.0651542,44.4690096 C22.9667858,45.5648562 22.9243085,46.7054313 22.9354868,47.9108626 C21.4407885,47.2820067 20.0267383,46.476379 18.7235307,45.5111821 L18.7235307,45.5111821 Z M23.0003205,47.9421725 C23.0003205,46.7345048 23.0316195,45.5939297 23.1299879,44.5003195 C24.57973,45.0920075 26.096296,45.5043262 27.6459918,45.728115 C27.6251257,46.8970181 27.6251257,48.084558 27.6459918,49.2907348 C26.0501252,49.024143 24.4909521,48.5715406 23.0003205,47.9421725 Z M30.5657447,49.5367529 C29.614141,49.5378277 28.6639643,49.4630435 27.7242393,49.313099 C27.6996472,48.1054313 27.695176,46.9178914 27.7242393,45.7348243 C28.6046431,45.8614426 29.4929659,45.9249697 30.3824218,45.9249201 C30.9569827,45.9249201 31.5270723,45.9025559 32.0882193,45.8533546 C32.1239896,47.0498403 32.1508174,48.2552716 32.1687025,49.4607029 C31.6343833,49.5076677 31.1022996,49.5367529 30.5657447,49.5367529 Z M32.2335362,49.4584665 C32.2141606,48.2507987 32.1873329,47.0468584 32.153053,45.8466454 C33.6655281,45.7104485 35.1566123,45.3959134 36.5952805,44.9095847 C36.6668212,46.0658147 36.686942,47.271246 36.6444647,48.5415335 C35.214835,49.0178467 33.7345058,49.3255738 32.2335362,49.4584665 L32.2335362,49.4584665 Z M36.7048272,48.5191693 C36.7473044,47.2488818 36.7294193,46.0412141 36.655643,44.8894569 C38.036559,44.419206 39.356664,43.7863265 40.5881433,43.0041534 C40.781342,44.1548578 40.8941428,45.3176319 40.9257258,46.4840256 C39.6144797,47.3425995 38.1990606,48.0302631 36.7137697,48.5303514 L36.7048272,48.5191693 Z M45.0214283,42.6194888 C43.9279991,44.1309895 42.563478,45.426218 40.9972664,46.4392971 C40.9639281,45.2735577 40.8496348,44.1115458 40.6552127,42.9616613 C42.0255355,42.0881705 43.2518801,41.007013 44.2903722,39.756869 C44.677112,40.669246 44.9264895,41.633941 45.0303708,42.6194888 L45.0214283,42.6194888 Z" id="Shape" fill="#FFFFFF"></path>
                <path d="M28.9672582,52.1086262 C20.2616548,51.3549521 13.3646886,43.7421725 13.3646886,34.7674121 C13.3646886,31.0728435 14.8223294,27.8971246 16.5415408,24.9271565 C20.1208091,18.772524 39.5709246,8.02875399 59.5374742,0 C54.8873317,0.932587859 45.855324,3.75495208 40.9525535,5.30031949 C32.6560732,7.91693291 24.9162686,11.099361 18.3322928,14.5635783 C17.3933217,15.0913738 16.5437764,15.458147 14.5540519,16.6479233 C4.61437223,22.5878594 -1.36150808,30.8916933 0.26604181,37.7261981 C1.51129633,42.9504792 7.04899013,47.3875399 14.7798521,49.8632588 C18.6877604,51.0239617 23.1344592,51.9677316 27.8226077,52.1734824 C28.218317,52.1734824 28.4933014,52.1444089 28.886775,52.1466454 L28.9672582,52.1086262 Z" id="Path" fill="#004987"></path>
                <path d="M31.5762565,17.9271565 C40.2840955,18.6808307 47.2257747,26.2332268 47.2257747,35.2102236 C47.2257747,38.9047923 45.8843874,42.0805112 44.171883,45.0504792 C40.5993215,51.1916933 21.0150673,61.9488818 1.04851772,69.9664537 C5.69866028,69.0338658 14.7306679,66.213738 19.6312028,64.6661342 C27.9321544,62.0495208 35.6697233,58.8693291 42.2626418,55.4028754 C43.2016129,54.8750799 44.0511581,54.5083067 46.0408826,53.3185304 C55.9693841,47.3696486 61.9497357,39.0747604 60.3221858,32.2380192 C59.0746956,27.0159744 53.5392375,22.5811502 45.8061398,20.1031949 C41.8982316,18.9447284 37.5342516,18.0099042 32.8393962,17.8533546 C32.4194161,17.8428143 31.999177,17.8562547 31.5807278,17.8936102 L31.5762565,17.9271565 Z" id="Path" fill="#00754A"></path>
                <path d="M130.765139,21.45623 L131.066951,20.8277955 L131.569971,20.8277955 C131.458371,20.5806575 131.403376,20.3116998 131.409004,20.0405751 C131.409004,19.0386581 132.079698,18.6853026 132.638609,18.6853026 C133.063258,18.6848123 133.464622,18.8793808 133.727369,19.213099 L133.776553,19.2734824 L133.371901,19.7543131 L133.304832,19.6894569 C133.129435,19.4928669 132.893347,19.3606114 132.634138,19.313738 C132.274199,19.313738 132.057342,19.584345 132.057342,20.0405751 C132.057342,20.5683706 132.245136,20.8277955 132.634138,20.8277955 L133.879393,20.8277955 L133.559695,21.45623 L130.765139,21.45623 Z" id="Path" fill="#00754A"></path>
                <polygon id="Path" fill="#00754A" points="68.8377593 44.9699681 68.8377593 36.8182109 73.4476603 36.8182109 73.4476603 37.9230032 70.0494792 37.9230032 70.0494792 40.3070288 73.3291711 40.3070288 73.3291711 41.4095847 70.0494792 41.4095847 70.0494792 43.8629393 73.5527356 43.8629393 73.5527356 44.9699681 68.8377593 44.9699681"></polygon>
                <path d="M75.9851179,39.4974441 L76.0119456,39.4974441 C76.4530654,38.9151302 77.1351561,38.5653242 77.8652957,38.5469649 C79.0390096,38.5469649 79.9779807,39.3587859 79.9779807,41.0741214 L79.9779807,44.9386581 L78.7483757,44.9386581 L78.7483757,41.0584665 C78.7483757,40.1392971 78.2788901,39.5376997 77.5321845,39.5376997 C76.993394,39.5376997 76.56415,39.7904153 75.9851179,40.4456869 L75.9851179,44.9386581 L74.7532772,44.9386581 L74.7532772,38.6766773 L75.9851179,38.6766773 L75.9851179,39.4974441 L75.9851179,39.4974441 Z" id="Path" fill="#00754A"></path>
                <polygon id="Path" fill="#00754A" points="80.6598525 38.6766773 81.9990042 38.6766773 83.671267 42.5255591 85.3032882 38.6766773 86.615612 38.6766773 83.879182 45.0661342 83.4655876 45.0661342 80.6598525 38.6766773"></polygon>
                <path d="M88.7998376,44.9386581 L87.567997,44.9386581 L87.567997,38.6766773 L88.7998376,38.6766773 L88.7998376,44.9386581 Z M88.1917421,37.5159744 C87.8918452,37.5186936 87.6199632,37.3400703 87.5033093,37.0636822 C87.3866553,36.7872941 87.4483002,36.4678028 87.6594005,36.2546978 C87.8705007,36.0415928 88.1893066,35.9770202 88.4666494,36.0911935 C88.7439923,36.2053667 88.9250338,36.4757055 88.9250338,36.7757188 C88.9238416,37.1814461 88.5973009,37.5110879 88.1917421,37.5159744 L88.1917421,37.5159744 Z" id="Shape" fill="#00754A"></path>
                <path d="M91.8850284,38.6766773 L91.8850284,40.1102236 L91.9140918,40.1102236 C92.5356012,39.0121406 93.1280473,38.5447284 93.7026081,38.5447284 C94.2033927,38.5447284 94.6706426,38.786262 95.1803698,39.2715655 L94.529797,40.3450479 C94.1586798,39.984984 93.6757804,39.7322684 93.3851465,39.7322684 C92.5423081,39.7322684 91.8783214,40.5821086 91.8783214,41.6578275 L91.8783214,44.9364217 L90.6464808,44.9364217 L90.6464808,38.6744409 L91.8850284,38.6766773 Z" id="Path" fill="#00754A"></path>
                <path d="M96.5798838,41.7450479 C96.5798838,43.0690096 97.3958944,43.9479233 98.5919648,43.9479233 C99.8908748,43.9479233 100.70465,43.1092652 100.70465,41.7584665 C100.721851,41.1946603 100.504107,40.6490503 100.103486,40.2521065 C99.702864,39.8551626 99.1553848,39.6425738 98.5919648,39.6651757 C97.4294291,39.6651757 96.5798838,40.5440895 96.5798838,41.7450479 L96.5798838,41.7450479 Z M101.958847,41.7450479 C101.958847,43.7242812 100.588396,45.0661342 98.6053786,45.0661342 C96.6983731,45.0661342 95.3301484,43.6683706 95.3301484,41.7450479 C95.3280396,40.8825474 95.6749957,40.0559135 96.2919915,39.4534491 C96.9089873,38.8509847 97.7434807,38.5239944 98.6053786,38.5469649 C100.554861,38.5469649 101.958847,39.8888179 101.958847,41.7450479 L101.958847,41.7450479 Z" id="Shape" fill="#00754A"></path>
                <path d="M104.53431,39.4974441 L104.563374,39.4974441 C105.002441,38.9150501 105.68328,38.5650418 106.412253,38.5469649 C107.588202,38.5469649 108.527173,39.3587859 108.527173,41.0741214 L108.527173,44.9386581 L107.310982,44.9386581 L107.310982,41.0584665 C107.310982,40.1392971 106.839261,39.5376997 106.092555,39.5376997 C105.556,39.5376997 105.124521,39.7904153 104.545489,40.4456869 L104.545489,44.9386581 L103.315884,44.9386581 L103.315884,38.6766773 L104.545489,38.6766773 L104.545489,39.4974441 L104.53431,39.4974441 Z" id="Path" fill="#00754A"></path>
                <path d="M111.420098,38.6766773 L111.420098,39.4974441 C112.052786,38.8555911 112.649703,38.5469649 113.228736,38.5469649 C114.010934,38.5404607 114.728813,38.9793169 115.07985,39.6785942 C115.616405,39.0658147 116.269213,38.5469649 117.154529,38.5469649 C118.413197,38.5469649 119.213558,39.5242812 119.213558,41.0070288 L119.213558,44.9408946 L117.986189,44.9408946 L117.986189,41.0584665 C117.986189,40.1102236 117.404921,39.5936102 116.698457,39.5936102 C116.298277,39.5801917 115.757251,39.9313099 115.316828,40.3920128 L115.316828,44.9386581 L114.087223,44.9386581 L114.087223,41.0472843 C114.087223,40.027476 113.573025,39.5936102 112.969401,39.5936102 C112.365776,39.5936102 111.932061,39.7904153 111.422334,40.3920128 L111.422334,44.9386581 L110.190493,44.9386581 L110.190493,38.6766773 L111.420098,38.6766773 Z" id="Path" fill="#00754A"></path>
                <path d="M124.972581,41.172524 C124.934575,40.2220447 124.393549,39.6226837 123.526119,39.6226837 C122.584912,39.6226837 122.019294,40.1817891 121.849384,41.172524 L124.972581,41.172524 Z M126.090404,44.3236422 C125.368849,44.8370137 124.498179,45.0979911 123.613309,45.0661342 C121.679475,45.0661342 120.601894,43.458147 120.601894,41.7316294 C120.601894,39.8329073 121.789022,38.5469649 123.508233,38.5469649 C125.153668,38.5469649 126.204422,39.6785942 126.204422,41.9932907 L121.827028,41.9932907 C122.023765,43.2367412 122.721286,43.8763578 123.912885,43.8763578 C124.659591,43.8763578 125.363819,43.5990415 126.088168,43.1249201 L126.088168,44.3236422 L126.090404,44.3236422 Z" id="Shape" fill="#00754A"></path>
                <path d="M128.72623,39.4974441 L128.755293,39.4974441 C129.195763,38.9143559 129.878255,38.5643444 130.608643,38.5469649 C131.782357,38.5469649 132.719093,39.3587859 132.719093,41.0741214 L132.719093,44.9386581 L131.489488,44.9386581 L131.489488,41.0584665 C131.489488,40.1392971 131.020002,39.5376997 130.275532,39.5376997 C129.734506,39.5376997 129.307498,39.7904153 128.72623,40.4456869 L128.72623,44.9386581 L127.496625,44.9386581 L127.496625,38.6766773 L128.72623,38.6766773 L128.72623,39.4974441 L128.72623,39.4974441 Z" id="Path" fill="#00754A"></path>
                <path d="M135.873588,38.6766773 L137.83425,38.6766773 L137.83425,39.7948882 L135.873588,39.7948882 L135.873588,43.0041534 C135.873588,43.7444089 136.396729,43.9523962 136.767847,43.9523962 C137.268562,43.9326643 137.753593,43.7722231 138.167361,43.4894569 L138.167361,44.6501597 C137.704327,44.8949953 137.194458,45.0383266 136.671714,45.070607 C135.330327,45.070607 134.659633,44.2319489 134.659633,43.1003195 L134.659633,39.7904153 L133.582052,39.7904153 L133.582052,39.6517572 L135.891474,37.3773163 L135.891474,38.6766773 L135.873588,38.6766773 Z" id="Path" fill="#00754A"></path>
                <path d="M147.087586,41.4789137 L145.842332,38.6565495 L144.686503,41.4789137 L147.087586,41.4789137 Z M148.674894,44.9699681 L147.579428,42.5680511 L144.196896,42.5837061 L143.213212,44.9520767 L141.965722,44.9722045 L145.426501,36.7913738 L146.264869,36.771246 L149.895557,44.9722045 L148.674894,44.9699681 Z" id="Shape" fill="#00754A"></path>
                <path d="M152.737062,39.7479233 C152.087201,39.7263604 151.540038,40.2299256 151.507457,40.8795527 C151.507457,41.5616613 152.00377,42.0246006 152.752712,42.0246006 C153.069442,42.0391499 153.377831,41.9205891 153.603299,41.6975913 C153.828767,41.4745936 153.950784,41.1674639 153.939839,40.8504792 C153.903784,40.2176566 153.370401,39.7287171 152.737062,39.7479233 L152.737062,39.7479233 Z M152.4196,45.2428115 C151.590176,45.2428115 151.011144,45.6364217 151.011144,46.1932907 C151.011144,46.8217252 151.619239,47.1571885 152.737062,47.1571885 C153.816879,47.1571885 154.454038,46.8217252 154.454038,46.2514377 C154.454038,45.4552716 153.181956,45.2428115 152.4196,45.2428115 Z M155.667993,39.6383387 L154.398147,39.6383387 C154.881046,40.1258786 155.046484,40.472524 155.046484,41.0047923 C155.021981,41.5279199 154.817413,42.026481 154.467452,42.4159744 C153.638027,43.3105431 151.950115,42.8632588 151.950115,43.5990415 C151.950115,43.9479233 152.596216,44.1559105 153.845942,44.4063898 C155.17168,44.6747604 155.634459,45.356869 155.634459,46.1530351 C155.634459,47.3942492 154.543464,48.1479233 152.703527,48.1479233 C151.0335,48.1479233 149.841901,47.3517572 149.841901,46.2514377 C149.841901,45.3300319 150.324801,44.784345 151.406853,44.5204473 C150.979845,44.2520767 150.787579,44.0038339 150.787579,43.7242812 C150.787579,43.3194888 151.174346,42.970607 151.769028,42.8297125 L151.769028,42.8028754 C151.356569,42.6391616 150.998052,42.3634026 150.733924,42.0067093 C150.503298,41.659516 150.386122,41.249257 150.398577,40.8325879 C150.398577,39.4907348 151.438152,38.6744409 153.108179,38.6744409 L155.667993,38.6744409 L155.667993,39.6361022 L155.667993,39.6383387 Z" id="Shape" fill="#00754A"></path>
                <path d="M160.702667,41.172524 C160.657954,40.2220447 160.121399,39.6226837 159.247262,39.6226837 C158.310526,39.6226837 157.742672,40.1817891 157.577235,41.172524 L160.702667,41.172524 Z M161.807076,44.3236422 C161.086135,44.8365412 160.216329,45.0974951 159.332216,45.0661342 C157.396147,45.0661342 156.320802,43.458147 156.320802,41.7316294 C156.320802,39.8329073 157.50793,38.5469649 159.227141,38.5469649 C160.872576,38.5469649 161.925565,39.6785942 161.925565,41.9932907 L157.550407,41.9932907 C157.742672,43.2367412 158.444665,43.8763578 159.636264,43.8763578 C160.418527,43.8477219 161.174424,43.5860646 161.807076,43.1249201 L161.807076,44.3236422 Z" id="Shape" fill="#00754A"></path>
                <path d="M164.445137,39.4974441 L164.476436,39.4974441 C164.91555,38.9139244 165.59762,38.5637068 166.327551,38.5469649 C167.501265,38.5469649 168.442471,39.3587859 168.442471,41.0741214 L168.442471,44.9386581 L167.212866,44.9386581 L167.212866,41.0584665 C167.212866,40.1392971 166.741145,39.5376997 165.998911,39.5376997 C165.457885,39.5376997 165.026405,39.7904153 164.433959,40.4456869 L164.433959,44.9386581 L163.204354,44.9386581 L163.204354,38.6766773 L164.433959,38.6766773 L164.433959,39.4974441 L164.445137,39.4974441 Z" id="Path" fill="#00754A"></path>
                <path d="M174.717928,40.3070288 C174.0137,39.8329073 173.544214,39.6920128 173.003188,39.6920128 C171.885366,39.6920128 171.111832,40.5440895 171.111832,41.814377 C171.111832,43.0846645 171.941257,43.8920128 173.208868,43.8920128 C173.782222,43.874108 174.344668,43.7305849 174.856538,43.4715655 L174.856538,44.7015974 C174.267154,44.9385718 173.638386,45.0622447 173.003188,45.0661342 C171.152074,45.0661342 169.853164,43.7667732 169.853164,41.9351438 C169.853164,39.8686901 171.042527,38.5559105 172.920469,38.5559105 C173.542541,38.559276 174.15514,38.7086488 174.708986,38.9920128 L174.708986,40.3159744 L174.717928,40.3070288 Z" id="Path" fill="#00754A"></path>
                <polygon id="Path" fill="#00754A" points="176.996051 48.1479233 175.632307 48.1479233 177.744992 43.5990415 175.341673 38.6766773 176.736716 38.6766773 178.408979 42.201278 180.014172 38.6766773 181.393566 38.6766773 176.996051 48.1479233"></polygon>
                <path d="M192.518137,42.0626198 L194.60623,42.0626198 L193.521942,39.6025559 L192.518137,42.0626198 Z M196.884353,44.9386581 L195.900669,44.9386581 L195.006411,42.9392971 L192.142549,42.9392971 L191.293004,44.9386581 L190.307084,44.9386581 L193.197774,38.1086262 L193.868467,38.1086262 L196.87541,44.9386581 L196.884353,44.9386581 Z" id="Shape" fill="#00754A"></path>
                <path d="M198.592386,44.057508 L199.804106,44.057508 C200.937578,44.057508 201.243862,43.4894569 201.243862,42.9840256 C201.243862,42.3667732 200.769905,41.9284345 199.754922,41.9284345 L198.592386,41.9284345 L198.592386,44.057508 Z M198.592386,41.0517572 L199.234016,41.0517572 C200.186401,41.0517572 200.655887,40.6939297 200.655887,39.9670927 C200.655887,39.4594249 200.367489,39.0233227 199.479937,39.0233227 L198.585679,39.0233227 L198.585679,41.0517572 L198.592386,41.0517572 Z M197.622116,38.1444089 L199.578306,38.1444089 C201.027004,38.1444089 201.650749,39.0233227 201.650749,39.8776358 C201.650749,40.584345 201.324345,41.0428115 200.622352,41.3313099 L200.622352,41.3492013 C201.626157,41.5392971 202.24096,42.2057508 202.24096,43.1226837 C202.24096,43.9591054 201.617214,44.9341853 199.931538,44.9341853 L197.631059,44.9341853 L197.631059,38.1488818 L197.622116,38.1444089 Z" id="Shape" fill="#00754A"></path>
                <path d="M208.824935,42.2683706 C208.824935,43.9300319 207.841251,45.0258786 205.840349,45.0258786 C204.418478,45.0258786 203.036849,44.2185304 203.036849,42.3690096 L203.036849,38.1488818 L204.002648,38.1488818 L204.002648,42.1610224 C204.002648,42.9258786 204.103252,43.2456869 204.409536,43.5565495 C204.792155,43.9403706 205.316643,44.1484573 205.858234,44.1313099 C206.595997,44.1313099 207.132552,43.8942492 207.434364,43.585623 C207.780889,43.2367412 207.861372,42.7380192 207.861372,42.1028754 L207.861372,38.1488818 L208.824935,38.1488818 L208.824935,42.2683706 L208.824935,42.2683706 Z" id="Path" fill="#00754A"></path>
                <path d="M213.877494,44.057508 L215.415618,44.057508 C217.60208,44.057508 218.098393,42.3757188 218.098393,41.5392971 C218.098393,40.1773163 217.239905,39.0233227 215.359727,39.0233227 L213.868552,39.0233227 L213.868552,44.057508 L213.877494,44.057508 Z M212.90946,38.1444089 L215.516222,38.1444089 C218.00226,38.1444089 219.093255,39.9335463 219.093255,41.5392971 C219.093255,43.2814696 217.751868,44.9341853 215.516222,44.9341853 L212.90946,44.9341853 L212.90946,38.1488818 L212.90946,38.1444089 Z" id="Shape" fill="#00754A"></path>
                <polygon id="Path" fill="#00754A" points="225.996928 44.9386581 225.028894 44.9386581 225.028894 41.9821086 221.261831 41.9821086 221.261831 44.9386581 220.296032 44.9386581 220.296032 38.1488818 221.261831 38.1488818 221.261831 41.1076677 225.028894 41.1076677 225.028894 38.1488818 225.996928 38.1488818 225.996928 44.9386581"></polygon>
                <path d="M228.954687,42.0626198 L231.047251,42.0626198 L229.958492,39.6025559 L228.954687,42.0626198 Z M233.320903,44.9386581 L232.334983,44.9386581 L231.440725,42.9392971 L228.58357,42.9392971 L227.73626,44.9386581 L226.748105,44.9386581 L229.636559,38.1086262 L230.322902,38.1086262 L233.325374,44.9386581 L233.320903,44.9386581 Z" id="Shape" fill="#00754A"></path>
                <path d="M235.028936,44.057508 L236.23842,44.057508 C237.378599,44.057508 237.682647,43.4894569 237.682647,42.9840256 C237.682647,42.3667732 237.210926,41.9284345 236.193707,41.9284345 L235.028936,41.9284345 L235.028936,44.057508 Z M235.028936,41.0517572 L235.66833,41.0517572 C236.625187,41.0517572 237.090201,40.6939297 237.090201,39.9670927 C237.090201,39.4594249 236.804038,39.0233227 235.916487,39.0233227 L235.022229,39.0233227 L235.022229,41.0517572 L235.028936,41.0517572 Z M234.063137,38.1444089 L236.014856,38.1444089 C237.463554,38.1444089 238.087299,39.0233227 238.087299,39.8776358 C238.087299,40.584345 237.760895,41.0428115 237.061138,41.3313099 L237.061138,41.3492013 C238.067178,41.5392971 238.677509,42.2057508 238.677509,43.1226837 C238.677509,43.9591054 238.058235,44.9341853 236.368087,44.9341853 L234.07208,44.9341853 L234.07208,38.1488818 L234.063137,38.1444089 Z" id="Shape" fill="#00754A"></path>
                <polygon id="Path" fill="#00754A" points="240.588986 44.9386581 239.620952 44.9386581 239.620952 38.1488818 240.588986 38.1488818 240.588986 44.9386581"></polygon>
                <path d="M111.252425,30.9878594 C112.698888,30.9878594 113.403116,30.1111821 113.403116,28.3041534 C113.403116,26.4971246 112.698888,25.6204473 111.315023,25.6204473 C109.931159,25.6204473 107.14778,27.9083067 106.143975,30.9699681 L111.252425,30.9878594 Z M98.7328104,31.8309904 C97.8367663,31.8336659 96.956757,31.5932989 96.1864102,31.1354633 C95.7817584,31.5827476 95.2071975,31.8063898 94.4291929,31.828754 L79.6739329,31.828754 C78.638829,31.828754 77.6327886,31.6051118 77.2929705,30.115655 L76.8123067,27.8948882 C76.4277757,26.1952077 76.0924289,25.7769968 75.1065092,25.7769968 L74.6593801,25.7769968 L76.0186526,31.4306709 L75.8889851,31.4619808 C74.7160217,31.6989235 73.5219954,31.8158198 72.3253663,31.8108626 C70.0897208,31.8108626 68.9942545,30.7083067 68.9942545,28.4361022 L68.9942545,25.1172524 L69.9086335,25.1172524 L69.9086335,28.313099 C69.9086335,30.1760383 70.6508678,30.9699681 72.3879643,30.9699681 C73.2477115,30.9727496 74.105955,30.8978985 74.9522497,30.7463259 C73.9395023,26.5552716 73.8344269,26.2265176 73.7740645,26.0677316 C73.7401896,25.9604155 73.7118342,25.8514334 73.68911,25.7412141 L73.4946088,24.9696486 L74.6951504,24.9696486 C76.3517637,24.9696486 77.1811882,25.6405751 77.5612479,27.3089457 L78.1492227,29.9031949 C78.3727872,30.9900958 79.1932691,30.9900958 79.6381626,30.9900958 L94.2749334,30.9900958 C95.4575898,30.9900958 95.9628457,30.3191693 95.9628457,28.7536741 L95.9628457,25.1172524 L96.8571039,25.1172524 L96.8571039,29.0019169 C96.8628215,29.4774351 96.7801915,29.9498789 96.6134185,30.3952077 C97.2237368,30.7789782 97.9292218,30.9842674 98.6500915,30.9878594 L105.357028,30.9878594 L105.357028,22.3888179 L106.237872,22.3888179 L106.237872,28.5814696 C108.097929,25.4750799 110.514662,24.7795527 111.317259,24.7795527 C113.228736,24.7795527 114.366679,26.0990415 114.366679,28.313099 C114.366679,29.5252396 114.069338,30.4421725 113.472421,31.0392971 C113.320631,31.1912073 113.150972,31.3241279 112.967165,31.4351438 C112.507402,31.7047601 111.981992,31.8417702 111.449162,31.8309904 L98.7328104,31.8309904 Z" id="Shape" fill="#00754A"></path>
                <path d="M118.746309,26.8594249 C117.820751,26.8594249 116.888487,27.501278 116.888487,28.9392971 C116.888487,30.2386581 117.536824,30.9878594 118.677004,30.9878594 L119.830597,30.9878594 L119.830597,27.0607029 L119.707636,27.0226837 C119.398779,26.9145626 119.073518,26.8608381 118.746309,26.8638978 L118.746309,26.8594249 Z M117.129937,35.0022364 L116.747642,34.1769968 L116.971206,34.1769968 C117.089695,34.1769968 117.208185,34.1769968 117.324438,34.1769968 C118.958695,34.1769968 119.725521,33.4501597 119.819418,31.8175719 L118.61217,31.8175719 C117.360208,31.8175719 116.023292,31.0638978 116.023292,28.9392971 C116.023292,26.8146965 117.418335,26.0476038 118.721716,26.0476038 C119.364889,26.0419465 120.005091,26.1354831 120.619779,26.3249201 L120.720384,26.3539936 L120.720384,30.9744409 L127.512274,30.9744409 C128.719523,30.9744409 129.213601,30.3258786 129.213601,28.7380192 L129.213601,25.1172524 L130.107859,25.1172524 L130.107859,29.0019169 C130.107859,30.8447284 129.282906,31.7974441 127.648649,31.828754 L120.724855,31.828754 C120.648843,33.9645367 119.564555,35 117.409393,35 L117.129937,35.0022364 Z" id="Shape" fill="#00754A"></path>
                <polygon id="Path" fill="#00754A" points="132.059577 31.8309904 132.059577 22.3888179 132.958307 22.3888179 132.958307 31.8309904 132.059577 31.8309904"></polygon>
                <path d="M207.485784,23.5674121 L207.751826,23.0351438 L208.306266,23.0351438 L208.266024,22.9613419 C208.155385,22.7195668 208.101839,22.4555684 208.109529,22.1897764 C208.109529,21.2325879 208.748923,20.8926518 209.298892,20.8926518 C209.72344,20.896339 210.121621,21.0992252 210.374238,21.4405751 L210.01877,21.8476038 C209.834057,21.6241972 209.575539,21.4742684 209.28995,21.4249201 C208.90989,21.4249201 208.672912,21.7178914 208.672912,22.1897764 C208.672912,22.7578275 208.87412,23.0351438 209.28995,23.0351438 L210.468135,23.0351438 L210.186444,23.5674121 L207.485784,23.5674121 Z" id="Path" fill="#00754A"></path>
                <path d="M162.23632,23.5674121 L162.500126,23.0351438 L163.054566,23.0351438 L163.014324,22.9613419 C162.904738,22.7192253 162.851241,22.4554727 162.857829,22.1897764 C162.857829,21.2325879 163.497224,20.8926518 164.047193,20.8926518 C164.474894,20.8935262 164.876981,21.0967128 165.131481,21.4405751 L164.76707,21.8476038 C164.582357,21.6241972 164.323839,21.4742684 164.03825,21.4249201 C163.655955,21.4249201 163.418976,21.7178914 163.418976,22.1897764 C163.418976,22.7578275 163.62242,23.0351438 164.03825,23.0351438 L165.216435,23.0351438 L164.934744,23.5674121 L162.23632,23.5674121 Z" id="Path" fill="#00754A"></path>
                <polygon id="Path" fill="#00754A" points="72.8887489 34.6600639 72.8887489 33.1996805 73.6086268 33.1996805 73.6086268 34.6600639 72.8887489 34.6600639"></polygon>
                <polygon id="Path" fill="#00754A" points="127.331187 34.613099 127.331187 33.1996805 128.051065 33.1996805 128.051065 34.613099 127.331187 34.613099"></polygon>
                <polygon id="Path" fill="#00754A" points="94.0647827 34.613099 94.0647827 33.1996805 94.7868962 33.1996805 94.7868962 34.613099 94.0647827 34.613099"></polygon>
                <polygon id="Path" fill="#00754A" points="71.6725578 34.6600639 71.6725578 33.1996805 72.3924356 33.1996805 72.3924356 34.6600639 71.6725578 34.6600639"></polygon>
                <polygon id="Path" fill="#00754A" points="111.800158 23.8268371 111.800158 22.3642173 112.520036 22.3642173 112.520036 23.8268371 111.800158 23.8268371"></polygon>
                <polygon id="Path" fill="#00754A" points="147.009338 23.8939297 147.009338 22.415655 147.729216 22.415655 147.729216 23.8939297 147.009338 23.8939297"></polygon>
                <polygon id="Path" fill="#00754A" points="148.357433 23.8939297 148.357433 22.415655 149.077311 22.415655 149.077311 23.8939297 148.357433 23.8939297"></polygon>
                <polygon id="Path" fill="#00754A" points="198.565558 23.8939297 198.565558 22.415655 199.285436 22.415655 199.285436 23.8939297 198.565558 23.8939297"></polygon>
                <polygon id="Path" fill="#00754A" points="199.913653 23.8939297 199.913653 22.415655 200.631295 22.415655 200.631295 23.8939297 199.913653 23.8939297"></polygon>
                <path d="M146.986982,26.0028754 C146.02789,26.0028754 145.735021,26.4367412 145.735021,27.8635783 C145.735021,29.4782748 146.195564,29.5990415 146.895321,29.5990415 C147.292674,29.5952052 147.68789,29.5403369 148.07127,29.4357827 L148.07127,26.101278 C147.715966,26.0194932 147.351199,25.9863895 146.986982,26.0028754 L146.986982,26.0028754 Z M179.795079,31.8354861 C178.911498,31.8381111 178.042429,31.6107491 177.273271,31.1757188 C176.807996,31.6136565 176.188183,31.8492834 175.549588,31.8309904 L173.123913,31.8309904 C172.239587,31.8339238 171.369725,31.6065558 170.599869,31.171246 C170.132565,31.6088175 169.511554,31.8442889 168.871715,31.8265176 L166.448276,31.8265176 C165.563349,31.8286101 164.692976,31.60131 163.921996,31.1667732 C163.508402,31.584984 162.942784,31.7996805 162.200549,31.8220447 L148.07127,31.8220447 L148.07127,30.6389776 C147.682351,30.7422191 147.282034,30.7963144 146.879671,30.8 C145.21188,30.8 144.527772,29.9479233 144.527772,27.8613419 C144.527772,25.7747604 145.310248,24.7974441 146.986982,24.7974441 C147.705538,24.7940638 148.420345,24.9011713 149.106374,25.115016 L149.233806,25.1485623 L149.233806,30.7060703 L162.003813,30.7060703 C163.10375,30.7060703 163.550879,30.1022364 163.550879,28.6105431 L163.550879,25.157508 L164.713415,25.157508 L164.713415,28.8632588 C164.720812,29.3192894 164.649725,29.7731939 164.503264,30.2051118 C165.06868,30.5394167 165.713235,30.7162482 166.370028,30.7172524 L168.674979,30.7172524 C169.777152,30.7172524 170.224281,30.1134185 170.224281,28.6217252 L170.224281,25.157508 L171.386817,25.157508 L171.386817,28.8632588 C171.394214,29.3192894 171.323127,29.7731939 171.176666,30.2051118 C171.74221,30.539114 172.386681,30.7159225 173.04343,30.7172524 L175.352852,30.7172524 C176.450554,30.7172524 176.899918,30.1134185 176.899918,28.6217252 L176.899918,25.157508 L178.057983,25.157508 L178.057983,28.8632588 C178.065508,29.3189421 177.995968,29.7726191 177.852303,30.2051118 C178.417933,30.5389128 179.062348,30.7157061 179.719067,30.7172524 L184.664315,30.7172524 C185.782138,30.7172524 186.229267,30.1290735 186.229267,28.6217252 L186.229267,22.4268371 L187.407452,22.4268371 L187.407452,28.8632588 C187.407452,30.7507987 186.582499,31.7460064 184.948242,31.8265176 L184.82081,31.8265176 L179.795079,31.8354861 Z" id="Shape" fill="#00754A"></path>
                <polygon id="Path" fill="#00754A" points="189.077479 31.8354633 189.077479 22.4268371 190.251193 22.4268371 190.251193 31.8354633 189.077479 31.8354633"></polygon>
                <path d="M198.567794,26.0028754 C197.483506,26.0028754 196.955894,26.6111821 196.955894,27.8635783 C196.955894,29.3888179 197.68695,29.5990415 198.473897,29.5990415 C198.872722,29.5952183 199.269417,29.5403531 199.654318,29.4357827 L199.654318,26.101278 C199.298201,26.0198347 198.932742,25.9867364 198.567794,26.0028754 L198.567794,26.0028754 Z M237.038781,30.699361 L237.038781,30.1357827 C237.038781,29.1271565 236.777211,28.7 236.169115,28.7 C235.40676,28.7 235.256972,29.2255591 235.256972,30.1357827 L235.256972,30.699361 L237.038781,30.699361 Z M221.060623,31.8175719 C220.177786,31.8199343 219.30951,31.5925783 218.541051,31.1578275 C218.073616,31.5951897 217.452694,31.8306273 216.812897,31.813099 L211.735746,31.813099 C210.851485,31.8155194 209.981752,31.5881851 209.211702,31.1533546 C208.745084,31.5905835 208.124897,31.8260472 207.485784,31.8086262 L199.661025,31.8086262 L199.661025,30.6389776 C199.27129,30.7419452 198.870269,30.7960343 198.46719,30.8 C196.667495,30.8 195.757588,29.8092652 195.757588,27.8613419 C195.757588,25.9134185 196.785985,24.7974441 198.574501,24.7974441 C199.293069,24.7938863 200.007904,24.9009978 200.693893,25.115016 L200.819089,25.1485623 L200.819089,30.7060703 L207.284576,30.7060703 C208.402398,30.7060703 208.849528,30.1022364 208.849528,28.6105431 L208.849528,25.157508 L210.012063,25.157508 L210.012063,28.8632588 C210.019283,29.319277 209.9482,29.7731514 209.801912,30.2051118 C210.366888,30.5385294 211.010481,30.7153086 211.666441,30.7172524 L216.613924,30.7172524 C217.731747,30.7172524 218.178876,30.1134185 218.178876,28.6217252 L218.178876,25.157508 L219.31682,25.157508 L219.31682,28.8632588 C219.32337,29.3188753 219.253855,29.7723904 219.11114,30.2051118 C219.67586,30.5391329 220.31962,30.7159581 220.975669,30.7172524 L234.114557,30.7172524 L234.114557,30.1536741 C234.114557,27.9172524 235.397817,27.5750799 236.160172,27.5750799 C236.922528,27.5750799 238.190139,27.9105431 238.190139,30.1536741 L238.190139,30.7172524 L239.862401,30.7172524 L239.862401,28.928115 C239.862401,27.071885 238.668567,25.7233227 237.025367,25.7233227 C236.375593,25.6958227 235.728267,25.8190564 235.134011,26.0833866 L234.943981,26.1683706 L234.673468,25.072524 L234.812078,25.0166134 C235.523133,24.7317698 236.281777,24.5845417 237.047724,24.5827476 C239.037448,24.5827476 241.042822,25.8932907 241.042822,28.8185304 L241.042822,31.8376997 L221.060623,31.8175719 Z" id="Shape" fill="#00754A"></path>
                <polygon id="Path" fill="#00754A" points="216.211508 34.7651757 216.211508 33.2846645 216.92915 33.2846645 216.92915 34.7651757 216.211508 34.7651757"></polygon>
                <polygon id="Path" fill="#00754A" points="217.559602 34.7651757 217.559602 33.2846645 218.27948 33.2846645 218.27948 34.7651757 217.559602 34.7651757"></polygon>
                <polygon id="Path" fill="#00754A" points="167.704708 34.7651757 167.704708 33.2846645 168.424586 33.2846645 168.424586 34.7651757 167.704708 34.7651757"></polygon>
                <polygon id="Path" fill="#00754A" points="169.052803 34.7651757 169.052803 33.2846645 169.772681 33.2846645 169.772681 34.7651757 169.052803 34.7651757"></polygon>
                <polygon id="Path" fill="#00754A" points="175.169529 34.7651757 175.169529 33.2846645 175.889407 33.2846645 175.889407 34.7651757 175.169529 34.7651757"></polygon>
                <polygon id="Path" fill="#00754A" points="187.845638 41.9597444 184.199301 41.9597444 184.199301 41.0651757 187.845638 41.0651757"></polygon>
                <polygon id="Path" fill="#00754A" points="140.769652 28.7984026 137.121079 28.7984026 137.121079 27.9038339 140.769652 27.9038339"></polygon>
            </g>
        </g>
    </g>
</svg>