<svg id="Layer_1" data-name="Layer 1" xmlns="http://www.w3.org/2000/svg" viewBox="0 0 980.29 331.75"><defs><style>.cls-1{fill:#334ba6;}</style></defs><title>adnoc-logo</title><path class="cls-1" d="M426.06,649.9a41.66,41.66,0,0,1-41.31-41.61c0-22.95,18.45-41.77,41.31-41.77a41.69,41.69,0,0,1,0,83.38m0-99.36a57.67,57.67,0,1,0,57.4,57.75c0-31.8-25.7-57.75-57.4-57.75" transform="translate(-9.85 -334.12)"/><path class="cls-1" d="M333.27,627.39l-79.79-75.27V664.3H269.4V589.79l80,74.51V552.12H333.27Z" transform="translate(-9.85 -334.12)"/><path class="cls-1" d="M178.78,648.31H154.64V568.1h24.14a40.11,40.11,0,0,1,0,80.21m0-96.19H138.72V664.3h40.06c31.69,0,55.65-25.16,55.81-56,0-30.85-24.91-56.17-55.81-56.17" transform="translate(-9.85 -334.12)"/><path class="cls-1" d="M558.33,649.82c-22.06,0-41.44-18.66-41.44-41.58,0-23.08,19.53-41.73,41.44-41.73a39,39,0,0,1,28,11.38l8.07-14.08c-9.63-8.57-22.22-13.27-36.11-13.27a57.63,57.63,0,0,0-.16,115.25,56.07,56.07,0,0,0,36.56-13.37l-8-14a40,40,0,0,1-28.36,11.38" transform="translate(-9.85 -334.12)"/><path class="cls-1" d="M65.83,551.92,9.85,664.3H27.52l38.31-78.89,19.1,39.31H51.77l-.37.78.52.07a60.09,60.09,0,0,1,49.62,33.48l2.56,5.25h17.55Z" transform="translate(-9.85 -334.12)"/><path class="cls-1" d="M569.93,496.4H586V384.24H569.93Z" transform="translate(-9.85 -334.12)"/><path class="cls-1" d="M578.29,356.54c-2.31-1.36-3.48-3.86-3.48-7.15,0-3.67,2.52-7.34,6.58-7.34,2.88,0,4.82,1.35,5.4,4.25l7-3.67c-2.7-5.6-6.76-8.51-12.18-8.51-8.3,0-15.07,6.57-15.07,15.66,0,1,.58,3.08,1.74,6.76h-7.73v8.89h33.43v-8.89Z" transform="translate(-9.85 -334.12)"/><path class="cls-1" d="M9.92,448.47c0,.22,0,.43,0,.65,0,26,22.67,47.33,48.72,47.33h77.82V384.27h-16v96.4H58.31c-17.43,0-32.84-14.07-32.84-31.55,0-.22,0-.43,0-.65Z" transform="translate(-9.85 -334.12)"/><path class="cls-1" d="M465.68,480.48V496.4h85.54V463.54c0-26-20.5-45.65-45.64-45.78A45.48,45.48,0,0,0,486.3,422l8,14.2a28.79,28.79,0,0,1,40,26.56v17.68Z" transform="translate(-9.85 -334.12)"/><path class="cls-1" d="M57.94,438.16H91.37v-8.89H75.73c-2.32-1.35-3.49-3.86-3.49-7.14,0-3.67,2.52-7.35,6.58-7.35,2.89,0,4.82,1.36,5.4,4.26l7-3.67c-2.71-5.61-6.77-8.51-12.19-8.51-8.29,0-15.07,6.57-15.07,15.65,0,1,.58,3.09,1.75,6.76H57.94Z" transform="translate(-9.85 -334.12)"/><path class="cls-1" d="M446.8,396.54h-16v16h16Z" transform="translate(-9.85 -334.12)"/><path class="cls-1" d="M203.81,480.63H190.88a21.49,21.49,0,0,1,0-43h12.93Zm-7.15,42,0,.07,10.71,9.71a44.68,44.68,0,0,0,11.24-29.55v-6.34H422.74c15.92,0,23.89-8.57,23.89-25.83v-49H430.7v42.94c0,5.14-.42,9.48-1.13,11.19-1.57,3.14-4.84,4.71-10.1,4.71H219.86V421.7H192c-21.13,0-37.11,16.77-37.22,37.34A37.37,37.37,0,0,0,192,496.49H204V504a29.52,29.52,0,0,1-7.34,18.6" transform="translate(-9.85 -334.12)"/><path class="cls-1" d="M660.34,335V664.93H695.5c21.33-.05,26.26.43,37.93-1.39,50.29-7.33,96.29-48.28,101.26-84.45,7.44-42.84-15.87-80.38-60.62-89.7a20.19,20.19,0,0,1-2.58-.73c-1.6,0-23.41.22-40.22-4.27-.21.18-9.65,7.65-5.78,22,0,0-22.41-23.39-8.17-54.82,0,0,6.9-14.82,30.33-30l.54-.64c6.27-7.44,21.3-20.55,43.1-30.91,11.14-5,30.24-12.18,51.63-14,97.57-9.08,147.23,65.58,147.23,65.58V335Z" transform="translate(-9.85 -334.12)"/><path class="cls-1" d="M899.91,413.06C852.69,406.75,813,419,781.68,440.79a160.7,160.7,0,0,1,23.38-10.35c2.09,9.07,9.72,16.72,20,18.86,13.79,2.87,27.13-5.2,29.79-18a22.09,22.09,0,0,0-.28-10.24c90.19-2.73,135.54,66.05,135.54,66.05l0-28.79v-.88c-13.75-13.91-47.9-39.67-90.24-44.37" transform="translate(-9.85 -334.12)"/></svg>