<?xml version="1.0" encoding="utf-8"?>
<!-- Generator: Adobe Illustrator 26.5.0, SVG Export Plug-In . SVG Version: 6.00 Build 0)  -->
<svg version="1.1" id="ARTWORK" xmlns="http://www.w3.org/2000/svg" xmlns:xlink="http://www.w3.org/1999/xlink" x="0px" y="0px"
	 viewBox="0 0 266.7 97.8" style="enable-background:new 0 0 266.7 97.8;" xml:space="preserve">
<style type="text/css">
	.st0{fill:#121C4E;}
	.st1{fill:url(#SVGID_1_);}
</style>
<g>
	<path class="st0" d="M193.4,55.3c-2.7,0-4.5,1.5-5.7,3.3v-3h-2.2v19.5h2.2v-7.5c1.2,1.7,2.9,3.2,5.7,3.2c3.6,0,7.1-2.9,7.1-7.8v0
		C200.5,58.1,197,55.3,193.4,55.3z M198.2,63.1c0,3.6-2.4,5.7-5.3,5.7c-2.8,0-5.4-2.3-5.4-5.8v0c0-3.4,2.6-5.7,5.4-5.7
		C195.8,57.3,198.2,59.5,198.2,63.1L198.2,63.1z M176.6,70.6h4.5V54.7h-4.5V70.6z M166.2,54.5c-2.7,0-4.4,0.5-6.2,1.3l1.1,3.4
		c1.5-0.5,2.7-0.9,4.4-0.9c2.3,0,3.4,1,3.4,2.9v0.3c-1.1-0.4-2.3-0.7-3.9-0.7c-3.8,0-6.4,1.6-6.4,5.1V66c0,3.1,2.5,4.9,5.5,4.9
		c2.2,0,3.7-0.8,4.8-2v1.7h4.4v-9.2c0-2.1-0.5-3.9-1.7-5.1C170.4,55.2,168.7,54.5,166.2,54.5z M169,65c0,1.6-1.4,2.8-3.5,2.8
		c-1.5,0-2.5-0.7-2.5-1.9v-0.1c0-1.4,1.2-2.2,3.1-2.2c1.1,0,2.1,0.2,2.9,0.6V65z M149.8,54.4c-2.3,0-3.9,1.1-5,2.6v-8h-4.5v21.7h4.5
		v-2.1c1.1,1.3,2.6,2.4,5,2.4c3.8,0,7.2-2.9,7.2-8.2v-0.1C157,57.3,153.5,54.4,149.8,54.4z M152.5,62.7c0,2.7-1.8,4.4-3.9,4.4
		c-2.1,0-3.9-1.8-3.9-4.4v-0.1c0-2.6,1.8-4.4,3.9-4.4C150.7,58.2,152.5,60,152.5,62.7L152.5,62.7z M176.5,52.9h4.8v-4h-4.8V52.9z
		 M132.5,63.6c0,2.1-1.1,3.2-2.8,3.2s-2.7-1.1-2.7-3.2v-8.9h-4.5V65c0,3.7,2,5.9,5.4,5.9c2.3,0,3.6-1.2,4.7-2.6v2.3h4.5V54.7h-4.5
		L132.5,63.6L132.5,63.6z M214.1,64.2c0,2.8-1.9,4.7-4.5,4.7s-4.1-1.7-4.1-4.5v-8.7h-2.2V65c0,3.5,2.1,6,5.7,6
		c2.6,0,4.1-1.3,5.1-2.9v2.6h2.2v-15h-2.2V64.2z M254.3,63.3c0-4.4-2.5-7.9-7-7.9c-4.1,0-7.2,3.5-7.2,7.8c0,4.6,3.3,7.8,7.4,7.8
		c2.8,0,4.6-1.1,6.1-2.8l-1.4-1.2c-1.2,1.3-2.7,2.1-4.7,2.1c-2.6,0-4.9-1.8-5.3-5H254C254.3,63.7,254.3,63.5,254.3,63.3z
		 M242.5,62.3c0.3-2.9,2.3-5,4.8-5c2.9,0,4.5,2.3,4.8,5H242.5z M114.7,56.8c-1.1-1.3-2.6-2.4-5-2.4c-3.8,0-7.2,2.9-7.2,8.2v0.1
		c0,5.3,3.5,8.2,7.2,8.2c2.3,0,3.9-1.1,5-2.6v2.3h4.5V48.9h-4.5V56.8z M114.8,62.7c0,2.6-1.8,4.4-3.9,4.4c-2.1,0-3.9-1.8-3.9-4.4
		v-0.1c0-2.7,1.8-4.4,3.9-4.4C113,58.2,114.8,60,114.8,62.7L114.8,62.7z M232.9,62.1c-2-0.6-3.8-1.2-3.8-2.6v-0.1
		c0-1.2,1.1-2.2,2.9-2.2c1.4,0,3,0.5,4.4,1.4l1-1.7c-1.5-1-3.5-1.6-5.4-1.6c-2.9,0-5.1,1.7-5.1,4.3v0.1c0,2.7,2.6,3.5,4.9,4.2
		c2,0.5,3.7,1.1,3.7,2.6v0.1c0,1.4-1.3,2.4-3.1,2.4c-1.8,0-3.5-0.7-5.2-1.9l-1.1,1.6c1.7,1.4,4,2.2,6.2,2.2c3,0,5.3-1.6,5.3-4.5
		v-0.1C237.7,63.7,235.2,62.8,232.9,62.1z M220.8,70.6h2.2V49.5h-2.2V70.6z M109.8,44.9c2.8,0,5.4-1.7,6.7-4.5h48.6
		c2.7,0,4-1.6,4-4.8V22.7h-1.9v12c0,1.3-0.1,2.1-0.4,2.6c-0.4,0.8-1.1,1.1-2.3,1.1h-1.3l0,0h-31.4c0.4-0.7,0.5-1.7,0.5-2.9V28h-1.9
		v6.8c0,2.9-0.7,3.7-2.7,3.7h-3.3c0.4-0.7,0.5-1.7,0.5-2.9V28H123v6.8c0,2.9-0.6,3.7-2.3,3.7h-3.4c0.2-0.9,0.3-1.9,0.3-3V28h-2v8.3
		c-0.4,4.2-2.4,6.8-5.7,6.8c-3.6,0-5.8-3.1-5.8-7.9V28h-1.9v7.6C102.1,41.1,105.5,44.9,109.8,44.9z M235.3,44.6h1.9v-2.3h-1.9V44.6z
		 M233.2,40.4c2.7,0,4-1.6,4-4.8V28h-1.9v6.8c0,1.3-0.1,2.1-0.4,2.6c-0.4,0.8-1.1,1.1-2.3,1.1h-1.5l0,0h-6.9c-2.1,0-3-0.9-4-3.5
		c-0.8-2.2-3.1-3.9-4.8-3.9c-1,0-1.5,0-1.5,0.1l0,0v1.7c2.2,0,3.6,1.3,3.6,3.7c0,3.3-3.2,6.3-6.9,6.3c-4.4,0-7-3.3-7-8.2v-2.4h-1.9
		V35c0,5.5,3.8,9.7,8.9,9.7c4.7,0,8.7-3.6,8.7-8.2c0.6,2.3,2.6,3.8,5.1,3.8l0,0h8.8V40.4z M213.5,46.9h-1.9v2.3h1.9V46.9z
		 M249.6,32.5c-1.4-3.1-4.1-4.6-7.9-4.6v1.8h0.7c2.3,0.1,4,1.1,5.1,2.8c0.9,1.5,1.3,3.4,1.3,5.9h-10.1v1.9h12.2
		C250.9,37,250.5,34.4,249.6,32.5z M191.8,40.4c2.7,0,4-1.6,4-4.8V28h-1.9v6.8c0,1.3-0.1,2.1-0.4,2.6c-0.4,0.8-1.1,1.1-2.3,1.1h-1.5
		l0,0h-10.8c-1.3,0-1.6,0-1.8,0c-0.7-0.1-1.3-0.4-1.6-0.8c-0.4-0.5-0.5-1.5-0.5-2.7V22.7h-2V36c0,1.5,0.4,2.5,1.2,3.3
		c0.7,0.7,1.5,1,2.5,1h15.1V40.4z M193.9,44.6h1.9v-2.3h-1.9V44.6z M209.9,46.9H208v2.3h1.9V46.9z"/>
	<g>
		
			<linearGradient id="SVGID_1_" gradientUnits="userSpaceOnUse" x1="8.4" y1="51.0714" x2="90" y2="51.0714" gradientTransform="matrix(1 0 0 -1 0 100)">
			<stop  offset="0.1031" style="stop-color:#992D8E"/>
			<stop  offset="0.3734" style="stop-color:#BB3C70"/>
			<stop  offset="0.9289" style="stop-color:#FF5A35"/>
		</linearGradient>
		<path class="st1" d="M44.8,72.5c-0.3,0-0.5,0-0.8,0c-2.7-0.3-5.1-1.9-6.2-4.4l-7.5-14.4l-3.5,10c-1.2,2.9-4,4.7-7.1,4.7H8.4v-8h11
			l3.7-10.5c1.2-2.8,4-4.7,7-4.7c0,0,0,0,0.1,0c3,0,5.7,1.7,7,4.4L44.7,64l9.9-33.2c0.3-0.9,0.6-1.6,1.1-2.2
			c1.6-2.2,4.3-3.5,7.1-3.2c2.7,0.3,5.1,1.9,6.2,4.4l5,9.4c0.6,1.4,2.1,2.3,3.6,2.3H90v8H77.5c-4.7,0-8.9-2.7-10.9-7L62,33.8
			L52.1,67c-0.2,0.8-0.6,1.6-1.1,2.2C49.6,71.3,47.3,72.5,44.8,72.5z"/>
	</g>
</g>
</svg>
