<?xml version="1.0" encoding="utf-8"?>
<!-- Generator: Adobe Illustrator 28.3.0, SVG Export Plug-In . SVG Version: 6.00 Build 0)  -->
<svg version="1.1" id="layer" xmlns="http://www.w3.org/2000/svg" xmlns:xlink="http://www.w3.org/1999/xlink" x="0px" y="0px"
	 viewBox="0 0 652 240.5" style="enable-background:new 0 0 652 240.5;" xml:space="preserve">
<style type="text/css">
	.st0{fill:#FFFFFF;}
	.st1{fill:#E6223C;}
</style>
<path id="XMLID_1_" class="st0" d="M620.9,123.1c0.4-40-8.4-62.4-16-73.4c2.6-3.4,4.2-5.5,4.3-5.7c0.8-0.8,2.1-2,4.8-2.4
	c0.7-5.3,2.7-11.5,2.7-11.5s-5.3,3.8-10.2,5.9c0.4,2.7-0.3,4.3-1,5.2c-0.1,0.1-1.3,1.8-3.3,4.4c-3.3-3.9-7.2-7.5-12.9-10.7
	c-1.3-0.8-2.8-1.5-4.4-2.2c0.1-2.2-0.6-4.2-2-5.6c-0.1-1.2-1.1-2.8-2.4-3.3c-1.3-0.3-3.3,0.3-4.2,1.2c-2.2,0.3-4.2,1.4-5.7,3.1
	c-4.7-1-10-1.7-16.1-2.1c-0.7-3-2.6-5.1-5-6.3c-0.6-1.3-2.4-2.6-3.9-2.7l0,0l0,0c-1.5,0.1-3.3,1.4-3.9,2.7c-2.4,1.2-4.3,3.3-5,6.3
	c-6.1,0.4-11.4,1.1-16.1,2.1c-1.5-1.7-3.6-2.8-5.7-3.1c-1-0.9-2.9-1.5-4.2-1.2l0,0c-1.2,0.5-2.3,2-2.3,3.3c-1.4,1.4-2.1,3.5-2.1,5.6
	c-1.6,0.7-3,1.5-4.4,2.2c-5.7,3.3-9.3,6.4-12.7,10.6c-1.8-2.4-2.9-3.9-3-4c-0.7-1-1.3-2.6-1-5.2c-4.9-2.1-10.2-5.9-10.2-5.9
	s2,6.3,2.7,11.5c2.7,0.4,4,1.6,4.8,2.4c0.1,0.1,1.5,1.9,3.8,5c-7.6,10.9-16.6,33.5-16.2,73.8c0.1,3.7-1.5,38.6,9.8,62.1
	c1.3,2.4,4.7,8.7,10.9,14.5c5.1,4.9,11.2,8.3,18.1,10.1c0.2,0.1,0.6,0.2,0.8,0.2c8.5,2.3,15.9,1,18.9-0.7l-0.4,1.1
	c-0.1,0.3-0.3,0.7-0.4,1c-1.6,4.3-0.5,8.8,5.3,9.5c1.5,0.2,3.3,0.2,5.3,1.2c1.4,0.7,3,1.8,4.7,3.5c0.7,0.8,2.2,2.7,3,4.2l0,0
	c0.8-1.5,2.2-3.4,3-4.2c1.7-1.8,3.3-2.9,4.7-3.5c2-0.9,3.7-1,5.3-1.2c5.9-0.7,6.9-5.1,5.3-9.5c-0.1-0.2-0.3-0.7-0.4-1
	s-0.4-1.1-0.4-1.1c4,2.3,16.5,4.2,28.5-3.4c8.2-5.2,14.2-11.1,19-20.5C622.4,161.9,620.9,126.3,620.9,123.1 M568.1,90.9
	c-0.2,0.2-0.3,0.4-0.8,0.8c-0.6,0.4-1.3,0.5-1.9,0.5c-0.9-0.1-1.4-0.3-1.9-1c-1.4-1.9-2.2-3.8-3.6-7.2c-1.2-3-1-2.5-2.8-6.9
	c-0.9-2.1-2.4-5.5-3.3-6.7c-1.4-1.8-3.9-3.6-4.7-4c-1.1-0.4-2.7-0.8-4.3-0.9c-2.9-0.2-5.8,0.3-7,0.6c-1,0.3-2.7,0.8-3.5,1.9
	c-0.1,0.1-0.5,0.6-1.1,0.9c-1.2,0.6-1.6,0.5-3.2,1.7c-2.6,1.9-2.2,4.9-0.9,6.1c0,0,0,0,0.1,0c0-0.8,0-1.4,0.2-1.4
	c0.2,0,1.5,0.9,3.4,0.7c1.5-0.2,2.4,2,2.4,2l0.2-0.7c0,0,0.5,1.4,0.8,1.7c0.1-0.1,0.2-0.2,0.2-0.3c0.4,0.5,1.1,0.9,1.2,1.8
	c0,0.8-0.4,1.6-1.4,2.5c-0.4,0.4-2.7,2.3-5.2,4.8c-1.3,1.3-1.9,2.1-3.2,3.5c-0.7,0.7-1.3,1.2-1.9,1.2h-0.3c-0.8,0-1.4-0.4-1.6-0.7
	c-0.3-0.3-12.8-16.8-18.7-24.8c10.8-10.6,28.8-12.3,33.3-12c1,0.1,2.2,0.9,0.9,2.6c1,0.4,4.6,0.1,6-1.2c1.4,1.3,5,1.6,6,1.2
	c-1.3-1.7-0.1-2.6,0.9-2.6c4.4-0.3,21.5,0.5,33.5,12.3C580.1,75,572.3,84.8,568.1,90.9"/>
<path id="XMLID_35_" class="st1" d="M618.4,112.2c0.1,2.7,0.3,8.5,0.4,12c0,0.2,0,2,0,5.5c0,10.6-1.5,36.7-10.5,54.4
	c-1.1,2.3-4.7,8-10.5,13.5c-4.7,4.4-10.8,7.9-14,9.1c-3.2,1.1-4.4,1.2-4.4,1.2c-7.4,1.2-12.3-0.3-17.4-2.7c-0.4-0.9-2.3-5.3-3.1-7.2
	c0.1-0.3,0.2-0.5,0.3-0.7c0.5,0.1,1,0.1,1.5,0.2c0.2,0,12,1.8,20.2-2c-0.8-0.6-2.7-1.9-4.4-3.2c0-0.3-0.1-0.6-0.1-0.9
	c1.9,1.1,3.8,1.3,5.3,1.2c0.1-1.3-0.2-3-0.9-4.8c1.9,0.4,3.3,0,3.3,0s-1.2-4-3.9-8.7c-3.7-6.6-8.9-12.7-11.7-16.4
	c0.2-0.2,0.4-0.3,0.6-0.5c0.3,0.3,0.5,0.4,0.7,0.5c0.1,0.1,1.1,0.6,2,0.6c1,0,1.6-0.2,2-0.7l0.1-0.1c0.8-0.2,1.3-0.7,1.5-1.3
	c0-0.1,0.1-0.3,0.1-0.4c0.7,0.2,1.1,0.3,1.7-0.1c0.7-0.6-0.3-3.8-3.7-7c-2.4-2.3-4.7-3.6-6.8-4.5c-1.6-0.7-2.6,0.7-1.8,1.6
	c0.9,1.1,1.7,3.1,0.7,5.2c-1.1-0.4-1.5-0.5-1.7-0.6c-0.1-0.1-0.4-0.2-0.5-0.3c-0.4-0.2-0.6-0.4-0.9-0.7c0-0.1-0.1-0.2-0.2-0.4
	l1.6,0.2c-0.8-2.6,0.5-5.8,0.2-8.6c0.2,0.2,0.6,0.6,0.9,0.7c0.6-2.1,0.2-5.1-0.2-9.3c0.1-0.7,0.9-1.8,2.2-3c0.1-0.1,0.1-0.1,0.2-0.2
	c1,2.3,2.6,5.1,4.8,7.8c1.8,2.2,5.1,4.3,6.8,11.5l0,0c0.3,1.2,0.7,2.2,1.2,3.3c1.1,2.3,1,3.6,1,3.6l0,0c-0.1,4.5,0.1,13.9,1.2,19.2
	c1,4.6,2.6,7,2.6,7l0.2-0.2c0.5,1.6,1.2,4.3,3,6.5c0,0,1.5-3.1,4.3-26.5c3.1-25.8,4.6-52.7,4.6-52.7c0.3-4.7-0.8-10.3-2.2-14.4
	c-2.5-6.5-6.9-12.8-9.5-15.4c-1.5-1.5-3.2-1.9-4.8-1.7c2.8-3.5,5.5-7,6.3-8.1c12.9,22.8,12.1,49.2,12.1,49.4v2l2.7-1.5
	C611.9,117.6,615.1,114.9,618.4,112.2 M530.4,204.9c0.3-1,2-4.9,2.8-6.9c-0.1-0.3-0.2-0.7-0.3-1c-1.1,0.2-2.3,0.4-3.4,0.5
	c-0.8,0.1-12,1.8-20.2-2c1-0.7,2.8-2.2,5.4-3.8c0-0.2,0-0.3,0.1-0.5c-2,1.1-3.8,1.3-5.3,1.2c-0.1-1.3,0.2-3,0.9-4.9
	c-1.9,0.4-3.3,0-3.3,0s1.2-4,3.9-8.7c2.5-4.4,6-8.9,8.9-12.6c0.3-1.5,1.4-2.7,1.6-2.8c0.1-0.1,0.4-0.5,0.5-0.6
	c-0.3-0.3-0.7-0.6-1-0.8c-0.3,0.3-0.6,0.5-0.8,0.6c-0.9,0.4-1.5,0.6-2,0.6c-1,0-1.6-0.2-2-0.7l-0.1-0.1c-0.8-0.2-1.3-0.7-1.5-1.3
	c0-0.1,0-0.3,0-0.4c-0.6,0.2-1,0.2-1.5-0.2c-0.7-0.6,0.3-3.8,3.7-7c2.4-2.3,4.7-3.6,6.8-4.5c1.6-0.7,2.5,0.6,1.8,1.6
	c-0.9,1.1-1.7,3.1-0.7,5.3c1-0.3,1.4-0.5,1.5-0.6c0.4-0.1,0.8-0.3,1.4-1c0.1-0.1,0.1-0.2,0.2-0.4l-1.4,0.1c0.7-1.8-0.4-6.2,0.3-9.1
	c-0.2,0.1-0.7,0.5-1,0.6c-0.5-2.6-0.4-6.7-0.3-8.8c0-0.5-0.8-1.4-1.8-2.5c-0.8,2.1-2.2,4.5-4.6,7.5c-1.8,2.2-5.1,4.3-6.8,11.5
	c0,0,0,0,0,0.1c-0.3,1.1-0.7,2.2-1.2,3.3c-1.1,2.3-1,3.6-1,3.6l0,0c0.1,4.5-0.1,13.9-1.2,19.2c-1,4.6-2.6,6.9-2.6,6.9l-0.3-0.2
	c-0.4,1.6-1.2,4.3-3,6.5c0,0-1.5-3.1-4.3-26.5c-3.1-25.8-4.6-52.7-4.6-52.7l0,0c-0.3-4.8,0.8-10.3,2.1-14.4
	c2.5-6.5,6.9-12.8,9.5-15.4c1.7-1.6,3.5-2,5.3-1.6c-0.5-0.7-1.1-1.4-1.1-1.4c-1.8-2.3-3.8-4.9-5.6-7.2
	c-12.6,22.2-12.3,48.7-12.3,48.9v2.8l-2.2-1.2c-9.9-5.6-14.2-9-17.4-11.7c-0.1,2.7-0.4,11.8-0.4,11.8v5.5c0,10.6,1.9,36.5,10.5,54.4
	c1.2,2.2,4.4,8.2,10.2,13.7c4.4,4.1,9.6,7.1,15.3,8.9c0.3,0.1,1,0.3,1.3,0.4c6.6,2.1,13.8,1.7,20.8-1.9L530.4,204.9z M535.7,211.6
	c0.1-3.1,0.7-7.8,1.3-11.9c-1,1-1.9,1.5-2,1.5s-0.3-0.2-0.5-0.4c-2,4.8-4.7,11.6-4.8,11.7C531.1,211.4,533.2,210.6,535.7,211.6
	 M554.9,214.8c0.1-3.3-1.2-12.1-2-17.1c-0.1-0.1-0.2-0.3-0.3-0.4c-0.2-0.2-0.3-0.4-0.5-0.7c-0.3,1-0.6,2.1-1.1,3.1
	c-0.5,1.2-1.5,2.5-1.6,2.5c-0.2,0-2.5-1.7-4-5c-1.5,3.2-3.8,4.9-4,4.9c-0.2,0-1.1-1.3-1.6-2.5c-0.2-0.6-0.5-1.1-0.7-1.7
	c-0.8,5.3-1.9,13.7-1.8,16.9c-4.9-3.2-7.9,0-6.8,2.2c0.1,0.2,0.2,0.4,0.3,0.6c0.6,0.8,1.3,1.2,2.4,1.3c1.6,0.1,3.6,0.3,6,1.4
	c2.2,1,4.5,2.7,6.9,5.6c2.4-2.9,4.7-4.6,6.8-5.6c2.4-1.1,4.5-1.3,6-1.4c1.1-0.1,1.8-0.6,2.4-1.3c0.1-0.1,0.2-0.4,0.3-0.6
	C562.8,214.8,559.8,211.5,554.9,214.8 M556.6,201.2c-0.1,0-0.8-0.4-1.6-1.2c0.7,3.6,1.3,8.1,1.5,11.6c2.6-1.1,4.6-0.3,5.9,0.8
	c0-0.1-3-7.7-4.8-12.3C557.2,200.8,556.7,201.2,556.6,201.2"/>
<path id="XMLID_75_" d="M579.6,117.7c-0.3,1.7-1,2.5-2.5,3.6c-0.8-2.6-1.3-4.7,2.4-12.3c-2.5,7.5-1.4,10-1.4,10
	S579,118.5,579.6,117.7 M575.5,112.5c0,0-0.9-1.7,1.4-8.2c-4.1,6.2-2.3,10.5-2.3,10.5s2.2-1.1,2.7-3.4
	C576.7,112.2,575.5,112.5,575.5,112.5 M590.2,101.4c-0.7,6.6-1.2,7.9-1.9,9.1c-0.6-0.4-1.1-1.8-1.1-1.8c-0.2,1.2,0.1,3,1.1,4
	C589.7,110.9,590.7,107.3,590.2,101.4 M588.9,97c-1.1,7.3-2.2,9-3,10.3c-0.6-0.4-1.1-2.3-1.1-2.3c-0.3,1.3-0.1,3.4,1,4.5
	C587.4,107.6,589.2,103.7,588.9,97 M583.4,104.1c-0.7-2-0.5-4-0.5-4c-1,2.9-0.7,5.2,0.3,6.4c1.7-1.7,4.1-7.2,3.8-12.3
	C586,100.3,584.3,102.9,583.4,104.1 M580.8,99.9c-0.5-2.1-0.2-5.2-0.2-5.2c-1.3,2.8-1.1,6.5-0.2,7.8c1.9-1.6,4.4-6.3,4.6-11.4
	C583.3,97.1,581.8,98.8,580.8,99.9 M589.7,112.3c-0.1,1.5,1.2,2.5,1.2,2.5s2.1-3.1,1.3-8.4c-0.5,4.9-1.5,6.7-1.5,6.7
	S589.9,112.7,589.7,112.3 M592.2,114.6c0,1.3,1.2,2.1,1.2,2.1s1.8-2.7,0.9-7.4c-0.2,4.4-1.3,6-1.3,6S592.4,114.9,592.2,114.6
	 M502.6,110.6c-0.7-1.1-1.2-2.5-1.9-9.1c-0.5,5.9,0.5,9.6,1.9,11.3c1-1,1.3-2.8,1.1-4C503.7,108.9,503.2,110.2,502.6,110.6
	 M505,107.5c-0.8-1.2-2-2.9-3-10.3c-0.2,6.7,1.5,10.7,3.1,12.5c1.1-1.1,1.3-3.2,1-4.5C506.2,105.2,505.6,107,505,107.5 M507.5,104.3
	c-0.9-1.2-2.6-3.8-3.6-9.9c-0.3,5.1,2.1,10.6,3.8,12.3c1-1.2,1.3-3.6,0.3-6.4C508.1,100.3,508.2,102.3,507.5,104.3 M510.2,100.1
	c-1-1.1-2.6-2.8-4.2-8.8c0.2,5.1,2.7,9.8,4.6,11.4c0.9-1.3,1.1-5.1-0.2-7.8C510.4,95,510.7,98,510.2,100.1 M500.2,113.3
	c0,0-1.1-1.7-1.5-6.7c-0.8,5.3,1.3,8.4,1.3,8.4s1.3-0.9,1.2-2.5C501.1,112.9,500.2,113.3,500.2,113.3 M498,115.5c0,0-1-1.6-1.3-6
	c-0.9,4.6,0.9,7.4,0.9,7.4s1.2-0.8,1.2-2.1C498.6,115.1,498,115.5,498,115.5 M513,119.2c0,0-1-0.4-1.6-1.3c0.4,1.7,1,2.5,2.5,3.6
	c0.8-2.6,1.3-4.7-2.4-12.3C514.1,116.7,513,119.2,513,119.2 M515.4,112.7c0,0-1.2-0.3-1.8-1.1c0.6,2.3,2.7,3.4,2.7,3.4
	s1.8-4.3-2.3-10.5C516.3,111,515.4,112.7,515.4,112.7 M533.9,144.3c0.4-3.4-1.4-6.3-1.7-7.7c-0.4,0.4-0.4,1.5-0.4,1.5
	c-1.2-1.3-1.5-3.5-1.8-4.3c-0.3,2.3-1.1,3.5-1.4,4.6c0.5-0.1,1-0.2,1.5-0.5C530.7,140.7,533,141.3,533.9,144.3 M558.4,138.3
	c0,0,0-1.1-0.4-1.5c-0.3,1.4-2.1,4.3-1.7,7.7c0.8-3,3.2-3.7,3.8-6.5c0.5,0.3,1,0.5,1.5,0.5c-0.3-1.1-1.1-2.3-1.4-4.6
	C560,134.8,559.7,137.1,558.4,138.3 M540.3,135c-0.4-1.1-1-5-2.4-6.6C537.2,131.2,539.1,133.8,540.3,135 M549.5,138.7
	c0.6-1.6,2.1-3.1,2-8.1C550,132.1,549.4,136.8,549.5,138.7 M546.6,140.7c0.8-2,0.7-4.6-0.1-5.7C545.8,137.2,545.7,139.1,546.6,140.7
	 M544.3,134.6c0.8-2.3,0.6-5.1-0.4-6.3C543.2,130.6,543.3,132.8,544.3,134.6 M560.5,114c-1.4,1.9-1.8,6.2-2.2,7.6
	C558.8,121.1,561.3,115,560.5,114 M560.6,107.1c0-0.1,2.3-4.1,1-6.3C560.1,101.1,560.6,107.1,560.6,107.1 M553.9,117
	c0,0,3.6-3.5,3.5-7.9c-1,2.9-3.5,4.2-3.5,4.2s-1.4-0.9-2-2.8C551.4,114.9,553.9,117,553.9,117 M561,112c1-1.5,2.3-3.8,1.2-5.2
	C561.7,108.2,561.5,109.9,561,112 M549.7,129.1c0.6-1.5,2.2-4.2,1.9-7.3C550.3,123,549.6,127.2,549.7,129.1 M554.9,124.4
	c2.2-2.7,3.3-5.7,2.4-8.8C555.4,118.6,555.3,121.6,554.9,124.4 M550.3,115.1c-0.6,2.1-1.5,3.5-3.1,5.1c-0.7-0.6-1.3-1.3-2.2-3.1
	c-0.4,3.5,1.7,5.6,2.8,6.3C548.5,122.8,550.8,119.5,550.3,115.1 M540.9,124.1c-0.4-0.1-2.6-2.1-3.2-3.3c0.3,2,3,5.9,4.3,6.7
	c0.4-0.7,2-3.9,0.6-8.9C542.1,121.5,541.4,123.1,540.9,124.1 M528.2,100.1c-0.3-1.7,1.9-3.3,1.1-6.1
	C527.2,96.4,527.6,98.7,528.2,100.1 M532.6,120.7c1.2,2,2.2,3,3.1,4c-1.5-2.3-2.7-6.5-4.2-7.7C531.3,117.6,531.9,119.6,532.6,120.7
	 M531.5,111.3c-0.8,3.5,2.7,6.9,2.7,7C534.2,118.3,534.2,114.1,531.5,111.3 M534,104.6c0,1.5,0,2.9-0.4,4.5c-1-0.3-1.5-0.9-2.2-1.6
	c0.6,2,3.1,4.3,3.5,4.9C535.2,109.8,535.3,106.5,534,104.6 M532.4,95.5c1-3.5,3-5.6,3.7-7.6C532.6,90.4,531.8,94.2,532.4,95.5
	 M529.4,111c-0.5-3-0.3-5-1.8-7.7C527.2,106.5,529.1,110.5,529.4,111 M538.3,99.3c-2.4,3,1.3,6.7,1.3,6.7
	C539.5,106,539.8,100.4,538.3,99.3 M540,91.2c-3.5,2.7-1.9,5.1-1.2,6.5C539.5,95.1,539.8,94.4,540,91.2 M542.1,115.1
	c0.6-1.3,2.3-3.9,1.4-8.1c-0.3,3.2-2.3,4.6-2.3,4.6s-1.1-0.6-2-2.5C539.5,112.9,540.9,114,542.1,115.1 M560.2,91.6
	c-0.3,2,2.1,6.5,2.1,6.9C562.4,98.2,563.6,94.4,560.2,91.6 M555.4,83.7c-0.3,1.7,2.4,4.3,2.4,4.3S558.2,84.7,555.4,83.7 M559.4,96.7
	c-0.8,3.8-2.5,5.2-2.5,5.2s-1.3-1-2.4-2.5c-0.1,3.1,2.5,6,2.5,6S560.2,102.8,559.4,96.7 M551.8,89.7c-1.4,1.5-0.1,4.6,0.7,7.4
	C553.3,95.7,554.2,91.1,551.8,89.7 M553,85.4c0-1.4-0.4-3.7-3.5-4.2C549.4,82.8,552.1,83.8,553,85.4 M549.7,79.6
	c0.7,0.7,3,1.2,4.2,2.4C553.7,80.1,551.7,78.9,549.7,79.6 M546.6,88.4c-2.2,2.3-0.9,4.3-0.9,4.3C545.7,92.6,548.4,89.8,546.6,88.4
	 M549.8,110.8c0,0,2.7-2.5,3-7.8c-1.5,2.6-3.2,4-3.2,4s-1.5-1-2.7-2.5C547,107.9,549.8,110.8,549.8,110.8 M545.8,96.4
	c-2.4,3.6,0,7.4,0,7.4C545.8,103.7,547.5,98.7,545.8,96.4 M546.6,70.5c0.7,0.7,2.8,1.6,4,2.7C550.4,71.3,548.8,70.4,546.6,70.5
	 M547.7,72.6c-1.2-1.5-2.9-2-3.7-2.1C545,71.7,546,72.7,547.7,72.6 M552.1,76.3c-0.1-0.4-1.1-1.8-3.2-2.3c0.6,0.5,0.9,1.5,1.1,1.9
	c-0.4,0.2-1.6,0.3-1.9,0.4C548.9,76.9,550.3,77,552.1,76.3 M533,71c-0.2,0.1-0.4,0.7,0.3,0.7c0.6,0,0.7-0.6,0.7-0.6
	S533.3,70.8,533,71 M551.5,34.8c-0.7-0.5-1.1-0.9-1.8-1.3c-0.6,0.4-1.3,1-1.8,1.4c0.6,0.5,1.1,0.8,1.7,1.3
	C550.4,35.6,550.7,35.4,551.5,34.8 M540.2,69.5c0,0,0.2,0.4,0.1,1.2c-0.1,0.7-0.4,1.4-1.5,1.7c-1.2,0.3-2.4-0.4-2.4-1.7
	c0-0.3,0.1-0.7,0.2-1c-0.4,0-0.4,0.3-0.8,0.8c-0.2,0.3-0.6,0.3-1.1,0.6c0-0.7,0.8-1.8,1.6-2.2c1.3-0.6,5.7-0.8,8.9,0.9
	c-1.1-0.2-2-0.1-3.1-0.2C540.9,69.5,540.2,69.5,540.2,69.5 M539.6,69.5c-0.1-0.1-1.1-0.1-1.2,0.1c-0.1,0.2,0.6,0.5,0.8,0.6
	c0.1,0,0.3,0,0.4-0.2C539.8,69.8,539.7,69.6,539.6,69.5 M554.3,43.6c-8.7-0.5-25.7,0.4-34.1,2.7c0,0-0.9-2.2-1.6-3
	c-2.2-2.4-3.1,0.2-3.2,0.5c2.8,0.1,3.3,1.6,3.3,1.6c-0.7,1.2-1.2,1.6-2.7,2.7c-0.5,0.3-2.3,1.4-4.8,1.7c-5.3,0.3-3.8-5.2-0.6-7.5
	c-0.4,0.5-2.3,3.4-1.1,4.8c1.3,1.7,6.2,0.3,7.3-1.2c-0.6-0.6-1.8-0.8-3.6-0.6c0.1-0.9,0.5-3.1,3-5.2c0.9,0.2,3.5,1.6,4.4,3.8
	c7.7-2.1,21.8-2.6,22.5-2.7c-0.2-1.3-0.6-6.4-0.7-6.7c-0.1-0.8,0.5-1.2,1-1.5c0.6,1,1.1,1.5,2.4,2c-0.5,0.6-1,0.9-1.6,1.3
	c0.1,1,0.2,2.8,0.2,3.6c1.2-0.5,3-1.3,5.1-1.8c0.8-0.2,1.7-0.3,2.3-0.2c0.7,0.1,1.6,0.5,2.1,0.9c0.4,0.3,0.8,0.9,0.8,1.6
	C554.9,41.6,554.6,42.7,554.3,43.6 M552.5,40.3c-1.1-1.8-5.1-0.2-7.7,0.9c1.5,0,2.7-0.1,4.3,0c0.6,0,2.3,0,3.4,0.1
	C552.7,40.9,552.8,40.6,552.5,40.3 M516.2,49.7c-0.5-0.2-1-0.3-1.6-0.5c-0.4,0.6-0.8,1.3-1.1,1.8c0.8,0.2,1.3,0.4,2.2,0.7
	c0.3-0.5,0.5-0.8,0.8-1.3c0.5,0.2,0.9,0.3,1.5,0.5c0.5-0.7,0.7-1.1,1.2-1.8c-0.8-0.3-1.4-0.5-2.2-0.7
	C516.7,48.8,516.5,49.3,516.2,49.7 M580.5,43.2c1.7-0.1,3.3,0.3,4.1-0.5c-1.1-0.3-2.2-0.6-2.5-1.1c0.5-0.4,1.1,0.1,1.5,0.4
	c0.2-0.2,0.4-0.3,0.6-0.6c-1.1-0.9-2.8-0.4-3.2,0.6c0.3,0.2,0.8,0.4,1,0.6C581.5,42.6,580.9,43,580.5,43.2 M579.5,46.4
	c-0.7,1.6-1.3,3.3-2.1,4.7c0.5,0.2,1.1-0.2,1.6-0.5c2.1-1.3,3.7-4.9,4.5-7.1c0-0.1-1.2,0.3-1.9,0.6C580.4,44.7,580.1,45,579.5,46.4
	 M563.4,47.2c0.5,0.5,0.9,0.9,1.5,1.5c0.8-0.4,1.2-0.6,2.1-1.1c-0.6-0.6-1-1-1.6-1.5C564.7,46.4,563.9,46.9,563.4,47.2 M577.8,45.5
	c-0.4,1.2-1.2,1.9-1.8,2.6c-3-1.1-9.5-2.8-13.2-3.2c-1,1.1-2.4,2.5-4,2.9c-2.3-0.3-3.7-0.9-5.3-1.5c0.9,0,1.1,0,1.7,0
	c2.2-0.1,4.2-0.8,5.6-1.7c-3.1-0.5-3.9-1.3-2.4-3.3c0.7-0.9,1.8-2.6,3.5-2.1c1.3,0.3,1.6,2.2,1.5,3.6c3.7,0.5,8.4,1.7,11.9,2.9
	c0.2-1-0.4-1.5-0.8-2.3c0.6-0.6,1.3-1.2,2-1.6C577.7,42.3,578.2,44.4,577.8,45.5 M560.5,40.8c0,0-0.6,0.3-0.9,1
	c0.3,0.4,0.9,0.6,1.7,0.7c0.1,0,0.3,0,0.5,0C562.1,41.7,561.2,40.5,560.5,40.8 M521.3,48.3c0.7,0.3,1.3,0.6,2,0.9
	c0.6-0.7,0.8-1,1.4-1.7c-0.8-0.4-1.3-0.6-2.1-0.9C522.1,47.1,521.6,47.8,521.3,48.3 M611.1,185.4c-4.8,9.4-10.8,15.3-19,20.5
	c-12,7.6-24.4,5.8-28.5,3.4c0,0,0.3,0.8,0.4,1.1c0.1,0.3,0.3,0.7,0.4,1c1.6,4.3,0.5,8.8-5.3,9.5c-1.5,0.2-3.3,0.2-5.3,1.2
	c-1.4,0.7-3,1.8-4.7,3.5c-0.7,0.8-2.2,2.7-3,4.2l0,0c-0.8-1.5-2.3-3.4-3-4.2c-1.7-1.8-3.3-2.9-4.7-3.5c-2-0.9-3.8-1-5.3-1.2
	c-5.8-0.7-6.9-5.2-5.3-9.5c0.1-0.2,0.3-0.7,0.4-1l0.4-1.1c-3,1.7-10.3,3.1-18.9,0.7c-0.2-0.1-0.6-0.2-0.8-0.2
	c-6.9-1.8-13-5.2-18.1-10.1c-6.2-5.8-9.6-12.2-10.9-14.5c-11.4-23.5-9.8-58.4-9.8-62.1c-0.4-40.3,8.6-62.9,16.2-73.8
	c-2.3-3-3.7-4.9-3.8-5c-0.8-0.8-2.1-2-4.8-2.4c-0.7-5.3-2.7-11.5-2.7-11.5s5.3,3.8,10.2,5.9c-0.4,2.6,0.3,4.3,1,5.2
	c0.1,0.1,1.2,1.6,3,4c3.4-4.2,7-7.3,12.7-10.6c1.4-0.8,2.8-1.5,4.4-2.2c-0.1-2.2,0.6-4.2,2.1-5.6c0.1-1.2,1.1-2.8,2.4-3.3l0,0
	c1.3-0.3,3.3,0.3,4.2,1.2c2.1,0.3,4.2,1.4,5.7,3.1c4.7-1,10-1.7,16-2.1c0.7-3,2.6-5.1,5-6.3c0.6-1.3,2.4-2.6,3.9-2.7l0,0l0,0
	c1.5,0.1,3.3,1.4,3.9,2.7c2.4,1.2,4.3,3.3,5,6.3c6.1,0.4,11.4,1.1,16.1,2.1c1.5-1.7,3.5-2.8,5.7-3.1c0.9-0.9,2.9-1.5,4.2-1.2
	c1.3,0.5,2.3,2,2.4,3.3c1.4,1.4,2.1,3.5,2,5.6c1.6,0.7,3.1,1.4,4.4,2.2c5.7,3.3,9.6,6.8,12.9,10.7c2-2.7,3.3-4.3,3.3-4.5
	c0.7-1,1.4-2.6,1-5.2c4.9-2.1,10.2-5.9,10.2-5.9s-2,6.3-2.7,11.5c-2.7,0.4-4,1.6-4.8,2.4c-0.1,0.1-1.7,2.2-4.3,5.7
	c7.6,11,16.4,33.4,16,73.4C620.9,126.3,622.4,161.9,611.1,185.4 M607.5,59c-4.8,1-7.9,1-9.7,0.9c-1.2,2.6-2.2,5.1-2.1,9.5
	c-2-0.6-3-1.2-4-2.3c-1.4,1.8-2.1,2.8-3.6,4.7c12.6,22.6,12.6,43.4,12.9,49.3c9.8-5.6,16-10.9,17.3-11.9
	C617.1,88.4,613.9,72.6,607.5,59 M587.4,121.8c-0.3,2.4-0.3,4.4,0.3,6.7c1.1-1.5,1.9-2.9,2.8-5.5c0,2.1,0.6,4.4,1.1,5.3
	c1.5-2.2,2.4-11,2.4-11s0.1,0.2,0.8,0.5c0.8-3.1,0.4-9.6-0.3-12.7c-1.2-5.4-3.3-11.9-9.9-19.6c-3.4-4-6.2-2.2-9.1,0.9
	c-4.6,5-5.6,7.2-11.1,8.2c-0.1,0-0.1,0,0,0c-0.6,0.1-0.1,0.4,0.9,0.3c6.6-0.1,8.7-4.5,10.7-6.7c1.3-1.4,3-2.8,4.4-1.9
	c0.5,0.3,2.4,2.4,0.5,7.6c0-1.2-0.5-2.2-0.7-2.5c-0.8,3.4-2,6.2-3.4,8.5c-0.2-0.6-0.3-1.1-0.4-1.8c-0.7,4.2-4.4,8.5-5,14.5
	c-0.4-0.6-0.7-1.1-0.8-2.6c-2.8,5.2-5.8,14.6-3.9,19.3c-0.1-4.8,2.8-11.7,4.4-13.8c-1.9,6.1-4.2,13.8-2.3,18.3
	c0.1-3.9,2.4-10.3,4-13c-2.7,10.1-3.8,15.3-0.8,19.2c-0.5-3.8,1-9.5,3.1-14.2c-1.4,7.9-3.4,14.8,0.3,18.2c-0.5-5.2,1.4-12,2.5-14.4
	c-1.2,7.6-2.3,15,0.2,18.6c0-2.6,0.5-5.4,1-7.9c0.7-3.3,1.6-6.5,1.6-6.5s-0.8,5.3-1.2,11.8c-0.1,1.1-0.1,2.2-0.1,3.3
	c0,1.3,0.1,2.7,0.4,4c0.2,1.1,0.6,2.3,1.1,3.3c0.7-8.6,1.7-16,2.8-19.4c0,0-1,8-1.6,20.3c0,0.5,0,0.9,0,1.3
	c-0.8,17.7,1.6,23.4,2.3,25.1c0,0-0.2-0.3-0.2-2.6c-0.1-1.9-0.1-1.8,0.1-3.9c0.1-0.6-1.6-3.9-1.3-8.3c0.1-2.6,0.3-5.2,0.5-7.8
	c0.2-2.3,0.4-4.6,0.7-6.8c0.3-2,0.4-3.9,0.7-5.9c0.4-2.9,0.9-5.7,1.4-8.5c0.4-2.2,0.2-0.3,0.1,0.3c-0.2,2.5-0.7,8.1-1.1,13.8
	c-0.3,4.3-1.2,12.7-1,16.9c0.2,3.5,1.2,5.1,1.2,5.6c-0.2,6.9,0.5,9.7,1.7,12.3c0,0,0.7-2.5,1.3-5.5c-0.1,0.2-0.3,0.5-0.7,0.6
	c-0.9-2.3-1.3-6.2-0.7-10.2c0.1-0.7-1-1.6-0.9-4.9c0.1-5.1,0.8-10.1,1.4-15.2c0.2-1.7,0.4-3.3,0.7-4.8c0.2-1,0.3-2,0.5-3
	c0.2-1.6,0.5-3.2,0.9-4.8c0-0.3,0.1-0.5,0.1-0.7c0,0,0,1.2-0.1,2.7c-0.6,6.8-2.1,24.2-2.1,25.6c-0.1,3.4,0.9,4.4,0.8,5.1
	c-0.2,2.4-0.1,7,0.2,8.1c0.3-1,0.5-2.8,0.5-2.8s1-7.1,2.1-17.1c0.2-1.6,0.3-3.1,0.5-4.6c0.2-1.4,0.3-2.9,0.5-4.5
	c0.2-1.8,0.4-3.6,0.5-5.4c0.1-0.8,0.1-1.6,0.2-2.3c0.4-4.7,0.9-10.1,1.3-14.8c0,0,0.6-7.6,0.8-10c-0.2-0.2-0.4-0.3-0.4-0.3
	s-0.9,9.4-3.4,12.8c-0.7-0.6-1.5-4.1-1.4-5.3c-0.6,1.9-2.9,4.4-2.9,4.4s-0.8-1.9-0.7-5c-0.8,1.1-1.4,2-2.6,2.6c-0.5-1-1.1-2.3-1-5.2
	c-0.4,0.5-1.1,1.2-2.1,1.8c-0.3-0.7-2-3.4,1-13.3c-1.2,9.1-0.5,10.2-0.2,10.9c0.5-0.2,1-0.6,1.4-0.9c0.1-1.7,0.4-3.8,0.9-6.5
	c-0.4,7.2,0.1,9.5,0.7,10.9C585.1,126.4,586.1,125,587.4,121.8 M565.2,124.9c0.7-9.4,2.3-15,3.6-19.9
	C563.8,110.5,564.6,123,565.2,124.9 M566.1,104.5c1.5-4.7,0.2-7.1-0.7-7.6C565.4,99.1,566,100.1,566.1,104.5 M570.1,108.4
	c1.2-4.3,1.9-6.9,1.9-10.5C570.9,99.1,570,103.8,570.1,108.4 M574.4,99.1c0.4-1.5,0.4-3.6,0.2-5.2c-0.7,1.6-1.5,5.1-1.3,8.2
	C573.6,101.2,574.1,100.2,574.4,99.1 M563,134.6c0-0.1,0-0.2,0.1-0.2c0,0,0,0,0.1,0s0.1,0,0.1,0c0.1,0,0.3,0.1,0.6,0.3
	c0.2,0.1,0.4,0.2,0.6,0.4c-0.4-0.8-0.4-2-0.5-3.4c-0.1-1.4-0.1-2.9-0.5-4.3c0,0-0.1-0.1-0.1-0.2c-0.2,0.7-0.7,1.3-1.2,2
	c-0.7,0.9-1.5,1.9-1.7,3.2l-0.1,0.3l-0.2-0.2c0.4,0.3-1-1.3-1.1-1.3c-0.5,2.1-4.1,6.5-4.9,7.4l0,0c-0.1,0.1-1.5,2.2-2,7.1
	c-0.5,4.7,0,7.6,0,7.6l1.3-1.4c0,0,0.1,1.3-0.1,2.8c-0.1,1.2-0.5,2.1-0.5,2.1s2.5,0.4,4.4-1.9l0.3,0.9c0.3,0.9,0.6,2-0.1,2.5
	c-0.1,0.1-1.3,1.1-1.2,2.1c0.1,0.4,0.3,0.7,0.7,1l0,0v0.1c0.1,0.6,0.5,0.9,0.8,1c-0.1-0.5-0.1-0.8,0-1c0.3-0.7,0.7-0.8,1.1-0.9
	c0.3,0,0.6,0.1,0.6,0.1s0.3,2.9,0.6,4c0.2,1,0.5,2.4,0.6,3.8c0,0.3,0.1,0.7,0.1,1c0.1,1,0.7,1.1,1.2,1.1c0.3,0,0.9,0,1.2,0l0,0h-0.1
	c-0.8,0.2-0.7,0.5-0.7,0.6c0.1,0.4,0.3,1,0.1,1.9l0.1,0.1c1.1-0.6,1.1-1.6,1-2.6v-0.1h0.1c0.9-0.5,0.7-2.2-0.6-4.8
	c-0.6-1.2-0.8-3.3-0.4-3.5l0,0c0.2,0,0.5,0,1,0.8c0.4,0.6,0.8,1.1,1.3,1.7s0.8,1.1,0.8,1.6c0,0.2-0.1,0.3-0.2,0.4
	c-0.1,0.1-0.2,0.1-0.3,0.1c-0.3,0-0.6,0-0.8-0.1c0.3,0.3,1.3,1.5,1.6,1.1c0.8-0.9,0.1,0.5,1.4,0.7c0.9,0,1.5-0.5,1.5-1.6
	c0-0.4,0-0.6-0.1-0.9c-0.2-1-1-2-1.3-2.4l-0.3-0.3c-2.3-2.5-2.1-3.1-1.9-3.3c0.2-0.4,0.4-0.5,1-0.5c0.9,0,1.9,0.1,1.9,0.1
	c0.9,0.2,2.4,0.4,2.4,0.9c0,0.1-0.1,0.2-0.2,0.3c-0.3,0.1-0.8,0.3-0.9,0.2c0.1,0.1,0.4,0.4,0.9,0.6c0.4,0.2,2,0.6,2.4-0.1l0.1-0.3
	c0.3,0,1.1-0.1,1.2-0.6c0.2-0.5-0.5-1.2-1.1-1.5s-2.1-0.9-3.4-1.3c-0.5-0.1-1.2-0.3-1.7-0.4l-2.7-0.7c-0.1,0-1.5-0.5-2.1-0.7
	c-0.3-0.1-0.5-0.2-0.6-0.3c-0.5-0.2-0.8-0.5-1.2-1c-0.3-0.4-0.6-1.6-0.9-2.8c0.3,0.2,1.2,0.7,2.2,0.9c-0.1-0.4-0.1-1.8-0.1-2.5
	c0.4-4.5,0.5-7.1,0.5-7.1s0.8,0.8,0.9,1c0.1-0.8-0.1-2.7-0.3-4.6l0,0C563.8,138.5,563.4,136.4,563,134.6 M566.3,156.1l2.1,0.6
	c0.3,0.1,0.7,0.2,1,0.2c0.4-1,0.6-2.1,0.5-3.1c-0.1-1.2,2.7,1.3,4.4,3.1c0.8,0.7,0.9,0.4,0.5-0.2c-1.8-2.4-5.3-4.8-6.3-5.4
	c-1.7-1.1-2.6-0.8-2,0.1C567.2,152.6,567,154.3,566.3,156.1 M569.5,173.8c2,2.5,5.2,7.3,6.5,8.6c2.7,2.8,3.8,3.1,5.8,3.2
	c-0.6-1.9-1.4-3.7-4.4-8.6c-1.6-2.6-4.4-6.7-7.1-9.9c0,0.5,0,1-0.2,1.4c0,0.1-0.1,0.2-0.1,0.3c-0.2,0.3-0.4,0.6-0.7,0.8
	c-0.4,0.3-1,0.5-1.6,0.4s-1-0.3-1.4-0.6c-0.3,0-0.6-0.1-1-0.3c0.1,1-0.1,1.7-0.5,2.2c0,0.6-0.1,1.8-1,2.7c0.1,0.1,0.1,0.2,0.1,0.2
	c0.7,1.2,0.4,1.8,0.1,2.1c-0.3,0.3-3.5,3.9-4.2,4.5c-0.9,0.8-1.8-0.1-1.8-0.1l-0.5-0.4c0,0-0.8,0.8-1.5,1.5c0.1,0.1,0.1,0.1,0.2,0.2
	c1,1,2.3,1.7,3.6,2.2c1.2,0.5,4.6,1.8,6.9,2.7c-0.6-1.7-1.2-3.6-1.8-5.5c0.6,0.8,2.2,3.7,3.6,6.3c-0.1,0,0.2,0.1,0.1,0
	c1.8,0.8,4.3,2.1,6.1,3.2c-0.2-0.7-0.3-1.1-0.3-1.1s-1.7-1.8-2.9-3.4c-2.3-3.4-3.9-6.9-4.6-9.2c2.6,4,3.3,5.1,4.4,6.5
	c3.3,4.5,6.9,6.4,8.3,6.5c-0.5-2.5-1.4-3.1-1.4-3.1s-1.6-1.4-3.4-3.8c0.4,0.6,0.8,1.1-0.1-0.1c-0.7-0.9-0.4-0.6-0.1-0.1
	C573,181.1,571.2,177.9,569.5,173.8 M560.3,195.8c4.5,0.6,14.2,0.4,17.7-0.9c-1.3-1.1-6.8-4.6-15.3-8c-1.7-0.8-4-1.6-5.5-2.7
	c-0.9-0.7-1.6-1.2-2.5-2c-2.8-2.5-10.1-10.2-11.4-11.6l-4.9,4.5c0,0,12.9,12.6,16.1,14.3c4.2,2.3,16,4.9,16,4.9s-9.1-0.7-16-3.5
	c-4.2-1.7-17.3-14.7-17.3-14.7L534,179c1.6,1.8,5.2,5.8,10.9,10.4C548.9,192.9,553.8,195,560.3,195.8 M546.4,192.9
	c0,2.5,2,5,2.5,5.4c0,0,0.8-0.9,1.1-3.4C548.4,194.2,547.2,193.5,546.4,192.9 M524.4,177c-0.7,2.4-2.3,5.8-4.6,9.2
	c-1.1,1.7-2.9,3.4-2.9,3.4s-0.1,0.3-0.2,0.8l-0.3,0.2l1.9-1.1c0.3-0.1,0.6-0.3,1-0.5c1.3-0.7,2.7-1.3,4.1-1.9c1.4-2.5,3-5.4,3.5-6.2
	c-0.1,0.6-0.5,2.3-1.9,5.5l1-0.4c2.2-0.9,4.1-1.6,5-2c1.5-0.7,2.2-1.3,2.8-1.7c0.1-0.1,0.3-0.3,0.6-0.6l-1.6-1.6l-0.5,0.4
	c0,0-0.9,0.9-1.8,0.1c-0.7-0.6-3.9-4.2-4.2-4.5c-0.3-0.4-0.7-1,0.1-2.1c0,0,0,0,0.1-0.1c-1-0.9-1.1-2.2-1.1-2.8
	c-0.5-0.5-0.6-1.2-0.5-2.2c-0.3,0.2-0.7,0.3-1,0.3c-0.3,0.3-0.8,0.6-1.3,0.6h-0.1c-0.6,0-1.1-0.1-1.5-0.4c-0.4-0.4-0.4-0.3-0.8-1
	c0-0.1-0.1-0.1-0.1-0.1c-1.8,1.9-3.6,4.4-6,8.4c-3.1,4.9-3.8,6.7-4.5,8.6c2-0.1,3.2-0.4,5.8-3.2c1.2-1.3,4.4-6,6.5-8.6
	c-1.7,4.2-3.6,7.4-5.1,9.5c-1.8,2.5-3.6,4-3.6,4s-0.8,0.5-1.2,3c1.4,0,4.9-2,8.3-6.5C521.1,182.2,521.8,181,524.4,177 M522.6,163.7
	c-1,1-1.8,2.2-1.8,3.7c0,1.1,0.7,1.6,1.6,1.6c1.4-0.1,0.7-1.6,1.4-0.7c0.3,0.4,1.3-0.8,1.6-1.1c-0.6,0.1-1.4,0.2-1.3-0.7
	c0.1-0.6,0.6-1.2,1-1.7c0.4-0.4,1.5-2.6,2.2-2.3c0.3,0.2,0.1,2.2-0.4,3.5c-1.2,2.6-1.4,4.3-0.6,4.8h0.1v0.1c-0.1,0.9-0.1,1.9,1,2.6
	l0.1-0.1c-0.3-0.9,0-1.4,0.1-1.9c0-0.1,0.1-0.4-0.7-0.6h-0.1l0,0c0.3,0,0.9,0.1,1.2,0c0.5-0.1,1.1-0.2,1.2-1.1c0-0.3,0.1-0.7,0.1-1
	c0.2-1.5,0.4-2.8,0.7-3.8c0.2-1.2,0.6-4,0.6-4s0.3-0.1,0.6-0.1c0.4,0,0.8,0.2,1.1,0.9c0.1,0.2,0.1,0.5,0,1c0.3-0.1,0.7-0.4,0.8-1
	v-0.1l0,0c0.4-0.3,0.6-0.6,0.7-1c0.1-1-1-2.1-1.2-2.1c-0.7-0.6-0.5-1.6-0.2-2.5l0.4-1.1c0.4,0.5,0.8,0.9,1.4,1.2
	c1.7,1.2,3.3,0.9,3.3,0.9s-0.4-0.9-0.5-2.1c-0.2-1.5-0.1-2.8-0.1-2.8l1.3,1.4c0,0,0.7-2.5,0.3-7.2c-0.6-5.5-1.7-7.6-2-8.3
	c-0.4-1.2-1.1-2.4-1.1-2.4s-0.1,0.7-1,1.4c-1-1.3-2.9-3.9-3.4-5.7c-0.3,0.5-0.7,1-1.1,1.3l-0.2,0.2v-0.3c-0.2-1.3-0.9-2.3-1.7-3.2
	c-0.5-0.7-1-1.3-1.2-2c-0.4,1.4-0.5,3-0.6,4.4c-0.1,1.4-0.2,2.6-0.6,3.4c0.3-0.1,0.5-0.3,0.7-0.4c0.3-0.2,0.5-0.3,0.6-0.3h0.1l0,0
	c0.1,0.1,0.1,0.1,0.1,0.2c-0.4,1.8-0.8,4-0.9,5.3c-0.2,1.9,0,3.6,0.1,4.3c0.1-0.1,1.4-0.8,1.4-0.8s-0.8,2.7-0.4,7.2
	c0,0.7,0,2.1-0.1,2.5c0.8-0.1,1.6-0.5,2-0.8c-0.3,1.2-0.6,2.3-0.9,2.7c-1.1,1.5-3.5,1.9-5.2,2.4c-2.1,0.6-4.3,1-6.3,2
	c-0.7,0.3-1.3,1-1.2,1.5c0.2,0.5,0.9,0.6,1.2,0.6l0.1,0.3c0.5,0.7,2.1,0.3,2.4,0.1c0.5-0.2,0.8-0.5,0.9-0.6
	c-0.1,0.1-0.6-0.1-0.9-0.2c-0.1-0.1-0.2-0.2-0.2-0.3c-0.1-0.9,3.7-1,4.3-1s0.8,0.1,1,0.5C524.6,160.6,524.8,161.2,522.6,163.7
	 M523.7,151.5c0.6-1-0.3-1.2-2-0.2c-1,0.6-4.6,3-6.4,5.4c-0.4,0.6-0.3,0.9,0.5,0.2c1.8-1.8,4.5-4.3,4.4-3.1c0,1.1,0.1,2.1,0.5,3.1
	c0.3-0.1,0.6-0.1,0.8-0.2l2.3-0.6C523.2,154.3,523,152.5,523.7,151.5 M519.8,115.9c1.5,2.2,4.5,9.1,4.4,13.8
	c1.8-4.7-1.1-14.1-3.9-19.3c0,1.5-0.4,2-0.8,2.6c-0.5-6-4.3-10.4-5-14.6c-0.1,0.7-0.2,1.3-0.4,1.8c-1.4-2.4-2.5-5.1-3.4-8.6
	c-0.2,0.3-0.7,1.3-0.7,2.5c-1.9-5.2-0.1-7.3,0.5-7.6c1.4-0.8,3.1,0.5,4.4,2c2,2.2,4.1,6.6,10.7,6.7c1.1,0,1.5-0.3,0.9-0.3l0,0
	c-5.5-1-6.5-3.2-11.1-8.2c-2.9-3.1-5.7-4.9-9.1-0.9c-6.6,7.7-8.7,14.2-9.8,19.6c-0.7,3-1.1,9.5-0.3,12.7c0.8-0.3,0.8-0.5,0.8-0.5
	s0.9,8.8,2.4,11c0.4-0.9,1.1-3.3,1.1-5.4c0.8,2.6,1.6,4,2.8,5.5c0.6-2.2,0.6-4.2,0.3-6.7c1.3,3.2,2.3,4.5,3.1,5
	c0.5-1.4,1.1-3.7,0.7-10.9c0.5,2.7,0.8,4.8,0.9,6.5c0.4,0.3,0.9,0.7,1.4,0.9c0.3-0.7,1-1.8-0.2-10.9c3.1,9.9,1.3,12.6,1,13.3
	c-1-0.6-1.7-1.3-2.1-1.8c0.1,2.9-0.5,4.2-1,5.2c-1.2-0.6-1.8-1.5-2.6-2.6c0.1,3.1-0.7,5-0.7,5s-2.3-2.5-2.9-4.4
	c0,1.2-0.7,4.7-1.4,5.3c-2.5-3.3-3.4-12.8-3.4-12.8s-0.2,0.1-0.4,0.3c0.1,2.3,0.4,5.9,0.8,9.9l0,0c0.4,4.7,0.9,10.1,1.3,14.8
	c1,11.3,2.3,22.6,3.8,33.9c0,0,0.2,1.9,0.5,2.9c0.3-1.1,0.4-5.7,0.2-8.1c-0.1-0.6,0.9-1.6,0.8-5c0-1.4-1.6-18.8-2.1-25.6
	c-0.1-0.9-0.1-2.7-0.1-2.7c0,0.2,0.1,0.5,0.1,0.7c0.5,2.6,0.9,5.2,1.3,7.8c0.2,1.5,0.5,3.2,0.7,4.9c0.7,5,1.3,10.1,1.4,15.2
	c0.1,3.3-1,4.2-0.9,4.9c0.6,4,0.1,8-0.7,10.2c-0.3-0.1-0.6-0.4-0.7-0.6c0.6,3.1,1.3,5.5,1.3,5.5c1.2-2.6,1.9-5.4,1.7-12.3
	c0-0.5,1-2.1,1.2-5.6c0-1.1-0.1-4.4-0.4-8.5c-0.5-7.4-1.2-14.8-1.7-22.2c0-0.3-0.1-1.2-0.1-1.3c0.1,0.3,0.2,0.7,0.2,1
	c2.1,9.5,2.9,19.4,3.4,29c0.2,4.4-1.4,7.6-1.3,8.3c0.2,2.2,0.2,2,0.2,4c-0.1,2.3-0.2,2.6-0.2,2.6c0.7-1.7,3.1-7.4,2.3-25.1
	c0-0.4,0-0.9-0.1-1.3c-0.6-12.3-1.6-20.4-1.6-20.4c1.1,3.4,2.1,10.9,2.8,19.5c0.1-0.1,0.2-0.3,0.3-0.4c1.2-3.3,1.4-6.6,1.2-10.1
	c-0.4-6.5-1.2-11.8-1.2-11.8l0.2,0.5c0.2,0.7,0.8,2.6,1.5,5.9c0.5,2.3,0.8,4.6,1,7c0,0.3,0,0.7,0,1c2.4-3.7,1.4-11,0.2-18.6
	c1.1,2.4,3.1,9.3,2.5,14.5c3.7-3.5,1.7-10.3,0.3-18.2c2.1,4.7,3.6,10.4,3.1,14.2c3-3.9,1.9-9.1-0.8-19.1c1.6,2.7,3.9,9,4,13
	C524,129.6,521.7,122,519.8,115.9 M553,138.2c0,0,1.6-1.5,2.2-6.5c0.3,0.4,0.9,0.7,1,1.4c1-1.2,3-7.9,3.2-10.2
	c0.7,0.3,0.1,0.1,0.8,0.5c0.5-1,1.7-4.8,2.2-10c0.3,0.1,0.7,0.1,0.9,0.3c0.4-2.4,0.7-6.3,0.8-9c0.1-2.3,0-7.1-1-9.9
	c-1-2.7-1.4-4.2-3-6.7c0,0-0.6,0.3-0.8,0.7c-0.4-1.3-1.7-4.5-2.3-5.7c-1.5-2.9-2.2-4.8-3.8-5.8c0.7,0,1,0.2,1.9,0.2
	c-1-1-1.4-1.6-2.5-2.5c0.4-0.3,1-0.2,2.1-0.1c-1.6-1.4-2.1-3.6-6.1-5.1c0.7-0.1,1.3,0.1,2.2,0.1c-0.5-0.8-1.7-2.1-3.7-2.7
	c-4.1-0.8-9.7-0.9-12.4,2.2c-0.2,0.2-0.9,0.4-1.6,0.6c-0.4,0.2-0.6,0.3-0.7,0.4c-0.4,0.3-0.6,0.8,0.3,2c-1.2-0.2-1.4-1.3-1.7-1.2
	c-0.4,0.3-0.8,0.6-1.2,1.2c-0.4,0.6-0.7,1.8-0.6,2.3c0.1,0.1,1.1,0.6,1.3-0.6c0.1-0.4,1.8-0.6,2.5-0.6c0.9,0,1.7,0.2,2.9,0.2
	c-0.4,0.1-1.7,0.5-2.1,0.6c-0.5,0.1-0.6,0.7-0.1,0.7c0.5,0.1,0.7-0.2,1.3-0.3c0.2,0.1,0,0.7,0.2,1c3.3-0.7,3.5,2.8,7.1,2.1
	c-1.7-1.3-3.1-3.5-4.4-4.1c3.5,0.5,5.3,3.7,9.1,3.8c-0.1-0.4-0.1-0.4-0.4-1c1.3,0,2.2,1,2.6,1c-0.5,0.5-1.6,0.9-3,1.1
	c0.3,0.5,1.7,0.6,2.1,0.7c-0.8,0.7-1.6,1-3.3,0.7c-0.6,0.5-1.3,1.7-3.7,3.2c0-0.6,0-0.6,0.1-1.2c-1.6,0.9-2.7,2.6-3.9,3.1
	c0.4-0.6,0.7-1.6,0.9-2.2c-4.2,3.8-8.2,7.5-9.8,10.3c-1.7,3.1-2.2,6.3-2,11.5c0.1,2.8,1.4,10.8,1.6,12.3c0.3-0.1,0.6-0.3,0.8-0.4
	c1,5.8,4.1,14.1,5.6,16.7c0.3-0.7,0.5-0.9,0.9-1.3c0.3,1.6,1.1,3.3,2.4,4.5c0-1.1,0.4-1.7,0.5-2c0.3,1.1,0.2,4.7,2.2,6.6
	c-0.1-1,0.2-1.8,0.5-3.1c0.4,1.1,0.4,2.5,1,3.7c0.6,1.3,1.4,2.7,2.2,3c-0.1-2.8,0.3-2.6,0.4-3.8c0,0.2,1.1,1.2,1.6,4.7
	c2-1.6,2.8-6.8,2.8-6.7c0,0,0.6,0.5,1,1.9c1.8-1.9,2.3-4.3,2.9-6.2C553.1,136.3,553.1,137.6,553,138.2 M555,165.5
	c2.5,0,3.1,0,4.1-0.2c-0.1-0.3-0.1-0.6-0.2-0.8c0-0.2,0-0.4-0.1-0.6c0,0,0,0-0.1,0c-0.9,0.2-2.5,0.7-4.7,0.3c-1-0.2-1.1-0.2-1.9-0.5
	c-0.7-0.2-1.9,1-2.8,2c-0.8,0.8-1.8,2-2.3,2.5c-0.1,0.1-0.1,0.2,0,0.3c0.8,0.8,11,10.1,11.6,10.6c0.2,0.1,0.3,0.2,0.5,0
	c0.4-0.5,1.1-1.2,1.8-1.8c0,0-10-9.5-10.2-9.6c-0.1-0.1-0.2-0.3-0.1-0.4s0.5-0.5,0.6-0.6c0.1-0.1,0.3-0.1,0.5,0.1
	c0.1,0.2,3.3,3.1,3.3,3.1l4.3,3.8l2.7,2.4c0.4-0.4,0.3-0.3,0.4-0.4c0.4-0.4,0.3-0.7-1.1-2.1c-0.4-0.4-7.1-7-7.1-7
	C553.8,165.8,554.2,165.5,555,165.5 M539.4,167.7c-0.2,0.1-10.2,9.6-10.2,9.6c0.6,0.6,1.3,1.4,1.8,1.8c0.2,0.2,0.3,0.2,0.5,0.1
	c0.6-0.6,10.8-9.9,11.6-10.6c0.1-0.1,0.1-0.2,0-0.3c-0.5-0.5-1.5-1.7-2.3-2.5c-0.9-1-2.1-2.2-2.8-2c-0.8,0.2-0.9,0.3-1.9,0.5
	c-2.2,0.4-3.8-0.1-4.7-0.3c-0.1,0-0.1,0-0.2-0.1c0,0.3-0.1,0.5-0.1,0.7s-0.1,0.4-0.1,0.7c1.1,0.2,1.6,0.2,4.2,0.2
	c0.8,0,1.3,0.3,0.6,1c0,0-6.7,6.6-7,7c-1.4,1.3-1.5,1.6-1.1,2.1c0.1,0.1,0.1,0,0.4,0.4l2.7-2.4l4.3-3.9c0,0,3.2-2.9,3.3-3.1
	c0.1-0.2,0.4-0.1,0.5-0.1c0.1,0.1,0.5,0.5,0.6,0.6C539.6,167.3,539.5,167.5,539.4,167.7 M540.4,143.9c0,0,0-0.6-0.4-1.4
	c-0.2-0.4-0.9-0.9-1.2-1.3c-0.3-0.3-0.3-0.5-0.3-0.5c-0.1,0.4,0.1,1.3,0.2,1.7c0.1,0.4,0.4,0.8,0.9,1.1
	C540.1,143.9,540.4,143.9,540.4,143.9 M540.3,163.2c0,0,0.7,0.7,0.9,0.9c0.2-1,0.7-4.5,0.5-4.8C540.4,161.5,540.3,163,540.3,163.2
	 M536.2,163c0.4-0.1,1.3-0.6,1.8-0.7c0.1,0,0.3-0.1,0.4-0.1c0.3-1,0.8-2.6,1.1-3.4C539.3,158.8,536.7,162.3,536.2,163 M543.7,166.7
	c0-1.4-0.1-2.8-0.2-3.5c-0.4,0.6-0.7,1.5-0.9,2.4C542.7,165.7,543.6,166.6,543.7,166.7 M544.4,157.6c0,0-0.3-1.8-1.6-2.3
	C542.9,156.6,544.4,157.6,544.4,157.6 M545.4,154.7L545.4,154.7L545.4,154.7c0,0,0.2-0.5,0.9-1c0.5-0.3,3.3-2.1,3.9-2.8
	c0.6-0.7,0.8-1.8,0.8-1.8s-0.5,0.8-1.6,1.5c-1,0.5-3.2,1.9-3.6,2.6c-0.2,0.3-0.3,0.6-0.3,0.9c0-0.2-0.1-0.4-0.2-0.7
	c-0.7-1.4-2.8-2-4-3.5c-0.8-0.9-0.8-1.3-0.8-1.3c0,1,0.1,1.7,0.5,2.2c0.4,0.5,1.4,1.4,2.8,2.3C545.1,154.1,545.4,154.7,545.4,154.7
	 M544,149.6c0-2.3-2.5-2.5-3-4.8C540.7,148,542.9,148,544,149.6 M545.2,158.6c0,0,0.3-0.1,1-0.6c0.7-0.4,1.2-0.8,1.5-1.4
	s0.3-1.2,0.2-1.6c0,0-0.1,0.6-1,1.4c-0.4,0.3-0.9,0.8-1.1,1.2C545.4,158.1,545.2,158.6,545.2,158.6 M547.4,159.9
	c0.2,1.3,0.4,4.5,0.5,5.5l0,0c0.4-0.4,0.8-0.8,1.1-1.1C548.9,163.8,548.4,161.3,547.4,159.9 M545.3,168.1c0.1-0.1,0.8-1,1.2-1.4
	l0.1-0.1c-0.2-1.7-0.6-3.9-1.2-4.7C545.3,162.8,545.3,165.8,545.3,168.1 M545.3,169.1c0,0.8,0,1.3,0.1,1.6c0-0.1,0.8-0.9,0.8-0.9
	S545.6,169.3,545.3,169.1 M545.9,171.7c1.4,1.5,3.3,3.5,4.5,4.7c0.8-0.8,1.3-1.3,1.3-1.3l-4.9-4.5
	C546.7,170.9,546.3,171.3,545.9,171.7 M551.6,177.6c1.1,1,2.2,2.2,3.2,3.1c0.6-0.6,1-1.1,1.4-1.5l-3.2-2.9
	C553,176.3,552.5,176.8,551.6,177.6 M552.6,162.5c-0.5-0.7-1.9-2.5-3-3.5c0.8,1.9,1.1,3.1,1.3,3.5c0.1,0,0.1-0.1,0.2-0.1
	c0.2-0.1,0.4-0.1,0.6-0.1s0.4,0.1,0.7,0.2C552.3,162.5,552.5,162.5,552.6,162.5 M551.4,144.2c-0.6,1-1.1,1.6-2,2.3
	c0.3-0.7,0.3-1.5,0.3-1.6c-0.4,0.8-1.3,1.9-1.9,2.5c-1.5,1.4-1.7,2.8-1.7,2.8s0.4-0.5,2.1-1.5C550.1,147.6,550.8,145.9,551.4,144.2
	 M528.7,124.5c0,1.8,1.2,4.2,2.9,5.2C530.6,127,529.8,126.1,528.7,124.5 M565.3,92.1c0.7,0,1.4-0.1,1.9-0.5c0.6-0.3,0.7-0.5,0.8-0.8
	c4.2-6.1,12-15.9,17.8-23.6c-11.9-11.8-29-12.6-33.5-12.3c-1.1,0.1-2.3,0.9-0.9,2.6c-1,0.4-4.6,0.1-6-1.2c-1.4,1.3-5,1.6-6,1.2
	c1.3-1.7,0.1-2.6-0.9-2.6c-4.5-0.3-22.5,1.4-33.3,12c6,7.9,18.5,24.4,18.7,24.8c0.3,0.3,0.9,0.7,1.6,0.7h0.3c0.7,0,1.3-0.5,1.9-1.2
	c1.3-1.4,1.9-2.2,3.2-3.5c2.5-2.5,4.8-4.4,5.2-4.8c1-1,1.4-1.7,1.4-2.5c-0.1-0.9-0.8-1.3-1.2-1.8c0,0.1-0.2,0.2-0.2,0.3
	c-0.4-0.3-0.8-1.7-0.8-1.7l-0.2,0.7c0,0-0.9-2.2-2.4-2c-2,0.3-3.3-0.6-3.4-0.6s-0.2,0.6-0.2,1.4H529c-1.4-1.2-1.8-4.2,0.9-6.1
	c1.6-1.2,1.9-1.1,3.2-1.7c0.5-0.2,0.9-0.8,1.1-0.9c0.9-1,2.5-1.6,3.5-1.9c1.2-0.3,4.1-0.7,7-0.6c1.6,0.1,3.1,0.5,4.3,0.9
	c0.8,0.4,3.3,2.2,4.7,4c0.9,1.2,2.4,4.5,3.3,6.7c1.8,4.5,1.6,4,2.8,6.9c1.4,3.4,2.3,5.3,3.6,7.2C563.9,91.8,564.4,92.1,565.3,92.1
	 M586.8,66.1c0.4-0.5,0.8-1.1,1.2-1.6c-5.5-4.8-13.6-9.7-22.5-11.6c-6-1.3-10.8-1.4-13.8-1.4c-2.5,0-4.1,1-4.1,2.5
	c-1.5-0.3-2-2.2-2.2-2.6c-0.1,0.8-0.9,2.4-2.1,2.6c0-1.6-1.6-2.5-4.1-2.5c-3,0-7.8,0-13.8,1.4c-9.1,2-16.9,6.4-22.3,11.3
	c0.4,0.5,0.8,1.1,1.2,1.6c4.9-4.6,11.4-8.3,18.4-10.3c5.8-1.7,12.9-2.3,16.1-2.1c2.9,0.1,3.3,1.8,3,2.7c1.3,0.1,3.2-1,3.6-1.8
	c0.3,0.6,2.1,1.9,3.7,1.8c-0.4-0.9,0.1-2.5,3-2.7c3.3-0.1,10.4,0.5,16.2,2.1C575.1,57.5,581.9,61.6,586.8,66.1 M590.1,60.2
	c0.6,2.1,1.3,4.5,3.1,5.9c0.2,0.2,0.5,0.4,0.8,0.5l0,0c0-4.1,1.4-6.3,2.4-8.7l0,0c1.5,0.2,3.5,0.8,7.5,0.1c-3.8-2.6-3-5.5-5.9-8.7
	c-0.3-0.3-0.7-0.7-1.1-1c-1-0.7-1.8-1-2.3-1c-0.7,0-1.1,0.4-1.3,0.6c-0.4,0.4-4.4,4.7-7,7.7C588.7,55.6,589.4,57.7,590.1,60.2
	 M592.7,46c-2.7-2.6-6.9-5.6-12.1-7.8c-13.3-5.9-30.3-5.9-35.1-5.9l0,0l0,0c-4.8,0-21.8,0-35.1,5.9c-5.1,2.2-9.4,5.2-12.1,7.8
	c0,0,6.1,6.8,7.6,8.6c0.8,1,1.1,1.8,0.6,3.2c9.3-6.2,19.8-9.3,38.6-9.4h0.9c18.5,0.2,29.3,3.3,38.5,9.5c-0.5-1.4-0.2-2.2,0.6-3.2
	C586.6,52.8,592.7,46,592.7,46 M497.6,48L497.6,48c-0.4-0.4-1.3-1.3-3.7,0.4c-4.1,3.6-2.8,6.8-7.1,9.7c1.5,0.3,2.7,0.4,3.8,0.4
	c0.7,0,1.3,0,1.8-0.1c0.8-0.1,1.4-0.2,2-0.3l0,0c1.1,2.4,2.4,4.6,2.4,8.6c5-2.6,2.9-11.1,7.6-11C501.9,52.7,498.1,48.5,497.6,48
	 M500.8,65.1c3.7,4.9,6.4,8.5,7,9.3c1.3,1.8,5.6,7,5.6,6.3c0-0.4-2.7-4.1-4.4-6.4c-2.5-3.3-5-6.8-7.5-10.1
	C501.3,64.5,501,64.9,500.8,65.1 M518.9,98.1c0,3.6,0.7,6.1,1.9,10.5C521,104,520,99.4,518.9,98.1 M516.4,94.1
	c-0.3,1.6-0.2,3.7,0.1,5.2c0.3,1.1,0.8,2.1,1.2,3C517.9,99.2,517.1,95.7,516.4,94.1 M525.8,125.2c0.6-2,1.3-14.5-3.6-19.9
	C523.4,110.1,525.1,115.8,525.8,125.2 M512.1,195c3.5,1.4,13.2,1.5,17.7,0.9c5.8-0.7,10.2-2.5,14-5.1c-1-0.8-2.2-1.9-3.4-3.1
	c-1.9,1.6-3.7,2.8-4.8,3.2c-6.9,2.8-16,3.5-16,3.5s11.9-2.7,16-5c0.8-0.4,2.1-1.5,3.7-2.8c-1.5-1.5-3.1-3-4.2-4.1
	c-0.8,0.7-1.4,1.1-2.2,1.7c-1.5,1.1-3.8,1.9-5.5,2.7C519,190.4,513.5,193.9,512.1,195 M540.4,194.9c0.4,1.1,1,2.6,1.4,3.3
	c0,0,2.2-1.8,2.9-6c-0.4,0.3-1.1,0.9-1.7,1.3C542,194.2,541.1,194.7,540.4,194.9 M583.8,74.1c0.5-0.7,3-4.1,6.4-8.6
	c-0.2-0.3-0.5-0.6-0.7-0.9c-2.3,3.1-4.7,6.3-7,9.4c-1.7,2.3-4.4,6-4.4,6.4C578.1,81.1,582.5,75.9,583.8,74.1 M603.4,51.6
	c-0.4,0.5-1.2,1.6-1.2,1.6c1,1.9,2.2,3.9,5.2,5.5C606.2,56.3,604.8,53.9,603.4,51.6 M600.6,50c0.1,0.1,0.5,0.8,0.6,1
	c6.9-9.2,13.3-17.6,13.3-17.6s-2.7,1.9-6.5,3.7c0.4,2.1-0.9,4.7-1.4,5.3C606.2,42.6,604,45.6,600.6,50 M490.4,47.4
	c0.3,0.4,0.7,0.9,1,1.4c5.1-6.6,12-11.3,20.3-14.4c-0.6-1-1.6-3.2,0.9-5.5c3.6,0.4,4.5,2.6,4.7,3.7c6.5-1.7,14.1-2.8,22.7-3.1
	c0.3-5.9,4.5-7.3,4.5-7.3s0-1.1,1-1.5l0,0c0.9,0.4,1,1.5,1,1.5s4.2,1.4,4.5,7.3c8.6,0.3,16.2,1.4,22.7,3.1c0.2-1.1,1.1-3.3,4.7-3.7
	l0,0c2.4,2.4,1.5,4.5,0.8,5.5c8.3,3.1,15.4,8,20.6,14.6c0.4-0.5,0.7-1,1.1-1.4c-4.8-6-11.6-10.8-18.8-13.8c0.8-2.3,0-4.3-1.4-5.7
	c0-1-0.6-1.8-1.1-2.1l0,0c-0.7-0.1-1.7,0.2-2.4,1c-2.1,0.3-4.1,1.4-5.2,3.6c-5.3-1.3-11.4-2.2-19.1-2.6c-0.2-3.5-2.2-5.7-4.8-7
	c-0.5-1.3-1.6-1.9-2.5-2.2c-0.9,0.2-2,0.9-2.5,2.2c-2.5,1.2-4.6,3.4-4.8,7c-7.7,0.4-13.7,1.3-19.1,2.6c-1.1-2.2-3.1-3.3-5.2-3.6
	c-0.7-0.7-1.7-1.1-2.4-1c-0.6,0.3-1.1,1.1-1.1,2.1c-1.4,1.4-2.2,3.4-1.4,5.7C501.7,36.7,495.2,41.4,490.4,47.4 M490,50.6
	c0.2-0.4,0.4-0.7,0.6-0.9c-3.1-4.1-5.3-6.9-5.5-7.1c-0.5-0.6-1.8-3.2-1.4-5.3c-3.9-1.8-6.5-3.7-6.5-3.7S483.2,41.7,490,50.6
	 M483.5,58.8c0.6-0.4,2.6-1.6,3.8-3.3c0.6-0.9,1.1-1.7,1.5-2.5l-1.3-1.7C486,53.8,484.7,56.3,483.5,58.8 M472.7,109.2
	c1.2,1,7.4,6.3,17.3,11.9c0.2-5.9,0.4-27,13-49.6c-1.4-1.9-2.1-2.7-3.5-4.6c-1.1,1.1-2.4,1.9-4.3,2.4c0.1-4.5-0.9-6.9-2.1-9.5
	c-1.8,0.1-4.8,0.1-9.6-0.9C477.1,72.6,473.9,88.4,472.7,109.2 M530.3,205.1l0.1-0.2c0.3-1,2-4.9,2.8-6.9c-0.1-0.3-0.2-0.7-0.3-1
	c-1.1,0.2-2.3,0.4-3.4,0.5c-0.8,0.1-12,1.8-20.2-2c1-0.7,2.8-2.2,5.4-3.8c0-0.2,0-0.3,0.1-0.5c-2,1.1-3.8,1.3-5.3,1.2
	c-0.1-1.3,0.2-3,0.9-4.9c-1.9,0.4-3.3,0-3.3,0s1.2-4,3.9-8.7c2.5-4.4,5.9-8.9,8.9-12.6c0.3-1.5,1.4-2.7,1.6-2.8
	c0.1-0.1,0.4-0.5,0.5-0.6c-0.3-0.3-0.7-0.6-1-0.8c-0.3,0.4-0.6,0.5-0.8,0.6c-0.9,0.4-1.5,0.6-2,0.6c-1,0-1.6-0.2-2-0.7l-0.1-0.1
	c-0.8-0.2-1.3-0.6-1.5-1.3c0-0.1,0-0.3,0-0.4c-0.6,0.2-1,0.2-1.5-0.2c-0.7-0.6,0.3-3.8,3.7-7c2.4-2.3,4.7-3.6,6.8-4.5
	c1.6-0.7,2.5,0.6,1.8,1.6c-0.9,1.1-1.7,3.1-0.7,5.3c1-0.3,1.4-0.5,1.5-0.6c0.4-0.1,0.9-0.3,1.4-0.9c0.1-0.1,0.1-0.2,0.2-0.4
	l-1.4,0.1c0.7-1.8-0.4-6.2,0.3-9.1c-0.2,0.1-0.7,0.5-1,0.6c-0.5-2.6-0.4-6.7-0.3-8.8c0-0.5-0.8-1.4-1.8-2.5
	c-0.8,2.1-2.2,4.5-4.6,7.5c-1.8,2.2-5.1,4.3-6.8,11.5c0,0,0,0,0,0.1c-0.3,1.1-0.7,2.2-1.2,3.3c-1.1,2.3-1,3.6-1,3.6l0,0
	c0.1,4.5-0.1,13.9-1.2,19.2c-1,4.6-2.6,7-2.6,7l-0.3-0.2c-0.4,1.6-1.2,4.3-3,6.5c0,0-1.5-3.1-4.3-26.5c-3.1-25.8-4.6-52.7-4.6-52.7
	l0,0c-0.3-4.8,0.8-10.3,2.1-14.4c2.5-6.5,6.9-12.8,9.5-15.4c1.7-1.6,3.5-2,5.3-1.6c-0.5-0.7-1.1-1.4-1.1-1.4
	c-1.8-2.3-3.8-4.9-5.6-7.2c-12.6,22.2-12.3,48.7-12.3,48.9v2.8l-2.2-1.2c-9.9-5.6-14.2-9-17.4-11.7c-0.1,2.7-0.4,11.8-0.4,11.8v5.5
	c0,10.6,1.9,36.5,10.5,54.4c1.2,2.2,4.4,8.2,10.2,13.7c4.4,4.1,9.6,7.1,15.3,8.9c0.3,0.1,1,0.3,1.3,0.4
	C516.1,209.1,523.3,208.6,530.3,205.1 M529.8,212.5c1.3-1.1,3.4-1.9,5.9-0.8c0.1-3.1,0.7-7.8,1.3-11.9c-1,1-1.9,1.5-2,1.5
	c-0.1,0-0.3-0.2-0.5-0.4C532.6,205.6,529.9,212.4,529.8,212.5 M554.9,214.8c0.1-3.3-1.2-12.1-2-17.1c-0.1-0.1-0.2-0.3-0.3-0.4
	c-0.2-0.2-0.3-0.4-0.5-0.7c-0.3,1-0.6,2.1-1.1,3.1c-0.5,1.2-1.5,2.5-1.6,2.5c-0.2,0-2.5-1.7-4-5c-1.5,3.2-3.8,4.9-4,4.9
	c-0.2,0-1.1-1.3-1.6-2.5c-0.2-0.6-0.5-1.1-0.7-1.7c-0.8,5.3-1.9,13.7-1.8,16.9c-4.9-3.2-7.9,0-6.8,2.2c0.1,0.2,0.2,0.4,0.3,0.6
	c0.6,0.8,1.3,1.2,2.4,1.3c1.6,0.1,3.6,0.3,6,1.4c2.2,1,4.5,2.7,6.9,5.6c2.4-2.9,4.7-4.6,6.8-5.6c2.4-1.1,4.5-1.3,6-1.4
	c1.1-0.1,1.8-0.6,2.4-1.3c0.1-0.2,0.2-0.4,0.3-0.6C562.8,214.8,559.8,211.5,554.9,214.8 M562.4,212.5c0-0.1-3-7.7-4.8-12.3
	c-0.4,0.6-0.9,1.1-1,1.1c-0.1,0-0.8-0.4-1.6-1.2c0.7,3.6,1.3,8.2,1.5,11.6C559,210.6,561.1,211.4,562.4,212.5 M618.8,124.2
	c-0.1-3.5-0.3-9.4-0.4-12c-3.3,2.7-6.5,5.4-16.9,11.4l-2.7,1.5v-2c0-0.2,0.8-26.6-12.1-49.4c-0.8,1.1-3.5,4.5-6.3,8.1
	c1.6-0.2,3.3,0.2,4.8,1.7c2.7,2.6,7,8.9,9.5,15.4c1.4,4.1,2.4,9.6,2.2,14.4c0,0-1.6,26.9-4.6,52.7c-2.8,23.4-4.3,26.5-4.3,26.5
	c-1.8-2.2-2.5-4.9-3-6.5l-0.2,0.2c0,0-1.6-2.4-2.6-7c-1.1-5.3-1.3-14.6-1.2-19.2l0,0c0,0,0.1-1.3-1-3.6c-0.5-1.1-0.9-2.1-1.2-3.3
	l0,0c-1.7-7.2-5-9.2-6.8-11.5c-2.2-2.7-3.8-5.5-4.8-7.8c-0.1,0-0.1,0.1-0.2,0.1c-1.2,1.1-2.1,2.3-2.2,3c0.4,4.2,0.8,7.2,0.2,9.3
	c-0.3-0.1-0.7-0.6-0.9-0.7c0.3,2.8-1,6-0.2,8.6l-1.6-0.2c0.1,0.2,0.1,0.3,0.2,0.4c0.2,0.3,0.5,0.5,0.9,0.7c0.1,0,0.4,0.2,0.5,0.3
	c0.2,0.1,0.6,0.2,1.7,0.6c1-2.1,0.2-4.1-0.7-5.2c-0.8-0.9,0.1-2.4,1.8-1.6c2.1,0.9,4.4,2.2,6.8,4.5c3.4,3.3,4.4,6.4,3.7,7.1
	c-0.6,0.5-1,0.4-1.7,0.1c0,0.1,0,0.2-0.1,0.4c-0.2,0.6-0.7,1-1.5,1.3l-0.1,0.1c-0.4,0.5-1,0.7-2,0.7c-0.9,0-1.9-0.5-2-0.6
	c-0.2-0.1-0.4-0.2-0.7-0.5c-0.2,0.2-0.4,0.3-0.6,0.5c2.7,3.7,7.9,9.7,11.7,16.4c2.6,4.7,3.9,8.7,3.9,8.7s-1.4,0.5-3.3,0
	c0.7,1.9,1,3.5,0.9,4.8c-1.4,0-3.3-0.1-5.3-1.2c0.1,0.3,0.1,0.6,0.1,0.9c1.7,1.2,3.5,2.6,4.4,3.2c-8.2,3.8-20,2.1-20.2,2
	c-0.6-0.1-1.1-0.2-1.5-0.2c-0.1,0.2-0.2,0.5-0.3,0.8c0.8,1.9,2.7,6.3,3.1,7.2c5.2,2.4,10,3.9,17.4,2.7c0,0,1.3-0.1,4.4-1.2
	c3.2-1.1,9.3-4.7,14-9.1c5.8-5.5,9.4-11.2,10.5-13.5c9-17.6,10.5-43.8,10.5-54.4C618.8,126.3,618.8,124.4,618.8,124.2"/>
<path id="XMLID_7_" d="M21,141.7h9c3.7,0,6.4,1.3,7.9,4.5c1.2,2.5,1.3,8.3,1.3,9.3c0,6.2-0.6,9.9-1.8,11.8c-1.6,2.5-4.6,3.8-9.7,3.8
	h-6.8L21,141.7L21,141.7z M24.7,167.7h3.5c5.2,0,7.1-1.9,7.1-8.8V153c0-5.9-1.8-8.1-5.7-8.1h-4.9V167.7z M61.1,171v-3.3H49.5v-10.1
	H60v-3.3H49.5v-9.4h11.4v-3.2H45.8V171H61.1z M66.5,171v-29.3h8.7c3.9,0,8.2,1.5,8.2,8.4c0,6.7-5.2,8-8.2,8h-4.9V171H66.5z
	 M70.3,154.8h4.1c1.5,0,5.2-0.4,5.2-5c0-4.5-3.3-4.9-4.2-4.9h-5.1V154.8z M93.2,141.7H98l9.5,29.3h-4.2l-2.1-7H89.9l-2.2,7h-3.8
	L93.2,141.7z M95.5,145.1L95.5,145.1l-4.7,15.6h9.4L95.5,145.1z M115.1,157.5V171h-3.7v-29.3h10.1c5.2,0,7,3.7,7,7.3
	c0,3.4-1.9,6.1-5.4,6.7v0.1c3.4,0.5,4.6,1.7,4.8,7.5c0,1.3,0.5,5.8,1,7.7H125c-1.1-2-0.8-5.9-1.1-9.8c-0.3-3.6-3.2-3.7-4.4-3.7
	L115.1,157.5L115.1,157.5z M115.1,154.3h5.6c2.7,0,4-2.3,4-4.9c0-2.1-1-4.5-3.9-4.5h-5.7C115.1,144.9,115.1,154.3,115.1,154.3z
	 M131.3,141.7v3.3h7.7v26h3.7v-26.1h7.7v-3.3h-19.1V141.7z M157.8,144.9L157.8,144.9L166,171h3.5l8.2-26.1h0.1V171h3.7v-29.3h-6.2
	l-7.5,24.6h-0.1l-7.4-24.6h-6V171h3.5C157.8,171,157.8,144.9,157.8,144.9z M203.5,171v-3.3h-11.6v-10.1h10.6v-3.3h-10.6v-9.4h11.4
	v-3.2h-15.2V171H203.5z M225.5,141.7v25.1h-0.1L214,141.7h-5.3V171h3.3v-25.4h0.1l11.6,25.4h5.1v-29.3H225.5z M232.8,141.7v3.3h7.7
	v26h3.7v-26.1h7.8v-3.3h-19.2V141.7z M264.8,160.3v-9.6c0-5.9,3-9.6,9.2-9.6s9.2,3.7,9.2,9.6v9.6c0,8.1-3,11.3-9.2,11.3
	C267.8,171.6,264.8,168.4,264.8,160.3 M279.4,160.4v-9.9c0-6.1-4.2-6.3-5.4-6.3s-5.4,0.2-5.4,6.3v9.9c0,6.4,1.9,8.1,5.4,8.1
	S279.4,166.9,279.4,160.4 M293.2,171v-13.4h10.3v-3.3h-10.3v-9.4H304v-3.2h-14.6V171H293.2z M320.8,171v-13.4H331V171h3.7v-29.3H331
	v12.7h-10.3v-12.7H317V171H320.8z M357,171v-3.3h-11.6v-10.1H356v-3.3h-10.6v-9.4h11.4v-3.2h-15.1V171H357z M368.5,141.7h4.8
	l9.5,29.3h-4.2l-2.1-7h-11.3l-2.2,7h-3.8L368.5,141.7z M370.8,145.1L370.8,145.1l-4.7,15.6h9.4L370.8,145.1z M401.2,171v-3.3h-10.8
	v-26.1h-3.7V171H401.2z M399.6,141.7v3.3h7.7v26h3.7v-26.1h7.7v-3.3h-19.1V141.7z M426.6,171v-13.4h10.3V171h3.7v-29.3h-3.7v12.7
	h-10.3v-12.7h-3.7V171H426.6z M35.2,83.4c0.6,0,1.2-0.2,1.7-0.7c0.4-0.5,0.7-1,0.7-1.7c0-0.6-0.2-1.2-0.7-1.6
	c-0.5-0.5-1-0.7-1.7-0.7c-0.6,0-1.2,0.2-1.7,0.7s-0.7,1-0.7,1.6s0.2,1.2,0.7,1.7C34.1,83.2,34.6,83.4,35.2,83.4 M27.5,83.4
	c0.6,0,1.2-0.2,1.7-0.7s0.7-1,0.7-1.7c0-0.6-0.2-1.2-0.7-1.6c-0.5-0.5-1-0.7-1.7-0.7c-0.6,0-1.2,0.2-1.6,0.7c-0.5,0.5-0.7,1-0.7,1.6
	s0.2,1.2,0.7,1.7C26.3,83.2,26.8,83.4,27.5,83.4 M241.9,75.4v32.7h-3.1h-12.4h-12.3h-12.4c0,0,0,0-0.1,0l0,0h-3.1V88.2l-1.9,0.1
	c-3.3,0.1-6.2,0.6-8.8,1.4c-2.5,0.8-4.8,1.7-6.7,2.8c-1.9,1.1-3.6,2.3-4.9,3.7c-1.4,1.3-2.5,2.7-3.3,4.1v-6.8h-3.6v14.7h-4.1h-12.4
	h-12.4H128h-12.4h-1.2c-0.5,0-0.9,0-1.3-0.2c-0.3-0.1-0.6-0.3-0.9-0.5c-0.2-0.1-0.4-0.4-0.6-0.7c-0.2-0.3-0.4-0.8-0.5-1.4
	c-0.2-0.7-0.3-1.5-0.5-2.6c-0.1-1.1-0.3-2.5-0.4-4.2c-0.5-7.1-3.8-10.6-9.8-10.6c-1.5,0-2.8,0.3-4.1,0.7c-1.3,0.5-2.3,1-3.2,1.7
	l2.2,2.8c1.7-1.1,3.3-1.6,5-1.6c0.7,0,1.4,0.1,2.1,0.2c0.7,0.1,1.3,0.4,1.9,0.9c0.6,0.5,1.1,1.2,1.5,2.2c0.4,1,0.7,2.3,0.8,4
	c0.1,2.3,0.3,4.2,0.6,5.7c0.2,1.5,0.6,2.7,1.1,3.6h-18H77.9H65.5H53.1H40.7h-2.3c-0.6,0-0.8-0.3-0.8-1V86.9
	c-1.2,0.3-2.7,0.9-4.5,1.6c-1.9,0.8-3.7,1.8-5.5,3.1s-3.4,2.8-4.7,4.7c-1.3,1.8-2,4.1-2,6.6c0,1,0.1,2,0.4,3c0.3,1,0.8,2,1.6,2.9
	s1.9,1.7,3.3,2.3c1.4,0.7,3.3,1,5.7,1.2l0.3-3.6c-2.7-0.2-4.6-0.7-5.8-1.5c-1.2-0.8-1.8-2.2-1.8-4.2c0-1.5,0.3-2.8,1-3.9
	c0.7-1.1,1.5-2.1,2.5-3s2-1.6,3.1-2.2c1.1-0.6,2.1-1.1,2.9-1.5l0.1,15.1c0,1.5,0.3,2.6,1.1,3.4c0.7,0.8,1.7,1.2,2.8,1.2h2.8h12.4
	h12.4h12.4h12.4h25.4h12.4h12.4h12.4h12.4h36.4l0,0c0,0,0,0,0.1,0h12.4h12.4h12.4h6.7V75.8h-4V75.4z M194.9,108.1h-21.8
	c0.3-1,0.8-2.3,1.6-4c0.8-1.7,2-3.3,3.6-5c1.6-1.7,3.8-3.2,6.5-4.5s6.1-2.2,10.2-2.5v16H194.9z M251,111.7h3.6V75.6H251V111.7z
	 M287,111.7h-3.8c-1.2,0-2.5-0.2-4-0.5s-2.9-0.9-4.2-1.6s-2.4-1.7-3.3-2.9c-0.9-1.2-1.3-2.7-1.3-4.5c0-1.7,0.3-3.1,1-4.5
	c0.6-1.3,1.4-2.6,2.5-3.6c1-1.1,2.1-2,3.4-2.9c1.3-0.8,2.5-1.5,3.7-2.1c1.3-0.6,2.4-1,3.5-1.4s1.9-0.6,2.6-0.7v24.7H287z M283.4,108
	V92c-0.8,0.4-1.8,0.8-2.9,1.4c-1.1,0.6-2.1,1.3-3.1,2.2s-1.8,1.8-2.5,2.9c-0.7,1.1-1,2.3-1,3.7c0,1.1,0.3,2,0.9,2.7
	c0.6,0.7,1.3,1.3,2.3,1.8c0.9,0.5,1.9,0.8,2.9,1c1.1,0.2,2,0.3,3,0.3L283.4,108L283.4,108z M279.7,81.1c0,0.6-0.2,1.2-0.7,1.7
	s-1,0.7-1.7,0.7c-0.6,0-1.2-0.2-1.7-0.7c-0.4-0.5-0.7-1-0.7-1.7c0-0.6,0.3-1.2,0.7-1.6c0.5-0.5,1-0.7,1.7-0.7c0.7,0,1.2,0.2,1.7,0.7
	C279.5,79.9,279.7,80.4,279.7,81.1 M287.5,81.1c0,0.6-0.2,1.2-0.7,1.7s-1,0.7-1.7,0.7c-0.6,0-1.2-0.2-1.7-0.7
	c-0.4-0.5-0.7-1-0.7-1.7c0-0.6,0.3-1.2,0.7-1.6c0.5-0.5,1-0.7,1.7-0.7c0.6,0,1.2,0.2,1.7,0.7C287.3,79.9,287.5,80.4,287.5,81.1
	 M403.9,84.8c-0.7-0.4-1-1-1-1.9c0-0.6,0.2-1,0.6-1.3c0.4-0.2,0.8-0.3,1.4-0.3c0.9,0,1.9,0.2,3,0.7l0.7-1.7
	c-1.2-0.5-2.5-0.8-3.7-0.8c-0.9,0-1.8,0.2-2.6,0.8c-0.8,0.5-1.2,1.4-1.2,2.6c0,0.5,0.1,1.1,0.3,1.6s0.4,0.8,0.6,0.9h-3v1.8h9.2v-1.8
	h-1.7C405.5,85.4,404.6,85.2,403.9,84.8 M403.5,108.1h-6.9h-12.4h-12.4h-10.2h-12.4H337h-12.4h-12.4h-12.4l0,0h-3.1V90.5h-3.6v22.8
	c0,1.2-0.1,2.4-0.1,3.6c-0.1,1.1-0.3,2.2-0.7,3.1c-0.4,0.9-1,1.6-1.7,2.2c-0.8,0.6-1.8,0.8-3.2,0.8v3.6c2.1,0,3.8-0.4,5-1.2
	c1.2-0.8,2.2-1.8,2.8-3.1c0.7-1.3,1.1-2.7,1.3-4.3c0.2-1.6,0.3-3.1,0.3-4.6v-1.6h3.1l0,0h12.4h12.4H337h12.4h12.4H372h12.4h12.4
	h10.5V90.6h-3.6v17.5H403.5z M412.7,111.7h3.6V75.6h-3.6V111.7z M423,93.9c1.3-0.9,2.5-1.5,3.5-1.9c1-0.3,2-0.5,3-0.5
	c1.1,0,2.2,0.3,3.1,0.8s1.7,1.2,2.3,2.1c0.6,0.9,1.1,1.9,1.4,3c0.3,1.2,0.5,2.4,0.5,3.7c0,1.6-0.2,3.1-0.5,4.2s-0.6,2.1-0.9,2.7
	h-14.8v3.6h17c0.2-0.3,0.4-0.8,0.7-1.5c0.3-0.7,0.6-1.5,0.9-2.4s0.5-1.9,0.7-3.1c0.2-1.1,0.3-2.3,0.3-3.6c0-1.6-0.2-3.3-0.7-4.8
	c-0.5-1.6-1.1-3-2-4.2s-2.1-2.2-3.4-3c-1.4-0.8-3-1.1-4.8-1.1c-2,0-3.7,0.3-5.1,1s-2.6,1.4-3.5,2.2L423,93.9z"/>
</svg>
