<?xml version="1.0" encoding="utf-8"?>
<!-- Generator: Adobe Illustrator 28.3.0, SVG Export Plug-In . SVG Version: 6.00 Build 0)  -->
<svg version="1.1" id="layer" xmlns="http://www.w3.org/2000/svg" xmlns:xlink="http://www.w3.org/1999/xlink" x="0px" y="0px"
	 viewBox="0 0 652 204.5" style="enable-background:new 0 0 652 204.5;" xml:space="preserve">
<style type="text/css">
	.st0{fill:#007BB6;}
	.st1{fill:#1686BC;}
</style>
<g transform="translate(-0.021 -1.825)">
	<g transform="translate(0 18.713)">
		<path class="st0" d="M90.3,166.1c-3.8,0.2-7.1-2.6-7.4-6.5c0-0.2,0-0.4,0-0.5v-13.5H86v13.3c-0.2,2.2,1.4,4.2,3.7,4.4
			c0.2,0,0.4,0,0.6,0c2.2,0.1,4.2-1.6,4.3-3.8c0-0.2,0-0.4,0-0.6v-13.3h3.1v13.5c0,3.8-3.1,7-6.9,7
			C90.7,166.1,90.5,166.1,90.3,166.1"/>
		<path class="st0" d="M115,165.9h-8.3v-20.3h8c3.8,0,6.2,2.1,6.2,5.6c0,1.9-1.1,3.6-2.8,4.3c1.9,0.8,3.2,2.6,3.1,4.7
			c0.1,3.1-2.3,5.6-5.4,5.8C115.6,166,115.3,166,115,165.9z M109.8,157v6.2h4.9c1.7,0.2,3.2-1.1,3.4-2.8s-1.1-3.2-2.8-3.4
			c-0.2,0-0.4,0-0.6,0L109.8,157L109.8,157z M109.8,148.4v5.8h4.6c2.1,0,3.4-1.1,3.4-2.9s-1.3-2.9-3.4-2.9H109.8z"/>
		<path class="st0" d="M130.6,165.9h-3.3l7.6-20.3h2.5l7.6,20.3h-3.3l-1.4-4.1H132L130.6,165.9L130.6,165.9z M136.2,150.2l-3.2,9
			h6.3L136.2,150.2z"/>
		<path class="st0" d="M159,165.9h-7.2v-20.3h7.2c2-0.1,3.9,0.6,5.3,1.9c1.7,2.1,2.5,4.9,2.1,7.6c0,0.2,0,0.3,0,0.5s0,0.3,0,0.5
			c0,2.9,0,5.8-2.1,7.9C162.8,165.3,160.9,166,159,165.9z M154.9,148.4v14.8h3.8c1.3,0.1,2.6-0.4,3.5-1.4c1.1-1.2,1.1-3.5,1.1-6.2
			c0-2.9-0.1-4.7-1.1-5.9c-0.9-0.9-2.2-1.4-3.5-1.4L154.9,148.4z"/>
		<path class="st0" d="M175.5,165.9h-3.3l7.6-20.3h2.5l7.6,20.3h-3.3l-1.4-4.1h-8.1L175.5,165.9L175.5,165.9z M181,150.2l-3.2,9h6.3
			L181,150.2z"/>
		<path class="st0" d="M196.6,165.9v-20.3h3.1v17.5h9.9v2.8H196.6z"/>
		<path class="st0" d="M217.9,165.9h-3.3l7.6-20.3h2.5l7.6,20.3H229l-1.4-4.1h-8.2L217.9,165.9L217.9,165.9z M223.5,150.2l-3.2,9
			h6.3L223.5,150.2z"/>
		<path class="st0" d="M256.5,166.1c-2,0-4-0.7-5.4-2.2c-2-2-2-4.3-2-8.2c0-3.9,0-6.2,2-8.2c1.4-1.4,3.4-2.2,5.4-2.2
			c3.7-0.2,6.9,2.6,7.4,6.2h-3.2c-0.3-2-2.1-3.5-4.2-3.5c-1.1,0-2.2,0.4-3,1.2c-1,1.1-1.2,2.3-1.2,6.3c0,4.1,0.2,5.2,1.2,6.3
			c0.8,0.8,1.9,1.2,3,1.2c2.1,0.1,3.9-1.4,4.2-3.5h3.2C263.4,163.6,260.2,166.3,256.5,166.1"/>
		<path class="st0" d="M278.6,166.1c-2,0-4-0.7-5.4-2.2c-2-2-2-4.2-2-8v-0.4c0-3.8,0-6,2-8c1.4-1.4,3.4-2.2,5.4-2.2s4,0.7,5.5,2.2
			c2,2,2,4.2,2,7.9v0.6c0,3.7,0,5.9-2,7.9C282.6,165.4,280.6,166.1,278.6,166.1z M278.6,148.2c-1.2,0-2.3,0.4-3.1,1.3
			c-1,1.1-1.2,2.2-1.2,6.3c0,4.1,0.2,5.2,1.2,6.3c0.8,0.8,1.9,1.3,3.1,1.3s2.3-0.4,3.1-1.3c1-1.1,1.2-2.2,1.2-6.3
			c0-4.1-0.2-5.2-1.2-6.3C280.8,148.7,279.7,148.2,278.6,148.2L278.6,148.2z"/>
		<path class="st0" d="M309.6,165.9v-13.6l-4.8,9.9h-2.3l-4.9-9.9v13.6h-3.1v-20.3h3.1l6,12.6l5.9-12.6h3.1v20.3H309.6z"/>
		<path class="st0" d="M325.1,165.9H322v-20.3h7.8c3.4-0.3,6.3,2.2,6.6,5.6c0,0.2,0,0.4,0,0.6c0,3.4-2.7,6.1-6.1,6.2
			c-0.2,0-0.4,0-0.5,0h-4.7L325.1,165.9L325.1,165.9z M325.1,148.4v6.8h4.5c1.8,0.2,3.4-1.1,3.6-2.8c0-0.2,0-0.3,0-0.5
			c0.1-1.8-1.3-3.3-3.1-3.4c-0.2,0-0.4,0-0.5,0h-4.5V148.4z"/>
		<path class="st0" d="M343.4,165.9h-3.3l7.6-20.3h2.5l7.6,20.3h-3.3l-1.4-4.1H345L343.4,165.9L343.4,165.9z M349,150.2l-3.2,9h6.3
			L349,150.2z"/>
		<path class="st0" d="M377.2,165.9l-9.5-14.3v14.3h-3.1v-20.3h2.9l9.5,14.3v-14.3h3.1v20.3H377.2z"/>
		<path class="st0" d="M396.1,157.6v8.3H393v-8.3l-6.2-11.9h3.4l4.3,8.9l4.3-8.9h3.4L396.1,157.6z"/>
		<path class="st0" d="M414.5,59.5c-12.9,0.2-23.4,10.5-23.9,23.4v42.5H402V82.9c-0.1-6.6,5.1-12,11.7-12.2c0.3,0,0.5,0,0.8,0h10
			V59.5L414.5,59.5L414.5,59.5z"/>
		<path class="st0" d="M312.3,125.4h-11.4v-5.7c-5,3.7-10.9,5.6-17.1,5.7h-9.7c-6.3-0.1-12.3-2.6-16.7-7.1
			c-4.5-4.3-7.1-10.2-7.2-16.4v-19c0.5-12.9,11-23.2,23.9-23.3h14.3c4.4,0,8.7,1.2,12.4,3.6v-19h11.4v81.2H312.3z M274.1,70.7
			c-6.6-0.3-12.2,4.8-12.5,11.3c0,0.3,0,0.5,0,0.8v19c0.3,6.7,5.7,12.1,12.5,12.2h9.8c9.3-0.1,16.9-7.6,17-16.9v-16
			c0-5.9-5.5-10.5-12.4-10.5L274.1,70.7z"/>
		<path class="st0" d="M382.2,125.4h-11.4v-5.7c-5,3.7-11.1,5.8-17.3,5.7h-9.2c-13,0-23.9-9.7-23.9-21.1c0-11.3,10.5-20.1,23.9-20.1
			h26.4V83c0.1-6.6-5.1-12.1-11.7-12.2c-0.3,0-0.6,0-0.8,0h-10.9c-4.2,0.1-8.1,2.3-10.5,5.9h-12.4c3.2-10,12.4-16.9,22.9-17.1h10.9
			c12.9,0.2,23.4,10.5,24,23.4V125.4L382.2,125.4z M344.3,95.5c-7,0-12.5,3.9-12.5,8.8c0,4.7,5.1,9.8,12.5,9.8h9.3
			c9.1,0,16.6-7.2,17.1-16.3v-2.3H344.3z"/>
		<path class="st0" d="M170.4,125.4H159v-5.7c-5,3.7-11.1,5.8-17.3,5.7h-9.2c-13,0-23.9-9.7-23.9-21.1c0-11.3,10.5-20.1,23.9-20.1
			h26.4V83c0.1-6.6-5.1-12.1-11.7-12.2c-0.3,0-0.6,0-0.8,0h-10.9c-4.2,0.1-8.2,2.3-10.5,5.9h-12.4c3.2-10,12.4-16.9,22.9-17.1h10.9
			c12.9,0.2,23.4,10.5,24,23.4V125.4L170.4,125.4z M132.5,95.5c-7,0-12.5,3.9-12.5,8.8c0,4.7,5.1,9.8,12.5,9.8h9.3
			c9.1-0.1,16.6-7.2,17.1-16.3v-2.3H132.5z"/>
		<path class="st0" d="M217.6,84.2h-19.1c-4,0.2-7.4-2.8-7.7-6.8c0.4-3.9,3.8-6.9,7.7-6.6H218c4.2,0.1,8.2,2.3,10.5,5.9H241
			c-3.2-10-12.4-16.9-22.9-17.1h-19.6c-10.2-0.3-18.7,7.7-19.1,17.8c0.4,10.2,8.9,18.3,19.1,18.1h19.1c7,0,12.5,3.9,12.5,8.8
			c0,4.7-5.1,9.8-12.5,9.8h-15.3c-4.2-0.1-8.1-2.3-10.5-5.8h-12.4c3.2,10,12.4,16.9,22.9,17.2h15.3c13,0,23.9-9.7,23.9-21.1
			C241.5,93,231,84.2,217.6,84.2"/>
		<path class="st0" d="M85.7,44.3l-25.8,65.1L34.1,44.3H20.4v81.1h11.4v-55l20.9,55h14.4l20.9-55v55h11.4V44.3H85.7z"/>
	</g>
	<g transform="translate(186.574 0.953)">
		<path class="st1" d="M364.5,21.5c-11.9,0.1-23.3,4.8-31.9,13.1l0,0c-1.1,1.1-2.2,2.3-3.2,3.5l0,0c-12.8,15.5-13.6,37.6-1.9,54l0,0
			l0,0l0,0c-3.3-0.9-6.4-2.5-9.1-4.7l0,0c-5.3-4.2-8.7-10.4-9.5-17.1l0,0c-0.1-0.9-0.1-1.8-0.1-2.7l0,0c0.1-10.5,6.6-19.9,16.4-23.7
			l0,0h0.1l-7.2-18H318c-17.3,6.7-28.7,23.2-28.9,41.7l0,0c0,1.6,0.1,3.2,0.3,4.7l0,0c2.3,20,17.6,36.1,37.4,39.5l0,0l0,0l0,0
			c-3,1.6-6.4,2.7-9.8,3l0,0c-6.8,0.7-13.6-1.3-19-5.5l0,0c-0.7-0.6-1.4-1.2-2-1.8l0,0c-7.5-7.4-9.6-18.6-5.4-28.2l0,0v-0.1l-18-7.7
			v0.1c-7.4,16.9-3.6,36.6,9.5,49.6l0,0c1.1,1.1,2.3,2.2,3.6,3.2l0,0c15.9,12.6,38.1,13.3,54.8,1.9l0,0l0,0l0,0
			c-1,3.3-2.6,6.3-4.8,8.9l0,0c-4.3,5.3-10.6,8.6-17.4,9.3l0,0c-0.9,0.1-1.8,0.1-2.7,0.1l0,0c-10.5,0-20.1-6.4-24.1-16.1l0,0v-0.1
			l-18.3,7.1v0.1c7.1,17.2,23.8,28.4,42.4,28.4l0,0c1.6,0,3.2-0.1,4.8-0.2l0,0c20.1-2,36.4-17,40.1-36.8l0,0l0,0l0,0
			c1.7,3,2.7,6.2,3.1,9.6l0,0c0.7,6.7-1.3,13.5-5.6,18.7l0,0c-0.6,0.7-1.2,1.4-1.8,2l0,0c-7.6,7.4-18.9,9.5-28.6,5.3l0,0h-0.1
			l-7.9,17.8h0.1c17.2,7.3,37,3.6,50.4-9.4l0,0c1.1-1.1,2.2-2.3,3.2-3.5l0,0c12.8-15.5,13.5-37.6,1.9-53.9l0,0l0,0
			c3.3,0.9,6.4,2.5,9.1,4.7l0,0c5.3,4.2,8.7,10.4,9.5,17.1l0,0c0.1,0.9,0.2,1.8,0.2,2.7l0,0c-0.1,10.5-6.6,19.9-16.4,23.7l0,0h-0.1
			l7.2,18h0.1c17.3-6.7,28.7-23.2,28.9-41.7l0,0c0-1.6-0.1-3.2-0.3-4.7l0,0c-2.3-20-17.6-36.1-37.4-39.5l0,0l0,0l0,0
			c3-1.6,6.4-2.7,9.8-3l0,0c6.8-0.7,13.7,1.3,19,5.5l0,0c0.7,0.6,1.4,1.2,2,1.8l0,0c7.4,7.4,9.6,18.6,5.4,28.2l0,0v0.1l18,7.7v-0.1
			c7.4-16.9,3.6-36.6-9.5-49.6l0,0c-1.1-1.1-2.3-2.2-3.6-3.2l0,0C401.2,68.7,379,68,362.2,79.4l0,0l0,0l0,0c1-3.3,2.6-6.3,4.8-8.9
			l0,0c4.3-5.3,10.6-8.6,17.4-9.3l0,0c0.9-0.1,1.8-0.1,2.7-0.1l0,0c10.6,0,20.1,6.4,24.1,16.1l0,0v0.1l18.3-7.1v-0.1
			c-7.1-17.2-23.8-28.4-42.4-28.4l0,0c-1.6,0-3.2,0.1-4.8,0.3l0,0c-20.1,2-36.4,17-40.1,36.8l0,0l0,0l0,0c-1.7-3-2.7-6.2-3.1-9.6
			l0,0c-0.7-6.7,1.3-13.5,5.6-18.7l0,0c0.6-0.7,1.2-1.4,1.8-2l0,0c7.6-7.4,18.9-9.5,28.6-5.3l0,0h0.1l7.9-17.8H383
			c-5.6-2.4-11.6-3.6-17.6-3.7h-0.9V21.5z"/>
	</g>
	<g transform="translate(0 62.52)">
		<path class="st0" d="M23.9,122.1h-3.3l7.6-20.3h2.5l7.6,20.3H35l-1.4-4.1h-8.1L23.9,122.1L23.9,122.1z M29.5,106.4l-3.2,9h6.3
			L29.5,106.4z"/>
		<path class="st0" d="M70.9,122.1v-13.6l-4.8,9.9h-2.3l-4.9-9.9v13.6h-3.1v-20.3h3.1l6,12.6l5.9-12.6H74v20.3H70.9z"/>
	</g>
</g>
</svg>
